M48
; DRILL file {KiCad 8.0.1} date 2024-04-04T12:49:52+0300
; FORMAT={-:-/ absolute / metric / decimal}
; #@! TF.CreationDate,2024-04-04T12:49:52+03:00
; #@! TF.GenerationSoftware,Kicad,Pcbnew,8.0.1
; #@! TF.FileFunction,Plated,1,2,PTH
FMAT,2
METRIC
; #@! TA.AperFunction,Plated,PTH,ViaDrill
T1C0.200
; #@! TA.AperFunction,Plated,PTH,ViaDrill
T2C0.350
; #@! TA.AperFunction,Plated,PTH,ComponentDrill
T3C0.500
; #@! TA.AperFunction,Plated,PTH,ComponentDrill
T4C1.000
%
G90
G05
T1
X82.709Y-78.693
X83.709Y-78.693
T2
X44.83Y-50.697
X44.83Y-55.777
X44.83Y-59.587
X44.83Y-69.747
X44.83Y-76.097
X44.83Y-82.447
X46.1Y-44.347
X46.109Y-78.593
X46.109Y-79.793
X47.37Y-68.477
X47.37Y-72.287
X47.37Y-79.907
X48.64Y-39.267
X48.64Y-50.697
X48.64Y-55.777
X48.64Y-59.587
X48.64Y-69.747
X49.513Y-62.943
X49.709Y-74.293
X49.709Y-79.093
X49.91Y-44.347
X49.91Y-62.127
X49.91Y-65.937
X49.91Y-67.207
X51.18Y-55.777
X51.21Y-69.197
X51.76Y-60.431
X51.817Y-71.989
X52.21Y-70.156
X52.21Y-65.597
X52.422Y-66.859
X52.45Y-90.067
X52.45Y-93.877
X54.01Y-66.816
X54.108Y-72.036
X55.276Y-85.548
X55.31Y-51.697
X55.31Y-59.197
X55.558Y-77.659
X55.707Y-79.573
X55.71Y-44.597
X56.21Y-64.697
X56.26Y-39.267
X56.91Y-60.797
X57.054Y-42.323
X57.53Y-74.827
X57.53Y-76.097
X57.707Y-79.254
X58.41Y-63.597
X58.8Y-43.077
X58.8Y-68.477
X58.8Y-72.287
X58.8Y-82.447
X59.01Y-53.997
X59.21Y-51.797
X59.21Y-59.497
X59.21Y-64.697
X59.51Y-56.097
X60.07Y-79.907
X60.07Y-88.797
X60.07Y-93.877
X60.91Y-37.897
X60.995Y-62.197
X61.01Y-54.897
X61.01Y-56.097
X61.209Y-92.693
X61.21Y-52.697
X61.34Y-68.477
X61.34Y-83.717
X61.34Y-88.797
X62.01Y-56.097
X62.087Y-59.642
X62.509Y-92.693
X62.51Y-58.497
X62.61Y-86.097
X62.81Y-54.697
X63.21Y-64.697
X63.21Y-32.197
X64.209Y-68.993
X64.468Y-80.612
X64.76Y-92.427
X65.15Y-84.987
X65.15Y-87.527
X65.201Y-94.053
X66.21Y-64.697
X66.22Y-57.531
X66.298Y-72.492
X66.509Y-76.593
X67.236Y-85.015
X67.986Y-57.51
X68.81Y-89.897
X68.981Y-70.443
X69.21Y-40.697
X69.21Y-64.697
X69.709Y-72.443
X70.23Y-77.367
X70.901Y-57.404
X71.5Y-71.017
X71.5Y-84.987
X71.51Y-94.097
X72.26Y-78.252
X72.71Y-81.127
X72.77Y-68.477
X72.77Y-86.257
X73.009Y-87.693
X73.11Y-61.397
X73.11Y-66.797
X74.04Y-82.447
X74.04Y-84.987
X74.209Y-87.693
X74.31Y-80.897
X75.31Y-69.747
X75.51Y-94.097
X76.21Y-35.497
X76.58Y-77.367
X76.58Y-82.447
X76.58Y-88.797
X76.81Y-52.897
X77.01Y-55.897
X77.51Y-79.997
X77.85Y-84.987
X78.11Y-66.797
X78.21Y-47.697
X79.11Y-72.497
X79.12Y-77.367
X79.12Y-79.907
X80.39Y-69.747
X80.39Y-82.447
X80.39Y-84.987
X81.01Y-66.797
X81.21Y-42.697
X81.31Y-36.497
X81.66Y-78.637
X82.01Y-61.997
X82.41Y-63.597
X82.41Y-64.397
X82.93Y-86.257
X83.21Y-63.597
X83.21Y-64.397
X83.51Y-61.997
X83.7Y-41.807
X84.31Y-53.997
X84.778Y-76.454
X84.81Y-78.697
X84.91Y-62.097
X85.078Y-81.462
X85.11Y-66.797
X85.209Y-84.943
X85.21Y-52.697
X85.47Y-59.587
X85.47Y-69.747
X85.47Y-73.557
X85.61Y-89.997
X85.91Y-85.897
X85.93Y-56.177
X86.21Y-53.697
T3
X64.59Y-24.147
X64.59Y-27.897
X73.23Y-24.147
X73.23Y-27.897
T4
X77.399Y-92.693
X79.939Y-92.693
X82.479Y-92.693
X85.019Y-92.693
M30
