G04 #@! TF.GenerationSoftware,KiCad,Pcbnew,8.0.1*
G04 #@! TF.CreationDate,2024-04-04T12:49:37+03:00*
G04 #@! TF.ProjectId,TWV,5457562e-6b69-4636-9164-5f7063625858,V-0.96*
G04 #@! TF.SameCoordinates,Original*
G04 #@! TF.FileFunction,Soldermask,Bot*
G04 #@! TF.FilePolarity,Negative*
%FSLAX46Y46*%
G04 Gerber Fmt 4.6, Leading zero omitted, Abs format (unit mm)*
G04 Created by KiCad (PCBNEW 8.0.1) date 2024-04-04 12:49:37*
%MOMM*%
%LPD*%
G01*
G04 APERTURE LIST*
G04 APERTURE END LIST*
G36*
X86057780Y-91599476D02*
G01*
X86090741Y-91621500D01*
X86112765Y-91654461D01*
X86120499Y-91693342D01*
X86120499Y-93693342D01*
X86112765Y-93732223D01*
X86090741Y-93765184D01*
X86057780Y-93787208D01*
X86018899Y-93794942D01*
X84018899Y-93794942D01*
X83980018Y-93787208D01*
X83947057Y-93765184D01*
X83925033Y-93732223D01*
X83917299Y-93693342D01*
X83917299Y-91693342D01*
X83925033Y-91654461D01*
X83947057Y-91621500D01*
X83980018Y-91599476D01*
X84018899Y-91591742D01*
X86018899Y-91591742D01*
X86057780Y-91599476D01*
G37*
G36*
X77700366Y-91633795D02*
G01*
X77889924Y-91707230D01*
X78062761Y-91814246D01*
X78212991Y-91951199D01*
X78335498Y-92113424D01*
X78426110Y-92295398D01*
X78481742Y-92490924D01*
X78500499Y-92693342D01*
X78481742Y-92895760D01*
X78426110Y-93091286D01*
X78335498Y-93273260D01*
X78212991Y-93435485D01*
X78062761Y-93572438D01*
X77889924Y-93679454D01*
X77700366Y-93752889D01*
X77500542Y-93790243D01*
X77297256Y-93790243D01*
X77097432Y-93752889D01*
X76907874Y-93679454D01*
X76735037Y-93572438D01*
X76584807Y-93435485D01*
X76462300Y-93273260D01*
X76371688Y-93091286D01*
X76316056Y-92895760D01*
X76297299Y-92693342D01*
X76316056Y-92490924D01*
X76371688Y-92295398D01*
X76462300Y-92113424D01*
X76584807Y-91951199D01*
X76735037Y-91814246D01*
X76907874Y-91707230D01*
X77097432Y-91633795D01*
X77297256Y-91596441D01*
X77500542Y-91596441D01*
X77700366Y-91633795D01*
G37*
G36*
X80240366Y-91633795D02*
G01*
X80429924Y-91707230D01*
X80602761Y-91814246D01*
X80752991Y-91951199D01*
X80875498Y-92113424D01*
X80966110Y-92295398D01*
X81021742Y-92490924D01*
X81040499Y-92693342D01*
X81021742Y-92895760D01*
X80966110Y-93091286D01*
X80875498Y-93273260D01*
X80752991Y-93435485D01*
X80602761Y-93572438D01*
X80429924Y-93679454D01*
X80240366Y-93752889D01*
X80040542Y-93790243D01*
X79837256Y-93790243D01*
X79637432Y-93752889D01*
X79447874Y-93679454D01*
X79275037Y-93572438D01*
X79124807Y-93435485D01*
X79002300Y-93273260D01*
X78911688Y-93091286D01*
X78856056Y-92895760D01*
X78837299Y-92693342D01*
X78856056Y-92490924D01*
X78911688Y-92295398D01*
X79002300Y-92113424D01*
X79124807Y-91951199D01*
X79275037Y-91814246D01*
X79447874Y-91707230D01*
X79637432Y-91633795D01*
X79837256Y-91596441D01*
X80040542Y-91596441D01*
X80240366Y-91633795D01*
G37*
G36*
X82780366Y-91633795D02*
G01*
X82969924Y-91707230D01*
X83142761Y-91814246D01*
X83292991Y-91951199D01*
X83415498Y-92113424D01*
X83506110Y-92295398D01*
X83561742Y-92490924D01*
X83580499Y-92693342D01*
X83561742Y-92895760D01*
X83506110Y-93091286D01*
X83415498Y-93273260D01*
X83292991Y-93435485D01*
X83142761Y-93572438D01*
X82969924Y-93679454D01*
X82780366Y-93752889D01*
X82580542Y-93790243D01*
X82377256Y-93790243D01*
X82177432Y-93752889D01*
X81987874Y-93679454D01*
X81815037Y-93572438D01*
X81664807Y-93435485D01*
X81542300Y-93273260D01*
X81451688Y-93091286D01*
X81396056Y-92895760D01*
X81377299Y-92693342D01*
X81396056Y-92490924D01*
X81451688Y-92295398D01*
X81542300Y-92113424D01*
X81664807Y-91951199D01*
X81815037Y-91814246D01*
X81987874Y-91707230D01*
X82177432Y-91633795D01*
X82377256Y-91596441D01*
X82580542Y-91596441D01*
X82780366Y-91633795D01*
G37*
G36*
X64659635Y-26792523D02*
G01*
X64669046Y-26792523D01*
X64696157Y-26799787D01*
X64765729Y-26813626D01*
X64798571Y-26827229D01*
X64821752Y-26833441D01*
X64842534Y-26845439D01*
X64875376Y-26859043D01*
X64934358Y-26898454D01*
X64958665Y-26912487D01*
X64965318Y-26919140D01*
X64974049Y-26924974D01*
X65057966Y-27008891D01*
X65063799Y-27017621D01*
X65070454Y-27024276D01*
X65084489Y-27048585D01*
X65123897Y-27107564D01*
X65137499Y-27140402D01*
X65149500Y-27161189D01*
X65155712Y-27184373D01*
X65169314Y-27217211D01*
X65183150Y-27286772D01*
X65190418Y-27313895D01*
X65190463Y-27323540D01*
X65192478Y-27333666D01*
X65195595Y-28399902D01*
X65195594Y-28399919D01*
X65195599Y-28400942D01*
X65195378Y-28404299D01*
X65192682Y-28459192D01*
X65191338Y-28465947D01*
X65190418Y-28479989D01*
X65183149Y-28507113D01*
X65169314Y-28576672D01*
X65155713Y-28609507D01*
X65149500Y-28632695D01*
X65137497Y-28653483D01*
X65123897Y-28686319D01*
X65084493Y-28745290D01*
X65070454Y-28769608D01*
X65063797Y-28776264D01*
X65057966Y-28784992D01*
X64974049Y-28868909D01*
X64965321Y-28874740D01*
X64958665Y-28881397D01*
X64934347Y-28895436D01*
X64875376Y-28934840D01*
X64842540Y-28948440D01*
X64821752Y-28960443D01*
X64798564Y-28966656D01*
X64765729Y-28980257D01*
X64696163Y-28994094D01*
X64669046Y-29001361D01*
X64659635Y-29001361D01*
X64649339Y-29003409D01*
X64530659Y-29003409D01*
X64520363Y-29001361D01*
X64510952Y-29001361D01*
X64483835Y-28994095D01*
X64414268Y-28980257D01*
X64381430Y-28966655D01*
X64358246Y-28960443D01*
X64337459Y-28948442D01*
X64304621Y-28934840D01*
X64245642Y-28895432D01*
X64221333Y-28881397D01*
X64214678Y-28874742D01*
X64205948Y-28868909D01*
X64122031Y-28784992D01*
X64116197Y-28776261D01*
X64109544Y-28769608D01*
X64095511Y-28745301D01*
X64056100Y-28686319D01*
X64042496Y-28653477D01*
X64030498Y-28632695D01*
X64024286Y-28609514D01*
X64010683Y-28576672D01*
X63996844Y-28507100D01*
X63989580Y-28479989D01*
X63989534Y-28470347D01*
X63987519Y-28460217D01*
X63984402Y-27393981D01*
X63984403Y-27393944D01*
X63984399Y-27392942D01*
X63984614Y-27389648D01*
X63987315Y-27334691D01*
X63988660Y-27327928D01*
X63989580Y-27313895D01*
X63996843Y-27286787D01*
X64010683Y-27217211D01*
X64024287Y-27184366D01*
X64030498Y-27161189D01*
X64042495Y-27140408D01*
X64056100Y-27107564D01*
X64095515Y-27048574D01*
X64109544Y-27024276D01*
X64116195Y-27017624D01*
X64122031Y-27008891D01*
X64205948Y-26924974D01*
X64214681Y-26919138D01*
X64221333Y-26912487D01*
X64245631Y-26898458D01*
X64304621Y-26859043D01*
X64337465Y-26845438D01*
X64358246Y-26833441D01*
X64381423Y-26827230D01*
X64414268Y-26813626D01*
X64483841Y-26799787D01*
X64510952Y-26792523D01*
X64520363Y-26792523D01*
X64530659Y-26790475D01*
X64649339Y-26790475D01*
X64659635Y-26792523D01*
G37*
G36*
X73299635Y-26792523D02*
G01*
X73309046Y-26792523D01*
X73336157Y-26799787D01*
X73405729Y-26813626D01*
X73438571Y-26827229D01*
X73461752Y-26833441D01*
X73482534Y-26845439D01*
X73515376Y-26859043D01*
X73574358Y-26898454D01*
X73598665Y-26912487D01*
X73605318Y-26919140D01*
X73614049Y-26924974D01*
X73697966Y-27008891D01*
X73703799Y-27017621D01*
X73710454Y-27024276D01*
X73724489Y-27048585D01*
X73763897Y-27107564D01*
X73777499Y-27140402D01*
X73789500Y-27161189D01*
X73795712Y-27184373D01*
X73809314Y-27217211D01*
X73823150Y-27286772D01*
X73830418Y-27313895D01*
X73830463Y-27323540D01*
X73832478Y-27333666D01*
X73835595Y-28399902D01*
X73835594Y-28399919D01*
X73835599Y-28400942D01*
X73835378Y-28404299D01*
X73832682Y-28459192D01*
X73831338Y-28465947D01*
X73830418Y-28479989D01*
X73823149Y-28507113D01*
X73809314Y-28576672D01*
X73795713Y-28609507D01*
X73789500Y-28632695D01*
X73777497Y-28653483D01*
X73763897Y-28686319D01*
X73724493Y-28745290D01*
X73710454Y-28769608D01*
X73703797Y-28776264D01*
X73697966Y-28784992D01*
X73614049Y-28868909D01*
X73605321Y-28874740D01*
X73598665Y-28881397D01*
X73574347Y-28895436D01*
X73515376Y-28934840D01*
X73482540Y-28948440D01*
X73461752Y-28960443D01*
X73438564Y-28966656D01*
X73405729Y-28980257D01*
X73336163Y-28994094D01*
X73309046Y-29001361D01*
X73299635Y-29001361D01*
X73289339Y-29003409D01*
X73170659Y-29003409D01*
X73160363Y-29001361D01*
X73150952Y-29001361D01*
X73123835Y-28994095D01*
X73054268Y-28980257D01*
X73021430Y-28966655D01*
X72998246Y-28960443D01*
X72977459Y-28948442D01*
X72944621Y-28934840D01*
X72885642Y-28895432D01*
X72861333Y-28881397D01*
X72854678Y-28874742D01*
X72845948Y-28868909D01*
X72762031Y-28784992D01*
X72756197Y-28776261D01*
X72749544Y-28769608D01*
X72735511Y-28745301D01*
X72696100Y-28686319D01*
X72682496Y-28653477D01*
X72670498Y-28632695D01*
X72664286Y-28609514D01*
X72650683Y-28576672D01*
X72636844Y-28507100D01*
X72629580Y-28479989D01*
X72629534Y-28470347D01*
X72627519Y-28460217D01*
X72624402Y-27393981D01*
X72624403Y-27393944D01*
X72624399Y-27392942D01*
X72624614Y-27389648D01*
X72627315Y-27334691D01*
X72628660Y-27327928D01*
X72629580Y-27313895D01*
X72636843Y-27286787D01*
X72650683Y-27217211D01*
X72664287Y-27184366D01*
X72670498Y-27161189D01*
X72682495Y-27140408D01*
X72696100Y-27107564D01*
X72735515Y-27048574D01*
X72749544Y-27024276D01*
X72756195Y-27017624D01*
X72762031Y-27008891D01*
X72845948Y-26924974D01*
X72854681Y-26919138D01*
X72861333Y-26912487D01*
X72885631Y-26898458D01*
X72944621Y-26859043D01*
X72977465Y-26845438D01*
X72998246Y-26833441D01*
X73021423Y-26827230D01*
X73054268Y-26813626D01*
X73123841Y-26799787D01*
X73150952Y-26792523D01*
X73160363Y-26792523D01*
X73170659Y-26790475D01*
X73289339Y-26790475D01*
X73299635Y-26792523D01*
G37*
G36*
X64659635Y-23042523D02*
G01*
X64669046Y-23042523D01*
X64696157Y-23049787D01*
X64765729Y-23063626D01*
X64798571Y-23077229D01*
X64821752Y-23083441D01*
X64842534Y-23095439D01*
X64875376Y-23109043D01*
X64934358Y-23148454D01*
X64958665Y-23162487D01*
X64965318Y-23169140D01*
X64974049Y-23174974D01*
X65057966Y-23258891D01*
X65063799Y-23267621D01*
X65070454Y-23274276D01*
X65084489Y-23298585D01*
X65123897Y-23357564D01*
X65137499Y-23390402D01*
X65149500Y-23411189D01*
X65155712Y-23434373D01*
X65169314Y-23467211D01*
X65183150Y-23536772D01*
X65190418Y-23563895D01*
X65190463Y-23573540D01*
X65192478Y-23583666D01*
X65195595Y-24649902D01*
X65195594Y-24649919D01*
X65195599Y-24650942D01*
X65195378Y-24654299D01*
X65192682Y-24709192D01*
X65191338Y-24715947D01*
X65190418Y-24729989D01*
X65183149Y-24757113D01*
X65169314Y-24826672D01*
X65155713Y-24859507D01*
X65149500Y-24882695D01*
X65137497Y-24903483D01*
X65123897Y-24936319D01*
X65084493Y-24995290D01*
X65070454Y-25019608D01*
X65063797Y-25026264D01*
X65057966Y-25034992D01*
X64974049Y-25118909D01*
X64965321Y-25124740D01*
X64958665Y-25131397D01*
X64934347Y-25145436D01*
X64875376Y-25184840D01*
X64842540Y-25198440D01*
X64821752Y-25210443D01*
X64798564Y-25216656D01*
X64765729Y-25230257D01*
X64696163Y-25244094D01*
X64669046Y-25251361D01*
X64659635Y-25251361D01*
X64649339Y-25253409D01*
X64530659Y-25253409D01*
X64520363Y-25251361D01*
X64510952Y-25251361D01*
X64483835Y-25244095D01*
X64414268Y-25230257D01*
X64381430Y-25216655D01*
X64358246Y-25210443D01*
X64337459Y-25198442D01*
X64304621Y-25184840D01*
X64245642Y-25145432D01*
X64221333Y-25131397D01*
X64214678Y-25124742D01*
X64205948Y-25118909D01*
X64122031Y-25034992D01*
X64116197Y-25026261D01*
X64109544Y-25019608D01*
X64095511Y-24995301D01*
X64056100Y-24936319D01*
X64042496Y-24903477D01*
X64030498Y-24882695D01*
X64024286Y-24859514D01*
X64010683Y-24826672D01*
X63996844Y-24757100D01*
X63989580Y-24729989D01*
X63989534Y-24720347D01*
X63987519Y-24710217D01*
X63984402Y-23643981D01*
X63984403Y-23643944D01*
X63984399Y-23642942D01*
X63984614Y-23639648D01*
X63987315Y-23584691D01*
X63988660Y-23577928D01*
X63989580Y-23563895D01*
X63996843Y-23536787D01*
X64010683Y-23467211D01*
X64024287Y-23434366D01*
X64030498Y-23411189D01*
X64042495Y-23390408D01*
X64056100Y-23357564D01*
X64095515Y-23298574D01*
X64109544Y-23274276D01*
X64116195Y-23267624D01*
X64122031Y-23258891D01*
X64205948Y-23174974D01*
X64214681Y-23169138D01*
X64221333Y-23162487D01*
X64245631Y-23148458D01*
X64304621Y-23109043D01*
X64337465Y-23095438D01*
X64358246Y-23083441D01*
X64381423Y-23077230D01*
X64414268Y-23063626D01*
X64483841Y-23049787D01*
X64510952Y-23042523D01*
X64520363Y-23042523D01*
X64530659Y-23040475D01*
X64649339Y-23040475D01*
X64659635Y-23042523D01*
G37*
G36*
X73299635Y-23042523D02*
G01*
X73309046Y-23042523D01*
X73336157Y-23049787D01*
X73405729Y-23063626D01*
X73438571Y-23077229D01*
X73461752Y-23083441D01*
X73482534Y-23095439D01*
X73515376Y-23109043D01*
X73574358Y-23148454D01*
X73598665Y-23162487D01*
X73605318Y-23169140D01*
X73614049Y-23174974D01*
X73697966Y-23258891D01*
X73703799Y-23267621D01*
X73710454Y-23274276D01*
X73724489Y-23298585D01*
X73763897Y-23357564D01*
X73777499Y-23390402D01*
X73789500Y-23411189D01*
X73795712Y-23434373D01*
X73809314Y-23467211D01*
X73823150Y-23536772D01*
X73830418Y-23563895D01*
X73830463Y-23573540D01*
X73832478Y-23583666D01*
X73835595Y-24649902D01*
X73835594Y-24649919D01*
X73835599Y-24650942D01*
X73835378Y-24654299D01*
X73832682Y-24709192D01*
X73831338Y-24715947D01*
X73830418Y-24729989D01*
X73823149Y-24757113D01*
X73809314Y-24826672D01*
X73795713Y-24859507D01*
X73789500Y-24882695D01*
X73777497Y-24903483D01*
X73763897Y-24936319D01*
X73724493Y-24995290D01*
X73710454Y-25019608D01*
X73703797Y-25026264D01*
X73697966Y-25034992D01*
X73614049Y-25118909D01*
X73605321Y-25124740D01*
X73598665Y-25131397D01*
X73574347Y-25145436D01*
X73515376Y-25184840D01*
X73482540Y-25198440D01*
X73461752Y-25210443D01*
X73438564Y-25216656D01*
X73405729Y-25230257D01*
X73336163Y-25244094D01*
X73309046Y-25251361D01*
X73299635Y-25251361D01*
X73289339Y-25253409D01*
X73170659Y-25253409D01*
X73160363Y-25251361D01*
X73150952Y-25251361D01*
X73123835Y-25244095D01*
X73054268Y-25230257D01*
X73021430Y-25216655D01*
X72998246Y-25210443D01*
X72977459Y-25198442D01*
X72944621Y-25184840D01*
X72885642Y-25145432D01*
X72861333Y-25131397D01*
X72854678Y-25124742D01*
X72845948Y-25118909D01*
X72762031Y-25034992D01*
X72756197Y-25026261D01*
X72749544Y-25019608D01*
X72735511Y-24995301D01*
X72696100Y-24936319D01*
X72682496Y-24903477D01*
X72670498Y-24882695D01*
X72664286Y-24859514D01*
X72650683Y-24826672D01*
X72636844Y-24757100D01*
X72629580Y-24729989D01*
X72629534Y-24720347D01*
X72627519Y-24710217D01*
X72624402Y-23643981D01*
X72624403Y-23643944D01*
X72624399Y-23642942D01*
X72624614Y-23639648D01*
X72627315Y-23584691D01*
X72628660Y-23577928D01*
X72629580Y-23563895D01*
X72636843Y-23536787D01*
X72650683Y-23467211D01*
X72664287Y-23434366D01*
X72670498Y-23411189D01*
X72682495Y-23390408D01*
X72696100Y-23357564D01*
X72735515Y-23298574D01*
X72749544Y-23274276D01*
X72756195Y-23267624D01*
X72762031Y-23258891D01*
X72845948Y-23174974D01*
X72854681Y-23169138D01*
X72861333Y-23162487D01*
X72885631Y-23148458D01*
X72944621Y-23109043D01*
X72977465Y-23095438D01*
X72998246Y-23083441D01*
X73021423Y-23077230D01*
X73054268Y-23063626D01*
X73123841Y-23049787D01*
X73150952Y-23042523D01*
X73160363Y-23042523D01*
X73170659Y-23040475D01*
X73289339Y-23040475D01*
X73299635Y-23042523D01*
G37*
M02*
