%TF.GenerationSoftware,KiCad,Pcbnew,8.0.1*%
%TF.CreationDate,2024-04-04T12:49:57+03:00*%
%TF.ProjectId,TWV,5457562e-6b69-4636-9164-5f7063625858,V-0.96*%
%TF.SameCoordinates,Original*%
%TF.FileFunction,Drillmap*%
%TF.FilePolarity,Positive*%
%FSLAX45Y45*%
G04 Gerber Fmt 4.5, Leading zero omitted, Abs format (unit mm)*
G04 Created by KiCad (PCBNEW 8.0.1) date 2024-04-04 12:49:57*
%MOMM*%
%LPD*%
G01*
G04 APERTURE LIST*
%ADD10C,0.100000*%
%ADD11C,0.200000*%
G04 APERTURE END LIST*
D10*
X4421000Y-8339694D02*
G75*
G02*
X5120996Y-9019694I10000J-689996D01*
G01*
X6262219Y-2340234D02*
X6243500Y-2587194D01*
X8701000Y-8812783D02*
X8701000Y-9469694D01*
X7308500Y-2219694D02*
X6471000Y-2219694D01*
X6243500Y-2587194D02*
X6239299Y-2693094D01*
X4421000Y-4439694D02*
X4421000Y-8339694D01*
X7538500Y-2597194D02*
X7518118Y-2340717D01*
X6239299Y-2693094D02*
G75*
G02*
X5239400Y-3702994I-1101726J90867D01*
G01*
X7056000Y-8170494D02*
G75*
G02*
X6736000Y-8170494I-160000J0D01*
G01*
X6736000Y-8170494D02*
G75*
G02*
X7056000Y-8170494I160000J0D01*
G01*
X6471000Y-2219694D02*
X6262219Y-2340234D01*
X8701000Y-8812783D02*
X8701000Y-7239694D01*
X8701000Y-3700170D02*
G75*
G02*
X7538496Y-2597195I-24650J1138130D01*
G01*
X8701000Y-7239694D02*
X8701000Y-5619694D01*
X4421000Y-4439694D02*
G75*
G02*
X5143500Y-3707194I727500J5000D01*
G01*
X8701000Y-5619694D02*
X8701000Y-3700170D01*
X5121000Y-9469694D02*
X8671000Y-9469694D01*
X5239400Y-3702994D02*
X5143500Y-3707194D01*
X7518118Y-2340717D02*
X7308500Y-2219694D01*
X7296000Y-4942694D02*
G75*
G02*
X6496000Y-4942694I-400000J0D01*
G01*
X6496000Y-4942694D02*
G75*
G02*
X7296000Y-4942694I400000J0D01*
G01*
X5121000Y-9019694D02*
X5121000Y-9469694D01*
X8701000Y-9469694D02*
X8671000Y-9469694D01*
X7056000Y-3309694D02*
G75*
G02*
X6736000Y-3309694I-160000J0D01*
G01*
X6736000Y-3309694D02*
G75*
G02*
X7056000Y-3309694I160000J0D01*
G01*
D11*
X4676760Y-9786178D02*
X4676760Y-9586178D01*
X4676760Y-9586178D02*
X4724379Y-9586178D01*
X4724379Y-9586178D02*
X4752950Y-9595702D01*
X4752950Y-9595702D02*
X4771998Y-9614749D01*
X4771998Y-9614749D02*
X4781521Y-9633797D01*
X4781521Y-9633797D02*
X4791045Y-9671892D01*
X4791045Y-9671892D02*
X4791045Y-9700464D01*
X4791045Y-9700464D02*
X4781521Y-9738559D01*
X4781521Y-9738559D02*
X4771998Y-9757607D01*
X4771998Y-9757607D02*
X4752950Y-9776654D01*
X4752950Y-9776654D02*
X4724379Y-9786178D01*
X4724379Y-9786178D02*
X4676760Y-9786178D01*
X4876760Y-9786178D02*
X4876760Y-9652845D01*
X4876760Y-9690940D02*
X4886283Y-9671892D01*
X4886283Y-9671892D02*
X4895807Y-9662368D01*
X4895807Y-9662368D02*
X4914855Y-9652845D01*
X4914855Y-9652845D02*
X4933902Y-9652845D01*
X5000569Y-9786178D02*
X5000569Y-9652845D01*
X5000569Y-9586178D02*
X4991045Y-9595702D01*
X4991045Y-9595702D02*
X5000569Y-9605226D01*
X5000569Y-9605226D02*
X5010093Y-9595702D01*
X5010093Y-9595702D02*
X5000569Y-9586178D01*
X5000569Y-9586178D02*
X5000569Y-9605226D01*
X5124379Y-9786178D02*
X5105331Y-9776654D01*
X5105331Y-9776654D02*
X5095807Y-9757607D01*
X5095807Y-9757607D02*
X5095807Y-9586178D01*
X5229140Y-9786178D02*
X5210093Y-9776654D01*
X5210093Y-9776654D02*
X5200569Y-9757607D01*
X5200569Y-9757607D02*
X5200569Y-9586178D01*
X5457712Y-9786178D02*
X5457712Y-9586178D01*
X5457712Y-9586178D02*
X5524379Y-9729035D01*
X5524379Y-9729035D02*
X5591045Y-9586178D01*
X5591045Y-9586178D02*
X5591045Y-9786178D01*
X5771998Y-9786178D02*
X5771998Y-9681416D01*
X5771998Y-9681416D02*
X5762474Y-9662368D01*
X5762474Y-9662368D02*
X5743426Y-9652845D01*
X5743426Y-9652845D02*
X5705331Y-9652845D01*
X5705331Y-9652845D02*
X5686283Y-9662368D01*
X5771998Y-9776654D02*
X5752950Y-9786178D01*
X5752950Y-9786178D02*
X5705331Y-9786178D01*
X5705331Y-9786178D02*
X5686283Y-9776654D01*
X5686283Y-9776654D02*
X5676759Y-9757607D01*
X5676759Y-9757607D02*
X5676759Y-9738559D01*
X5676759Y-9738559D02*
X5686283Y-9719511D01*
X5686283Y-9719511D02*
X5705331Y-9709988D01*
X5705331Y-9709988D02*
X5752950Y-9709988D01*
X5752950Y-9709988D02*
X5771998Y-9700464D01*
X5867236Y-9652845D02*
X5867236Y-9852845D01*
X5867236Y-9662368D02*
X5886283Y-9652845D01*
X5886283Y-9652845D02*
X5924379Y-9652845D01*
X5924379Y-9652845D02*
X5943426Y-9662368D01*
X5943426Y-9662368D02*
X5952950Y-9671892D01*
X5952950Y-9671892D02*
X5962474Y-9690940D01*
X5962474Y-9690940D02*
X5962474Y-9748083D01*
X5962474Y-9748083D02*
X5952950Y-9767130D01*
X5952950Y-9767130D02*
X5943426Y-9776654D01*
X5943426Y-9776654D02*
X5924379Y-9786178D01*
X5924379Y-9786178D02*
X5886283Y-9786178D01*
X5886283Y-9786178D02*
X5867236Y-9776654D01*
X6048188Y-9767130D02*
X6057712Y-9776654D01*
X6057712Y-9776654D02*
X6048188Y-9786178D01*
X6048188Y-9786178D02*
X6038664Y-9776654D01*
X6038664Y-9776654D02*
X6048188Y-9767130D01*
X6048188Y-9767130D02*
X6048188Y-9786178D01*
X6048188Y-9662368D02*
X6057712Y-9671892D01*
X6057712Y-9671892D02*
X6048188Y-9681416D01*
X6048188Y-9681416D02*
X6038664Y-9671892D01*
X6038664Y-9671892D02*
X6048188Y-9662368D01*
X6048188Y-9662368D02*
X6048188Y-9681416D01*
M02*
