G04 #@! TF.GenerationSoftware,KiCad,Pcbnew,8.0.1*
G04 #@! TF.CreationDate,2024-04-04T12:49:37+03:00*
G04 #@! TF.ProjectId,TWV,5457562e-6b69-4636-9164-5f7063625858,V-0.96*
G04 #@! TF.SameCoordinates,Original*
G04 #@! TF.FileFunction,Profile,NP*
%FSLAX46Y46*%
G04 Gerber Fmt 4.6, Leading zero omitted, Abs format (unit mm)*
G04 Created by KiCad (PCBNEW 8.0.1) date 2024-04-04 12:49:37*
%MOMM*%
%LPD*%
G01*
G04 APERTURE LIST*
G04 #@! TA.AperFunction,Profile*
%ADD10C,0.100000*%
G04 #@! TD*
G04 APERTURE END LIST*
D10*
X44209998Y-83396942D02*
G75*
G02*
X51209959Y-90196943I100002J-6899958D01*
G01*
X62622189Y-23402342D02*
X62434999Y-25871942D01*
X87010001Y-88127828D02*
X87010001Y-94696941D01*
X73084999Y-22196942D02*
X64709999Y-22196942D01*
X62434999Y-25871942D02*
X62392995Y-26930942D01*
X44209999Y-44396942D02*
X44209998Y-83396941D01*
X75384999Y-25971942D02*
X75181180Y-23407174D01*
X62392993Y-26930941D02*
G75*
G02*
X52393999Y-37029945I-11017263J908671D01*
G01*
X70559999Y-81704942D02*
G75*
G02*
X67359999Y-81704942I-1600000J0D01*
G01*
X67359999Y-81704942D02*
G75*
G02*
X70559999Y-81704942I1600000J0D01*
G01*
X64709999Y-22196942D02*
X62622189Y-23402342D01*
X87010001Y-88127828D02*
X87010001Y-72396941D01*
X87010001Y-37001700D02*
G75*
G02*
X75384960Y-25971945I-246501J11381300D01*
G01*
X87010001Y-72396941D02*
X87010001Y-56196943D01*
X44210000Y-44396942D02*
G75*
G02*
X51434999Y-37071940I7275000J50002D01*
G01*
X87010001Y-56196943D02*
X87010001Y-37001700D01*
X51209999Y-94696942D02*
X86709999Y-94696942D01*
X52393999Y-37029942D02*
X51434999Y-37071942D01*
X75181180Y-23407174D02*
X73084999Y-22196942D01*
X72959999Y-49426942D02*
G75*
G02*
X64959999Y-49426942I-4000000J0D01*
G01*
X64959999Y-49426942D02*
G75*
G02*
X72959999Y-49426942I4000000J0D01*
G01*
X51209999Y-90196942D02*
X51209999Y-94696942D01*
X87010001Y-94696941D02*
X86709999Y-94696941D01*
X70559999Y-33096942D02*
G75*
G02*
X67359999Y-33096942I-1600000J0D01*
G01*
X67359999Y-33096942D02*
G75*
G02*
X70559999Y-33096942I1600000J0D01*
G01*
M02*
