G04 #@! TF.GenerationSoftware,KiCad,Pcbnew,8.0.1*
G04 #@! TF.CreationDate,2024-04-04T12:49:37+03:00*
G04 #@! TF.ProjectId,TWV,5457562e-6b69-4636-9164-5f7063625858,V-0.96*
G04 #@! TF.SameCoordinates,Original*
G04 #@! TF.FileFunction,Copper,L2,Bot*
G04 #@! TF.FilePolarity,Positive*
%FSLAX46Y46*%
G04 Gerber Fmt 4.6, Leading zero omitted, Abs format (unit mm)*
G04 Created by KiCad (PCBNEW 8.0.1) date 2024-04-04 12:49:37*
%MOMM*%
%LPD*%
G01*
G04 APERTURE LIST*
G04 #@! TA.AperFunction,ComponentPad*
%ADD10O,1.008000X2.016000*%
G04 #@! TD*
G04 #@! TA.AperFunction,ComponentPad*
%ADD11R,2.000000X2.000000*%
G04 #@! TD*
G04 #@! TA.AperFunction,ComponentPad*
%ADD12C,2.000000*%
G04 #@! TD*
G04 #@! TA.AperFunction,ViaPad*
%ADD13C,0.600000*%
G04 #@! TD*
G04 #@! TA.AperFunction,ViaPad*
%ADD14C,0.750000*%
G04 #@! TD*
G04 #@! TA.AperFunction,Conductor*
%ADD15C,0.300000*%
G04 #@! TD*
G04 #@! TA.AperFunction,Conductor*
%ADD16C,1.000000*%
G04 #@! TD*
G04 #@! TA.AperFunction,Conductor*
%ADD17C,0.200000*%
G04 #@! TD*
G04 #@! TA.AperFunction,Conductor*
%ADD18C,0.400000*%
G04 #@! TD*
G04 #@! TA.AperFunction,Conductor*
%ADD19C,0.800000*%
G04 #@! TD*
G04 #@! TA.AperFunction,Conductor*
%ADD20C,0.600000*%
G04 #@! TD*
G04 APERTURE END LIST*
D10*
X64589999Y-27896942D03*
X73229999Y-27896942D03*
X64589999Y-24146942D03*
X73229999Y-24146942D03*
D11*
X85018899Y-92693342D03*
D12*
X82478899Y-92693342D03*
X79938899Y-92693342D03*
X77398899Y-92693342D03*
D13*
X61339999Y-88796942D03*
X70229999Y-77366942D03*
D14*
X82409999Y-64396942D03*
D13*
X76809998Y-52896941D03*
X82929999Y-86256942D03*
X54010206Y-66816331D03*
X48639999Y-69746942D03*
D14*
X85109999Y-66796942D03*
D13*
X79119999Y-77366942D03*
X75509999Y-94096942D03*
X77849999Y-84986942D03*
X86209998Y-53696941D03*
X55276465Y-85548315D03*
X56909998Y-60796941D03*
X85469999Y-73556942D03*
X72769999Y-68476942D03*
X49909999Y-65936942D03*
D14*
X69708899Y-72443342D03*
D13*
X46099999Y-44346942D03*
X81209998Y-42696941D03*
X60069999Y-79906942D03*
X66220478Y-57531253D03*
X80389999Y-84986942D03*
D14*
X73109999Y-61396942D03*
X77509999Y-79996942D03*
D13*
X44829999Y-69746942D03*
X61209998Y-52696941D03*
X74039999Y-84986942D03*
X61339999Y-83716942D03*
X83708899Y-78693342D03*
X44829999Y-59586942D03*
X72769999Y-86256942D03*
D14*
X60909998Y-37896941D03*
D13*
X58799999Y-68476942D03*
D14*
X78109999Y-66796942D03*
D13*
X44829999Y-55776942D03*
D14*
X83209999Y-64396942D03*
D13*
X74039999Y-82446942D03*
X59009998Y-53996941D03*
X56209998Y-64696941D03*
X47369999Y-79906942D03*
X76579999Y-77366942D03*
X71509999Y-94096942D03*
X85209998Y-52696941D03*
X67986349Y-57509978D03*
X61009998Y-54896941D03*
X65149999Y-84986942D03*
D14*
X63209999Y-32196942D03*
D13*
X48639999Y-59586942D03*
D14*
X81009999Y-66796942D03*
D13*
X48639999Y-39266942D03*
X77009998Y-55896941D03*
X67236120Y-85015079D03*
X59209998Y-51796941D03*
X68809999Y-89896942D03*
X71499999Y-84986942D03*
D14*
X52209999Y-65596942D03*
D13*
X55709999Y-44596942D03*
D14*
X73109999Y-66796942D03*
D13*
X44829999Y-50696942D03*
X85077700Y-81461538D03*
D14*
X64208899Y-68993342D03*
D13*
X69209998Y-40696941D03*
X59209998Y-64696941D03*
X68981274Y-70442501D03*
X69209998Y-64696941D03*
X55558464Y-77659383D03*
X66209998Y-64696941D03*
X79119999Y-79906942D03*
X78209998Y-47696941D03*
X49909999Y-62126942D03*
X58799999Y-72286942D03*
X64759999Y-92426942D03*
X49909999Y-67206942D03*
X47369999Y-68476942D03*
X48639999Y-55776942D03*
X52421631Y-66858882D03*
X85469999Y-69746942D03*
X55309998Y-51696941D03*
D14*
X84809999Y-78696942D03*
D13*
X60069999Y-93876942D03*
X84777621Y-76453768D03*
X80389999Y-69746942D03*
X65149999Y-87526942D03*
X63209998Y-64696941D03*
D14*
X84909999Y-62096942D03*
X82409999Y-63596942D03*
D13*
X70901100Y-57403600D03*
X80389999Y-82446942D03*
X57529999Y-76096942D03*
X44829999Y-82446942D03*
X79109999Y-72496942D03*
X52449999Y-93876942D03*
X76579999Y-88796942D03*
X44829999Y-76096942D03*
X51179999Y-55776942D03*
X85929531Y-56177407D03*
X55309998Y-59196941D03*
X47369999Y-72286942D03*
D14*
X74309999Y-80896942D03*
D13*
X55706834Y-79573066D03*
X81309998Y-36496941D03*
X58799999Y-43076942D03*
X57706736Y-79253933D03*
D14*
X83209999Y-63596942D03*
X52209998Y-70155842D03*
D13*
X51760218Y-60430509D03*
X52449999Y-90066942D03*
X71499999Y-71016942D03*
X83699999Y-41806942D03*
X58799999Y-82446942D03*
X76579999Y-82446942D03*
X60069999Y-88796942D03*
X62609998Y-86096941D03*
X85469999Y-59586942D03*
X61339999Y-68476942D03*
D14*
X83509999Y-61996942D03*
X66508899Y-76593342D03*
D13*
X66297762Y-72492047D03*
X82708899Y-78693342D03*
X54107790Y-72035934D03*
D14*
X82009999Y-61996942D03*
D13*
X75309999Y-69746942D03*
X65201320Y-94052516D03*
X85609999Y-89996942D03*
X64467505Y-80612385D03*
X57529999Y-74826942D03*
X48639999Y-50696942D03*
X81659999Y-78636942D03*
X56259999Y-39266942D03*
X49909999Y-44346942D03*
X62509998Y-58496941D03*
X60995298Y-62196941D03*
D14*
X57053799Y-42322576D03*
X51817498Y-71989441D03*
X49708899Y-79093342D03*
X74208899Y-87693342D03*
X49708899Y-74293342D03*
X73008899Y-87693342D03*
X85909999Y-85896942D03*
X85208899Y-84943342D03*
D13*
X51209998Y-69196941D03*
X49512632Y-62942933D03*
X84309998Y-53996941D03*
X76209998Y-35496941D03*
D14*
X72259999Y-78251942D03*
X72709999Y-81126942D03*
X46108899Y-78593342D03*
X62508899Y-92693342D03*
X62087433Y-59641965D03*
D13*
X62809998Y-54696941D03*
D14*
X46108899Y-79793342D03*
X61208899Y-92693342D03*
X58409998Y-63596941D03*
D13*
X59509998Y-56096941D03*
X61009998Y-56096941D03*
X59209998Y-59496941D03*
X62009998Y-56096941D03*
D15*
X62909998Y-60282241D02*
X62909998Y-58896941D01*
X60995298Y-62196941D02*
X62909998Y-60282241D01*
X62909998Y-58896941D02*
X62509998Y-58496941D01*
D16*
X51058899Y-71230842D02*
X46996399Y-71230842D01*
X46208899Y-70443342D02*
X46208899Y-45693342D01*
X49579665Y-42322576D02*
X57053799Y-42322576D01*
X46208899Y-45693342D02*
X49579665Y-42322576D01*
X51817498Y-71989441D02*
X51058899Y-71230842D01*
X46996399Y-71230842D02*
X46208899Y-70443342D01*
X69708899Y-90993342D02*
X58508899Y-90993342D01*
X58508899Y-90993342D02*
X49708899Y-82193342D01*
X49708899Y-82193342D02*
X49708899Y-74193342D01*
X74208899Y-87693342D02*
X73008899Y-87693342D01*
X73008899Y-87693342D02*
X69708899Y-90993342D01*
D17*
X85909999Y-85896942D02*
X85509999Y-86296942D01*
X85509999Y-86296942D02*
X85509999Y-88292242D01*
X82478899Y-91323342D02*
X82478899Y-92693342D01*
X85509999Y-88292242D02*
X82478899Y-91323342D01*
X84609999Y-88022242D02*
X79938899Y-92693342D01*
X85208899Y-84943342D02*
X84609999Y-85542242D01*
X84609999Y-85542242D02*
X84609999Y-88022242D01*
D15*
X49009998Y-63445567D02*
X49009998Y-67596941D01*
X49512632Y-62942933D02*
X49009998Y-63445567D01*
X49009998Y-67596941D02*
X50609998Y-69196941D01*
X50609998Y-69196941D02*
X51209998Y-69196941D01*
X84309998Y-43596941D02*
X76209998Y-35496941D01*
X84309998Y-53996941D02*
X84309998Y-43596941D01*
D18*
X72709999Y-78701942D02*
X72709999Y-81126942D01*
X72259999Y-78251942D02*
X72709999Y-78701942D01*
D19*
X46108899Y-80793342D02*
X46108899Y-78593342D01*
D15*
X61859998Y-59414530D02*
X61859998Y-57946941D01*
X62509998Y-57296941D02*
X62809998Y-56996941D01*
D20*
X62087433Y-59819506D02*
X58409998Y-63496941D01*
D15*
X61859998Y-57946941D02*
X62509998Y-57296941D01*
D20*
X62087433Y-59641965D02*
X62087433Y-59819506D01*
D15*
X62809998Y-56996941D02*
X62809998Y-54696941D01*
D19*
X62508899Y-92693342D02*
X61208899Y-92693342D01*
D20*
X58409998Y-63496941D02*
X58409998Y-63596941D01*
D19*
X61208899Y-92693342D02*
X58008899Y-92693342D01*
D15*
X62087433Y-59641965D02*
X61859998Y-59414530D01*
D19*
X58008899Y-92693342D02*
X46108899Y-80793342D01*
D15*
X61009998Y-56096941D02*
X59509998Y-56096941D01*
X62009998Y-56696941D02*
X62009998Y-56096941D01*
X59209998Y-59496941D02*
X62009998Y-56696941D01*
G04 #@! TA.AperFunction,Conductor*
G36*
X73027451Y-22510705D02*
G01*
X74849071Y-23562418D01*
X74890011Y-23607887D01*
X74898259Y-23640311D01*
X75084614Y-25985331D01*
X75084878Y-25990108D01*
X75094695Y-26306975D01*
X75150674Y-26951351D01*
X75151109Y-26956352D01*
X75151109Y-26956355D01*
X75243629Y-27601559D01*
X75371968Y-28240589D01*
X75371978Y-28240633D01*
X75535730Y-28871490D01*
X75535737Y-28871512D01*
X75734413Y-29492305D01*
X75734424Y-29492335D01*
X75967384Y-30101058D01*
X75967389Y-30101070D01*
X76233927Y-30695880D01*
X76233930Y-30695886D01*
X76522634Y-31254456D01*
X76533220Y-31274936D01*
X76533227Y-31274948D01*
X76864297Y-31836361D01*
X76864304Y-31836372D01*
X76864312Y-31836385D01*
X77226190Y-32378514D01*
X77617724Y-32899629D01*
X77617730Y-32899637D01*
X77617736Y-32899644D01*
X78037695Y-33398107D01*
X78332663Y-33711013D01*
X78484803Y-33872404D01*
X78957652Y-34321039D01*
X79177571Y-34507540D01*
X79454770Y-34742618D01*
X79454773Y-34742620D01*
X79974620Y-35135835D01*
X80167470Y-35265467D01*
X80515566Y-35499454D01*
X80515584Y-35499466D01*
X80751131Y-35639397D01*
X81075964Y-35832370D01*
X81314985Y-35956891D01*
X81654009Y-36133510D01*
X81654019Y-36133514D01*
X81654035Y-36133523D01*
X82247994Y-36401986D01*
X82855994Y-36636924D01*
X83476145Y-36837605D01*
X84106518Y-37003407D01*
X84299325Y-37042777D01*
X84745125Y-37133807D01*
X84745133Y-37133808D01*
X84745152Y-37133812D01*
X85390063Y-37228417D01*
X86039244Y-37286927D01*
X86613881Y-37306538D01*
X86671390Y-37327418D01*
X86705644Y-37378115D01*
X86709501Y-37405479D01*
X86709501Y-94297442D01*
X86690594Y-94355633D01*
X86641094Y-94391597D01*
X86610501Y-94396442D01*
X51609499Y-94396442D01*
X51551308Y-94377535D01*
X51515344Y-94328035D01*
X51510499Y-94297442D01*
X51510499Y-90251835D01*
X51511186Y-90242215D01*
X51510509Y-90195485D01*
X51510499Y-90194050D01*
X51510499Y-90156770D01*
X51509760Y-90146653D01*
X51506702Y-89935425D01*
X51462578Y-89422937D01*
X51382006Y-88914903D01*
X51265396Y-88413911D01*
X51113343Y-87922514D01*
X51110397Y-87914953D01*
X50926619Y-87443212D01*
X50706192Y-86978482D01*
X50706182Y-86978462D01*
X50706182Y-86978461D01*
X50453149Y-86530616D01*
X50444924Y-86518217D01*
X50225336Y-86187175D01*
X50168813Y-86101963D01*
X49854620Y-85694687D01*
X49854615Y-85694681D01*
X49854607Y-85694671D01*
X49634477Y-85447943D01*
X49609845Y-85391935D01*
X49622839Y-85332145D01*
X49668494Y-85291412D01*
X49729373Y-85285293D01*
X49778353Y-85312031D01*
X57528377Y-93062055D01*
X57528379Y-93062058D01*
X57640183Y-93173862D01*
X57777115Y-93252919D01*
X57888918Y-93282876D01*
X57929841Y-93293842D01*
X62587954Y-93293842D01*
X62587956Y-93293842D01*
X62740683Y-93252919D01*
X62877615Y-93173862D01*
X62989419Y-93062058D01*
X63068476Y-92925126D01*
X63109399Y-92772399D01*
X63109399Y-92693342D01*
X78733256Y-92693342D01*
X78753784Y-92914878D01*
X78814670Y-93128870D01*
X78913841Y-93328031D01*
X79047918Y-93505578D01*
X79212337Y-93655466D01*
X79401498Y-93772589D01*
X79608959Y-93852960D01*
X79827656Y-93893842D01*
X80050142Y-93893842D01*
X80268839Y-93852960D01*
X80476300Y-93772589D01*
X80665461Y-93655466D01*
X80829880Y-93505578D01*
X80963957Y-93328031D01*
X81063128Y-93128870D01*
X81113679Y-92951201D01*
X81147788Y-92900407D01*
X81205241Y-92879363D01*
X81264090Y-92896107D01*
X81301859Y-92944244D01*
X81304114Y-92951187D01*
X81354670Y-93128870D01*
X81453841Y-93328031D01*
X81587918Y-93505578D01*
X81752337Y-93655466D01*
X81941498Y-93772589D01*
X82148959Y-93852960D01*
X82367656Y-93893842D01*
X82590142Y-93893842D01*
X82808839Y-93852960D01*
X83016300Y-93772589D01*
X83205461Y-93655466D01*
X83369880Y-93505578D01*
X83503957Y-93328031D01*
X83603128Y-93128870D01*
X83624178Y-93054883D01*
X83658288Y-93004089D01*
X83715740Y-92983045D01*
X83774590Y-92999789D01*
X83812359Y-93047926D01*
X83818399Y-93081977D01*
X83818399Y-93713088D01*
X83818400Y-93713100D01*
X83830031Y-93771569D01*
X83830032Y-93771573D01*
X83874347Y-93837894D01*
X83940668Y-93882209D01*
X83985130Y-93891053D01*
X83999140Y-93893840D01*
X83999145Y-93893840D01*
X83999151Y-93893842D01*
X83999152Y-93893842D01*
X86038646Y-93893842D01*
X86038647Y-93893842D01*
X86097130Y-93882209D01*
X86163451Y-93837894D01*
X86207766Y-93771573D01*
X86219399Y-93713090D01*
X86219399Y-91673594D01*
X86207766Y-91615111D01*
X86163451Y-91548790D01*
X86163447Y-91548787D01*
X86097132Y-91504476D01*
X86097130Y-91504475D01*
X86097127Y-91504474D01*
X86097126Y-91504474D01*
X86038657Y-91492843D01*
X86038647Y-91492842D01*
X83999151Y-91492842D01*
X83999150Y-91492842D01*
X83999140Y-91492843D01*
X83940671Y-91504474D01*
X83940665Y-91504476D01*
X83874350Y-91548787D01*
X83874344Y-91548793D01*
X83830033Y-91615108D01*
X83830031Y-91615114D01*
X83818400Y-91673583D01*
X83818399Y-91673595D01*
X83818399Y-92304706D01*
X83799492Y-92362897D01*
X83749992Y-92398861D01*
X83688806Y-92398861D01*
X83639306Y-92362897D01*
X83624179Y-92331801D01*
X83603128Y-92257814D01*
X83503957Y-92058653D01*
X83369880Y-91881106D01*
X83205461Y-91731218D01*
X83016300Y-91614095D01*
X82867369Y-91556398D01*
X82819940Y-91517748D01*
X82804286Y-91458599D01*
X82826389Y-91401546D01*
X82833120Y-91394091D01*
X85750459Y-88476753D01*
X85790021Y-88408230D01*
X85810499Y-88331804D01*
X85810499Y-88252680D01*
X85810499Y-86576408D01*
X85829406Y-86518217D01*
X85878906Y-86482253D01*
X85903577Y-86478345D01*
X85903566Y-86478255D01*
X85907032Y-86477798D01*
X85909499Y-86477408D01*
X85910000Y-86477408D01*
X85940046Y-86473452D01*
X86060235Y-86457629D01*
X86200232Y-86399640D01*
X86320450Y-86307393D01*
X86412697Y-86187175D01*
X86470686Y-86047178D01*
X86490465Y-85896942D01*
X86470686Y-85746706D01*
X86412697Y-85606709D01*
X86320450Y-85486491D01*
X86200232Y-85394244D01*
X86199855Y-85394088D01*
X86060237Y-85336256D01*
X86060239Y-85336256D01*
X86060235Y-85336255D01*
X86060233Y-85336254D01*
X86060231Y-85336254D01*
X85910000Y-85316476D01*
X85909998Y-85316476D01*
X85833840Y-85326502D01*
X85773679Y-85315352D01*
X85731562Y-85270969D01*
X85723576Y-85210307D01*
X85729452Y-85190468D01*
X85769586Y-85093578D01*
X85789365Y-84943342D01*
X85769586Y-84793106D01*
X85711597Y-84653109D01*
X85619350Y-84532891D01*
X85499132Y-84440644D01*
X85359135Y-84382655D01*
X85359133Y-84382654D01*
X85359131Y-84382654D01*
X85208900Y-84362876D01*
X85208898Y-84362876D01*
X85058666Y-84382654D01*
X85058660Y-84382656D01*
X84918667Y-84440643D01*
X84798450Y-84532889D01*
X84798446Y-84532893D01*
X84706200Y-84653110D01*
X84648213Y-84793103D01*
X84648211Y-84793109D01*
X84628433Y-84943341D01*
X84628433Y-84943343D01*
X84640149Y-85032344D01*
X84628998Y-85092505D01*
X84612000Y-85115268D01*
X84425488Y-85301781D01*
X84369538Y-85357731D01*
X84329979Y-85426249D01*
X84329977Y-85426253D01*
X84309499Y-85502677D01*
X84309499Y-87856762D01*
X84290592Y-87914953D01*
X84280503Y-87926766D01*
X80603930Y-91603338D01*
X80549413Y-91631115D01*
X80488981Y-91621544D01*
X80481815Y-91617509D01*
X80476306Y-91614098D01*
X80476300Y-91614095D01*
X80307736Y-91548793D01*
X80268839Y-91533724D01*
X80268838Y-91533723D01*
X80268836Y-91533723D01*
X80050142Y-91492842D01*
X79827656Y-91492842D01*
X79608961Y-91533723D01*
X79532696Y-91563268D01*
X79401498Y-91614095D01*
X79272702Y-91693842D01*
X79212337Y-91731218D01*
X79047919Y-91881105D01*
X78913842Y-92058651D01*
X78913837Y-92058660D01*
X78837073Y-92212822D01*
X78814670Y-92257814D01*
X78753784Y-92471806D01*
X78733256Y-92693342D01*
X63109399Y-92693342D01*
X63109399Y-92614285D01*
X63068476Y-92461558D01*
X62989419Y-92324626D01*
X62877615Y-92212822D01*
X62740683Y-92133765D01*
X62587956Y-92092842D01*
X62587954Y-92092842D01*
X58298642Y-92092842D01*
X58240451Y-92073935D01*
X58228638Y-92063846D01*
X48427130Y-82262338D01*
X49008399Y-82262338D01*
X49035319Y-82397669D01*
X49035319Y-82397671D01*
X49088122Y-82525150D01*
X49088123Y-82525152D01*
X49088124Y-82525153D01*
X49164785Y-82639885D01*
X53597465Y-87072564D01*
X58062357Y-91537456D01*
X58177081Y-91614113D01*
X58177085Y-91614115D01*
X58177088Y-91614117D01*
X58251765Y-91645049D01*
X58304570Y-91666922D01*
X58331486Y-91672275D01*
X58331489Y-91672277D01*
X58331490Y-91672276D01*
X58439906Y-91693842D01*
X58439907Y-91693842D01*
X69777892Y-91693842D01*
X69777893Y-91693842D01*
X69913227Y-91666922D01*
X70040710Y-91614117D01*
X70155442Y-91537456D01*
X73270060Y-88422838D01*
X73324577Y-88395061D01*
X73340064Y-88393842D01*
X74277891Y-88393842D01*
X74277892Y-88393842D01*
X74413227Y-88366922D01*
X74540710Y-88314117D01*
X74655441Y-88237456D01*
X74753013Y-88139884D01*
X74829674Y-88025153D01*
X74882479Y-87897670D01*
X74909399Y-87762335D01*
X74909399Y-87624349D01*
X74882479Y-87489014D01*
X74829674Y-87361531D01*
X74829673Y-87361529D01*
X74829670Y-87361524D01*
X74753013Y-87246800D01*
X74655440Y-87149227D01*
X74540716Y-87072570D01*
X74540705Y-87072564D01*
X74413227Y-87019762D01*
X74277894Y-86992842D01*
X74277892Y-86992842D01*
X73077893Y-86992842D01*
X72939905Y-86992842D01*
X72939902Y-86992842D01*
X72804571Y-87019762D01*
X72804569Y-87019762D01*
X72677090Y-87072565D01*
X72562359Y-87149225D01*
X69447738Y-90263846D01*
X69393221Y-90291623D01*
X69377734Y-90292842D01*
X58840063Y-90292842D01*
X58781872Y-90273935D01*
X58770059Y-90263846D01*
X50438395Y-81932181D01*
X50413834Y-81883975D01*
X65714934Y-81883975D01*
X65754324Y-82239874D01*
X65832629Y-82589281D01*
X65948891Y-82927942D01*
X65948896Y-82927955D01*
X66101705Y-83251765D01*
X66289219Y-83556815D01*
X66289223Y-83556821D01*
X66509147Y-83839379D01*
X66509149Y-83839381D01*
X66509153Y-83839386D01*
X66758834Y-84096045D01*
X67035234Y-84323679D01*
X67334999Y-84519525D01*
X67335002Y-84519526D01*
X67335006Y-84519529D01*
X67363122Y-84533757D01*
X67654489Y-84681205D01*
X67989826Y-84806758D01*
X68336939Y-84894659D01*
X68691616Y-84943842D01*
X68746682Y-84945359D01*
X69049540Y-84953708D01*
X69049542Y-84953708D01*
X69049544Y-84953707D01*
X69049551Y-84953708D01*
X69406398Y-84924139D01*
X69757827Y-84855493D01*
X70099571Y-84748604D01*
X70099577Y-84748600D01*
X70099581Y-84748600D01*
X70099582Y-84748599D01*
X70427482Y-84604768D01*
X70737581Y-84425733D01*
X71026101Y-84213671D01*
X71289542Y-83971157D01*
X71524706Y-83701133D01*
X71728737Y-83406879D01*
X71899160Y-83091965D01*
X72033905Y-82760215D01*
X72131337Y-82415656D01*
X72190274Y-82062469D01*
X72209999Y-81704942D01*
X72208260Y-81673435D01*
X72223933Y-81614294D01*
X72271376Y-81575657D01*
X72332468Y-81572286D01*
X72367377Y-81589441D01*
X72419764Y-81629639D01*
X72419765Y-81629640D01*
X72469261Y-81650141D01*
X72559763Y-81687629D01*
X72645861Y-81698964D01*
X72709998Y-81707408D01*
X72709999Y-81707408D01*
X72710000Y-81707408D01*
X72740046Y-81703452D01*
X72860235Y-81687629D01*
X73000232Y-81629640D01*
X73120450Y-81537393D01*
X73212697Y-81417175D01*
X73270686Y-81277178D01*
X73290465Y-81126942D01*
X73270686Y-80976706D01*
X73212697Y-80836709D01*
X73130956Y-80730183D01*
X73110533Y-80672508D01*
X73110499Y-80669916D01*
X73110499Y-78649216D01*
X73110499Y-78649215D01*
X73094805Y-78590644D01*
X73083206Y-78547354D01*
X73080215Y-78542173D01*
X73030482Y-78456033D01*
X73030478Y-78456028D01*
X72866360Y-78291909D01*
X72838583Y-78237393D01*
X72838220Y-78234894D01*
X72820686Y-78101706D01*
X72762697Y-77961709D01*
X72670450Y-77841491D01*
X72550232Y-77749244D01*
X72410235Y-77691255D01*
X72410233Y-77691254D01*
X72410231Y-77691254D01*
X72260000Y-77671476D01*
X72259998Y-77671476D01*
X72109766Y-77691254D01*
X72109760Y-77691256D01*
X71969767Y-77749243D01*
X71849550Y-77841489D01*
X71849546Y-77841493D01*
X71757300Y-77961710D01*
X71699313Y-78101703D01*
X71699311Y-78101709D01*
X71683129Y-78224626D01*
X71679533Y-78251942D01*
X71699312Y-78402178D01*
X71728306Y-78472176D01*
X71745748Y-78514285D01*
X71757301Y-78542175D01*
X71849548Y-78662393D01*
X71969766Y-78754640D01*
X72109763Y-78812629D01*
X72223422Y-78827592D01*
X72278646Y-78853933D01*
X72307841Y-78907703D01*
X72309499Y-78925745D01*
X72309499Y-80669916D01*
X72290592Y-80728107D01*
X72289040Y-80730184D01*
X72239360Y-80794927D01*
X72188936Y-80829582D01*
X72127771Y-80827980D01*
X72079230Y-80790732D01*
X72065557Y-80761603D01*
X72033905Y-80649669D01*
X71899160Y-80317919D01*
X71728737Y-80003005D01*
X71524706Y-79708751D01*
X71524704Y-79708748D01*
X71435360Y-79606161D01*
X71289542Y-79438727D01*
X71026101Y-79196213D01*
X70737581Y-78984151D01*
X70427482Y-78805116D01*
X70427479Y-78805115D01*
X70427478Y-78805114D01*
X70099582Y-78661284D01*
X70099581Y-78661283D01*
X69757826Y-78554390D01*
X69406393Y-78485744D01*
X69406394Y-78485744D01*
X69049541Y-78456175D01*
X68691618Y-78466041D01*
X68691613Y-78466042D01*
X68336935Y-78515225D01*
X67989832Y-78603124D01*
X67989828Y-78603125D01*
X67989826Y-78603126D01*
X67895059Y-78638607D01*
X67654490Y-78728678D01*
X67335006Y-78890354D01*
X67035230Y-79086207D01*
X66758833Y-79313840D01*
X66758831Y-79313842D01*
X66509147Y-79570504D01*
X66289223Y-79853062D01*
X66289219Y-79853068D01*
X66101705Y-80158118D01*
X65948896Y-80481928D01*
X65948891Y-80481941D01*
X65832629Y-80820602D01*
X65832628Y-80820606D01*
X65829019Y-80836709D01*
X65754324Y-81170009D01*
X65714934Y-81525908D01*
X65714934Y-81883975D01*
X50413834Y-81883975D01*
X50410618Y-81877664D01*
X50409399Y-81862177D01*
X50409399Y-74124350D01*
X50409398Y-74124346D01*
X50382479Y-73989014D01*
X50329674Y-73861531D01*
X50329673Y-73861529D01*
X50329670Y-73861524D01*
X50253013Y-73746800D01*
X50155440Y-73649227D01*
X50040716Y-73572570D01*
X50040705Y-73572564D01*
X49913227Y-73519762D01*
X49777894Y-73492842D01*
X49777892Y-73492842D01*
X49639906Y-73492842D01*
X49639903Y-73492842D01*
X49504571Y-73519762D01*
X49504569Y-73519762D01*
X49377092Y-73572564D01*
X49377081Y-73572570D01*
X49262357Y-73649227D01*
X49164784Y-73746800D01*
X49088127Y-73861524D01*
X49088121Y-73861535D01*
X49035319Y-73989012D01*
X49035319Y-73989014D01*
X49008399Y-74124346D01*
X49008399Y-82262338D01*
X48427130Y-82262338D01*
X46738395Y-80573603D01*
X46710618Y-80519086D01*
X46709399Y-80503599D01*
X46709399Y-78514286D01*
X46709399Y-78514285D01*
X46668476Y-78361558D01*
X46589419Y-78224626D01*
X46477615Y-78112822D01*
X46340683Y-78033765D01*
X46187956Y-77992842D01*
X46029842Y-77992842D01*
X45877115Y-78033765D01*
X45740183Y-78112822D01*
X45628379Y-78224626D01*
X45549322Y-78361558D01*
X45523970Y-78456175D01*
X45508399Y-78514286D01*
X45508399Y-80708205D01*
X45508398Y-80708223D01*
X45508398Y-80714285D01*
X45508398Y-80872399D01*
X45549322Y-81025127D01*
X45561848Y-81046822D01*
X45561849Y-81046826D01*
X45628377Y-81162055D01*
X45628379Y-81162058D01*
X45740183Y-81273862D01*
X45740185Y-81273863D01*
X49252052Y-84785730D01*
X49279829Y-84840247D01*
X49270258Y-84900679D01*
X49226993Y-84943944D01*
X49166561Y-84953515D01*
X49118308Y-84931485D01*
X48749641Y-84621270D01*
X48749639Y-84621269D01*
X48749638Y-84621268D01*
X48749633Y-84621264D01*
X48333424Y-84319004D01*
X48333423Y-84319003D01*
X48333417Y-84318999D01*
X47896725Y-84047213D01*
X47896720Y-84047210D01*
X47896713Y-84047206D01*
X47441724Y-83807256D01*
X47332140Y-83759117D01*
X46970783Y-83600377D01*
X46750243Y-83521741D01*
X46486271Y-83427619D01*
X46486268Y-83427618D01*
X46486262Y-83427616D01*
X46212688Y-83351576D01*
X45990675Y-83289867D01*
X45990667Y-83289865D01*
X45990647Y-83289860D01*
X45486529Y-83187824D01*
X45486508Y-83187820D01*
X44976362Y-83122003D01*
X44603867Y-83100781D01*
X44546846Y-83078594D01*
X44513756Y-83027128D01*
X44510498Y-83001941D01*
X44510498Y-70512338D01*
X45508399Y-70512338D01*
X45535319Y-70647669D01*
X45535319Y-70647671D01*
X45588122Y-70775150D01*
X45588123Y-70775152D01*
X45588124Y-70775153D01*
X45664785Y-70889885D01*
X46549856Y-71774956D01*
X46664588Y-71851617D01*
X46792070Y-71904422D01*
X46818986Y-71909775D01*
X46818989Y-71909777D01*
X46818990Y-71909776D01*
X46927406Y-71931342D01*
X50727734Y-71931342D01*
X50785925Y-71950249D01*
X50797738Y-71960338D01*
X51370955Y-72533555D01*
X51485687Y-72610216D01*
X51613170Y-72663021D01*
X51748504Y-72689941D01*
X51748505Y-72689941D01*
X51886491Y-72689941D01*
X51886492Y-72689941D01*
X52021826Y-72663021D01*
X52149309Y-72610216D01*
X52264041Y-72533555D01*
X52361612Y-72435984D01*
X52438273Y-72321252D01*
X52491078Y-72193769D01*
X52517998Y-72058435D01*
X52517998Y-71920447D01*
X52491078Y-71785113D01*
X52438273Y-71657630D01*
X52361612Y-71542898D01*
X51505442Y-70686728D01*
X51390710Y-70610067D01*
X51390709Y-70610066D01*
X51390707Y-70610065D01*
X51263227Y-70557262D01*
X51127895Y-70530342D01*
X51127893Y-70530342D01*
X51127892Y-70530342D01*
X47327564Y-70530342D01*
X47269373Y-70511435D01*
X47257560Y-70501346D01*
X46938395Y-70182181D01*
X46910618Y-70127664D01*
X46909399Y-70112177D01*
X46909399Y-67643085D01*
X48659498Y-67643085D01*
X48683384Y-67732229D01*
X48729528Y-67812153D01*
X50394786Y-69477411D01*
X50474710Y-69523555D01*
X50563854Y-69547441D01*
X50563855Y-69547441D01*
X50656142Y-69547441D01*
X50806239Y-69547441D01*
X50864430Y-69566348D01*
X50873401Y-69574581D01*
X50873518Y-69574447D01*
X50878869Y-69579084D01*
X50999940Y-69656891D01*
X50999945Y-69656894D01*
X51106401Y-69688152D01*
X51138033Y-69697440D01*
X51138034Y-69697440D01*
X51138037Y-69697441D01*
X51138039Y-69697441D01*
X51281957Y-69697441D01*
X51281959Y-69697441D01*
X51420051Y-69656894D01*
X51541126Y-69579084D01*
X51635375Y-69470314D01*
X51695163Y-69339398D01*
X51715645Y-69196941D01*
X51695163Y-69054484D01*
X51635375Y-68923568D01*
X51541126Y-68814798D01*
X51541125Y-68814797D01*
X51541124Y-68814796D01*
X51420055Y-68736990D01*
X51420052Y-68736988D01*
X51420051Y-68736988D01*
X51420048Y-68736987D01*
X51281962Y-68696441D01*
X51281959Y-68696441D01*
X51138037Y-68696441D01*
X51138033Y-68696441D01*
X50999947Y-68736987D01*
X50999940Y-68736990D01*
X50878869Y-68814797D01*
X50873518Y-68819435D01*
X50872029Y-68817717D01*
X50828657Y-68843869D01*
X50806239Y-68846441D01*
X50796188Y-68846441D01*
X50737997Y-68827534D01*
X50726184Y-68817445D01*
X49389494Y-67480755D01*
X49361717Y-67426238D01*
X49360498Y-67410751D01*
X49360498Y-63631757D01*
X49371810Y-63596941D01*
X57829532Y-63596941D01*
X57849311Y-63747177D01*
X57907300Y-63887174D01*
X57999547Y-64007392D01*
X58119765Y-64099639D01*
X58259762Y-64157628D01*
X58372439Y-64172462D01*
X58409997Y-64177407D01*
X58409998Y-64177407D01*
X58409999Y-64177407D01*
X58440045Y-64173451D01*
X58560234Y-64157628D01*
X58700231Y-64099639D01*
X58820449Y-64007392D01*
X58912696Y-63887174D01*
X58970685Y-63747177D01*
X58981930Y-63661753D01*
X59008270Y-63606530D01*
X59010042Y-63604709D01*
X60340772Y-62273979D01*
X60395287Y-62246204D01*
X60455719Y-62255775D01*
X60498984Y-62299040D01*
X60508766Y-62329895D01*
X60510132Y-62339397D01*
X60557188Y-62442433D01*
X60569921Y-62470314D01*
X60664170Y-62579084D01*
X60664171Y-62579085D01*
X60785240Y-62656891D01*
X60785245Y-62656894D01*
X60891701Y-62688152D01*
X60923333Y-62697440D01*
X60923334Y-62697440D01*
X60923337Y-62697441D01*
X60923339Y-62697441D01*
X61067257Y-62697441D01*
X61067259Y-62697441D01*
X61205351Y-62656894D01*
X61326426Y-62579084D01*
X61420675Y-62470314D01*
X61480463Y-62339398D01*
X61480462Y-62339398D01*
X61480464Y-62339396D01*
X61497929Y-62217918D01*
X61524924Y-62163010D01*
X61525849Y-62162070D01*
X63190468Y-60497453D01*
X63236612Y-60417529D01*
X63260498Y-60328384D01*
X63260498Y-60236097D01*
X63260498Y-58850797D01*
X63236612Y-58761653D01*
X63190467Y-58681729D01*
X63190466Y-58681728D01*
X63125215Y-58616476D01*
X63125209Y-58616471D01*
X63040617Y-58531878D01*
X63012840Y-58477361D01*
X63012629Y-58475963D01*
X62995164Y-58354485D01*
X62935375Y-58223569D01*
X62935375Y-58223568D01*
X62841126Y-58114798D01*
X62841125Y-58114797D01*
X62841124Y-58114796D01*
X62720055Y-58036990D01*
X62720052Y-58036988D01*
X62720051Y-58036988D01*
X62720048Y-58036987D01*
X62581962Y-57996441D01*
X62581959Y-57996441D01*
X62545188Y-57996441D01*
X62486997Y-57977534D01*
X62451033Y-57928034D01*
X62451033Y-57866848D01*
X62475184Y-57827437D01*
X62790468Y-57512153D01*
X62919505Y-57383116D01*
X63090468Y-57212153D01*
X63136612Y-57132229D01*
X63150143Y-57081729D01*
X63160498Y-57043085D01*
X63160498Y-55174191D01*
X63179405Y-55116000D01*
X63228905Y-55080036D01*
X63290091Y-55080036D01*
X63328269Y-55102977D01*
X63606948Y-55372096D01*
X63606954Y-55372101D01*
X64015362Y-55714796D01*
X64034712Y-55731032D01*
X64052381Y-55743869D01*
X64486456Y-56059243D01*
X64959999Y-56355145D01*
X65453030Y-56617294D01*
X65963146Y-56844413D01*
X66487863Y-57035394D01*
X67024624Y-57189308D01*
X67570814Y-57305404D01*
X68123771Y-57383117D01*
X68680803Y-57422069D01*
X68680811Y-57422069D01*
X69239187Y-57422069D01*
X69239195Y-57422069D01*
X69796227Y-57383117D01*
X70349184Y-57305404D01*
X70895374Y-57189308D01*
X71432135Y-57035394D01*
X71956852Y-56844413D01*
X72466968Y-56617294D01*
X72959999Y-56355145D01*
X73433542Y-56059243D01*
X73885291Y-55731028D01*
X74313044Y-55372101D01*
X74714717Y-54984209D01*
X75088355Y-54569243D01*
X75432135Y-54129224D01*
X75744384Y-53666296D01*
X75782529Y-53600228D01*
X76023570Y-53182732D01*
X76023574Y-53182725D01*
X76023580Y-53182715D01*
X76268363Y-52680835D01*
X76477540Y-52163103D01*
X76650093Y-51632041D01*
X76785180Y-51090236D01*
X76882144Y-50540327D01*
X76940511Y-49984994D01*
X76959999Y-49426942D01*
X76940511Y-48868890D01*
X76882144Y-48313557D01*
X76785180Y-47763648D01*
X76650093Y-47221843D01*
X76477540Y-46690781D01*
X76477539Y-46690779D01*
X76477536Y-46690769D01*
X76268366Y-46173057D01*
X76268363Y-46173049D01*
X76023580Y-45671169D01*
X76023570Y-45671151D01*
X75744387Y-45187592D01*
X75744383Y-45187587D01*
X75432135Y-44724660D01*
X75432130Y-44724654D01*
X75432127Y-44724649D01*
X75088357Y-44284644D01*
X75088355Y-44284641D01*
X75088341Y-44284625D01*
X74714723Y-43869681D01*
X74714721Y-43869679D01*
X74313041Y-43481780D01*
X73885285Y-43122851D01*
X73594031Y-42911243D01*
X73433542Y-42794641D01*
X72959999Y-42498739D01*
X72758438Y-42391567D01*
X72466963Y-42236587D01*
X71956850Y-42009470D01*
X71432130Y-41818488D01*
X70895377Y-41664577D01*
X70895378Y-41664577D01*
X70895374Y-41664576D01*
X70349184Y-41548480D01*
X69796227Y-41470767D01*
X69239195Y-41431815D01*
X68680803Y-41431815D01*
X68123771Y-41470767D01*
X67570814Y-41548480D01*
X67024624Y-41664576D01*
X67024621Y-41664576D01*
X67024620Y-41664577D01*
X66487867Y-41818488D01*
X65963147Y-42009470D01*
X65453034Y-42236587D01*
X64960002Y-42498737D01*
X64959994Y-42498742D01*
X64486457Y-42794640D01*
X64034712Y-43122851D01*
X63606956Y-43481780D01*
X63205276Y-43869679D01*
X63205274Y-43869681D01*
X62831656Y-44284625D01*
X62831640Y-44284644D01*
X62487870Y-44724649D01*
X62175614Y-45187587D01*
X62175610Y-45187592D01*
X61896427Y-45671151D01*
X61896423Y-45671158D01*
X61651631Y-46173057D01*
X61442461Y-46690769D01*
X61269903Y-47221846D01*
X61134822Y-47763630D01*
X61134814Y-47763665D01*
X61037854Y-48313553D01*
X60979487Y-48868888D01*
X60959999Y-49426942D01*
X60979487Y-49984995D01*
X61037854Y-50540330D01*
X61134814Y-51090218D01*
X61134822Y-51090253D01*
X61269903Y-51632037D01*
X61442461Y-52163114D01*
X61651631Y-52680826D01*
X61896423Y-53182725D01*
X61896427Y-53182732D01*
X62175610Y-53666291D01*
X62175614Y-53666296D01*
X62302548Y-53854484D01*
X62487870Y-54129234D01*
X62514544Y-54163375D01*
X62535471Y-54220870D01*
X62518606Y-54279685D01*
X62490058Y-54307607D01*
X62478871Y-54314797D01*
X62384620Y-54423569D01*
X62324832Y-54554484D01*
X62304351Y-54696938D01*
X62304351Y-54696943D01*
X62324832Y-54839397D01*
X62384620Y-54970312D01*
X62384621Y-54970314D01*
X62435318Y-55028821D01*
X62459135Y-55085179D01*
X62459498Y-55093651D01*
X62459498Y-55609566D01*
X62440591Y-55667757D01*
X62391091Y-55703721D01*
X62329905Y-55703721D01*
X62306975Y-55692850D01*
X62220055Y-55636990D01*
X62220052Y-55636988D01*
X62220051Y-55636988D01*
X62220048Y-55636987D01*
X62081962Y-55596441D01*
X62081959Y-55596441D01*
X61938037Y-55596441D01*
X61938033Y-55596441D01*
X61799947Y-55636987D01*
X61799940Y-55636990D01*
X61678870Y-55714797D01*
X61678868Y-55714799D01*
X61584817Y-55823341D01*
X61532422Y-55854937D01*
X61471461Y-55849701D01*
X61435179Y-55823341D01*
X61341127Y-55714799D01*
X61341125Y-55714797D01*
X61220055Y-55636990D01*
X61220052Y-55636988D01*
X61220051Y-55636988D01*
X61220048Y-55636987D01*
X61081962Y-55596441D01*
X61081959Y-55596441D01*
X60938037Y-55596441D01*
X60938033Y-55596441D01*
X60799947Y-55636987D01*
X60799940Y-55636990D01*
X60678869Y-55714797D01*
X60673518Y-55719435D01*
X60672029Y-55717717D01*
X60628657Y-55743869D01*
X60606239Y-55746441D01*
X59913757Y-55746441D01*
X59855566Y-55727534D01*
X59846594Y-55719300D01*
X59846478Y-55719435D01*
X59841126Y-55714797D01*
X59720055Y-55636990D01*
X59720052Y-55636988D01*
X59720051Y-55636988D01*
X59720048Y-55636987D01*
X59581962Y-55596441D01*
X59581959Y-55596441D01*
X59438037Y-55596441D01*
X59438033Y-55596441D01*
X59299947Y-55636987D01*
X59299940Y-55636990D01*
X59178871Y-55714796D01*
X59084620Y-55823569D01*
X59024832Y-55954484D01*
X59004351Y-56096938D01*
X59004351Y-56096943D01*
X59024832Y-56239397D01*
X59072685Y-56344179D01*
X59084621Y-56370314D01*
X59153680Y-56450013D01*
X59178871Y-56479085D01*
X59299940Y-56556891D01*
X59299945Y-56556894D01*
X59406401Y-56588152D01*
X59438033Y-56597440D01*
X59438034Y-56597440D01*
X59438037Y-56597441D01*
X59438039Y-56597441D01*
X59581957Y-56597441D01*
X59581959Y-56597441D01*
X59720051Y-56556894D01*
X59841126Y-56479084D01*
X59846478Y-56474447D01*
X59847966Y-56476164D01*
X59891339Y-56450013D01*
X59913757Y-56447441D01*
X60606239Y-56447441D01*
X60664430Y-56466348D01*
X60673401Y-56474581D01*
X60673518Y-56474447D01*
X60678869Y-56479084D01*
X60799940Y-56556891D01*
X60799945Y-56556894D01*
X60906401Y-56588152D01*
X60938033Y-56597440D01*
X60938034Y-56597440D01*
X60938037Y-56597441D01*
X60938039Y-56597441D01*
X61081957Y-56597441D01*
X61081959Y-56597441D01*
X61220051Y-56556894D01*
X61341126Y-56479084D01*
X61435180Y-56370538D01*
X61487574Y-56338944D01*
X61548535Y-56344179D01*
X61584817Y-56370540D01*
X61635317Y-56428820D01*
X61659135Y-56485179D01*
X61659498Y-56493651D01*
X61659498Y-56510751D01*
X61640591Y-56568942D01*
X61630502Y-56580755D01*
X59243812Y-58967445D01*
X59189295Y-58995222D01*
X59173808Y-58996441D01*
X59138033Y-58996441D01*
X58999947Y-59036987D01*
X58999940Y-59036990D01*
X58878871Y-59114796D01*
X58784620Y-59223569D01*
X58724832Y-59354484D01*
X58704351Y-59496938D01*
X58704351Y-59496943D01*
X58724832Y-59639397D01*
X58746261Y-59686318D01*
X58784621Y-59770314D01*
X58878870Y-59879084D01*
X58878871Y-59879085D01*
X58999940Y-59956891D01*
X58999945Y-59956894D01*
X59106401Y-59988152D01*
X59138033Y-59997440D01*
X59138034Y-59997440D01*
X59138037Y-59997441D01*
X59138039Y-59997441D01*
X59281957Y-59997441D01*
X59281959Y-59997441D01*
X59420051Y-59956894D01*
X59541126Y-59879084D01*
X59635375Y-59770314D01*
X59695163Y-59639398D01*
X59695162Y-59639398D01*
X59695164Y-59639396D01*
X59712629Y-59517918D01*
X59739624Y-59463010D01*
X59740550Y-59462069D01*
X61340495Y-57862125D01*
X61395011Y-57834349D01*
X61455443Y-57843920D01*
X61498708Y-57887185D01*
X61509498Y-57932130D01*
X61509498Y-59460674D01*
X61509854Y-59462002D01*
X61518708Y-59495050D01*
X61521233Y-59533590D01*
X61506967Y-59641963D01*
X61506967Y-59648454D01*
X61504484Y-59648454D01*
X61495274Y-59698090D01*
X61478284Y-59720839D01*
X58102684Y-63096441D01*
X58102683Y-63096441D01*
X58060384Y-63138739D01*
X58050650Y-63147276D01*
X57999549Y-63186488D01*
X57999545Y-63186492D01*
X57907299Y-63306709D01*
X57849312Y-63446702D01*
X57849310Y-63446708D01*
X57832609Y-63573566D01*
X57829532Y-63596941D01*
X49371810Y-63596941D01*
X49379405Y-63573566D01*
X49389494Y-63561753D01*
X49478818Y-63472429D01*
X49533335Y-63444652D01*
X49548822Y-63443433D01*
X49584591Y-63443433D01*
X49584593Y-63443433D01*
X49722685Y-63402886D01*
X49843760Y-63325076D01*
X49938009Y-63216306D01*
X49997797Y-63085390D01*
X50013401Y-62976863D01*
X50018279Y-62942935D01*
X50018279Y-62942930D01*
X49997797Y-62800476D01*
X49950742Y-62697441D01*
X49938009Y-62669560D01*
X49843760Y-62560790D01*
X49843759Y-62560789D01*
X49843758Y-62560788D01*
X49722689Y-62482982D01*
X49722686Y-62482980D01*
X49722685Y-62482980D01*
X49722682Y-62482979D01*
X49584596Y-62442433D01*
X49584593Y-62442433D01*
X49440671Y-62442433D01*
X49440667Y-62442433D01*
X49302581Y-62482979D01*
X49302574Y-62482982D01*
X49181505Y-62560788D01*
X49087254Y-62669561D01*
X49027466Y-62800476D01*
X49010000Y-62921955D01*
X48983004Y-62976863D01*
X48982012Y-62977869D01*
X48729530Y-63230352D01*
X48694250Y-63291460D01*
X48694249Y-63291461D01*
X48683385Y-63310275D01*
X48683384Y-63310278D01*
X48683384Y-63310279D01*
X48659498Y-63399423D01*
X48659498Y-67643085D01*
X46909399Y-67643085D01*
X46909399Y-46024507D01*
X46928306Y-45966316D01*
X46938395Y-45954503D01*
X49840826Y-43052072D01*
X49895343Y-43024295D01*
X49910830Y-43023076D01*
X57122791Y-43023076D01*
X57122792Y-43023076D01*
X57258127Y-42996156D01*
X57385610Y-42943351D01*
X57500341Y-42866690D01*
X57597913Y-42769118D01*
X57674574Y-42654387D01*
X57727379Y-42526904D01*
X57754299Y-42391569D01*
X57754299Y-42253583D01*
X57727379Y-42118248D01*
X57709777Y-42075753D01*
X57674576Y-41990769D01*
X57674570Y-41990758D01*
X57597913Y-41876034D01*
X57500340Y-41778461D01*
X57385616Y-41701804D01*
X57385605Y-41701798D01*
X57258127Y-41648996D01*
X57122794Y-41622076D01*
X57122792Y-41622076D01*
X49648659Y-41622076D01*
X49510671Y-41622076D01*
X49510668Y-41622076D01*
X49375337Y-41648996D01*
X49375335Y-41648996D01*
X49247856Y-41701799D01*
X49133125Y-41778459D01*
X45664782Y-45246802D01*
X45590248Y-45358353D01*
X45590245Y-45358357D01*
X45588125Y-45361528D01*
X45588124Y-45361529D01*
X45535318Y-45489015D01*
X45508399Y-45624346D01*
X45508399Y-70512338D01*
X44510498Y-70512338D01*
X44510498Y-44452060D01*
X44510852Y-44447361D01*
X44510818Y-44442472D01*
X44510819Y-44442470D01*
X44510503Y-44396649D01*
X44510542Y-44393130D01*
X44513671Y-44284644D01*
X44524741Y-43900721D01*
X44525197Y-43893676D01*
X44527610Y-43869681D01*
X44574307Y-43405331D01*
X44575263Y-43398338D01*
X44578142Y-43381729D01*
X44659092Y-42914701D01*
X44660538Y-42907830D01*
X44778659Y-42431395D01*
X44780595Y-42424633D01*
X44932396Y-41957860D01*
X44934809Y-41951254D01*
X45119528Y-41496487D01*
X45122395Y-41490090D01*
X45339098Y-41049636D01*
X45342421Y-41043450D01*
X45589978Y-40619604D01*
X45593740Y-40613660D01*
X45870908Y-40208547D01*
X45875079Y-40202896D01*
X46180442Y-39818587D01*
X46185012Y-39813240D01*
X46517002Y-39451707D01*
X46521937Y-39446703D01*
X46878876Y-39109772D01*
X46884164Y-39105125D01*
X47264223Y-38794521D01*
X47269847Y-38790251D01*
X47443222Y-38668100D01*
X47671096Y-38507551D01*
X47676993Y-38503705D01*
X48097379Y-38250356D01*
X48103531Y-38246941D01*
X48540954Y-38024210D01*
X48547320Y-38021249D01*
X48999507Y-37830296D01*
X49006073Y-37827795D01*
X49470725Y-37669589D01*
X49477482Y-37667555D01*
X49952203Y-37542909D01*
X49959083Y-37541362D01*
X50441508Y-37450895D01*
X50448475Y-37449844D01*
X50936131Y-37394023D01*
X50943165Y-37393472D01*
X51400357Y-37373996D01*
X51404134Y-37374081D01*
X51408620Y-37373884D01*
X51408623Y-37373885D01*
X51440790Y-37372475D01*
X51444388Y-37372383D01*
X51484658Y-37372108D01*
X51484664Y-37372105D01*
X51491541Y-37370968D01*
X51503363Y-37369735D01*
X52353815Y-37332489D01*
X52366476Y-37333621D01*
X52366514Y-37333044D01*
X52374279Y-37333547D01*
X52374286Y-37333549D01*
X52412068Y-37330052D01*
X52416807Y-37329730D01*
X52446671Y-37328423D01*
X52446679Y-37328420D01*
X52453067Y-37327294D01*
X52453098Y-37327474D01*
X52464274Y-37325220D01*
X52737504Y-37299912D01*
X53364916Y-37206312D01*
X53986124Y-37077834D01*
X54599191Y-36914880D01*
X55202207Y-36717957D01*
X55793290Y-36487680D01*
X56370596Y-36224768D01*
X56837946Y-35979559D01*
X56932303Y-35930052D01*
X56932307Y-35930049D01*
X56932327Y-35930039D01*
X57476729Y-35604413D01*
X58002105Y-35248905D01*
X58506818Y-34864625D01*
X58989292Y-34452770D01*
X59448024Y-34014624D01*
X59881582Y-33551555D01*
X60090118Y-33302280D01*
X64714962Y-33302280D01*
X64754596Y-33711013D01*
X64833497Y-34114042D01*
X64950921Y-34507540D01*
X64950930Y-34507567D01*
X65105778Y-34887888D01*
X65105780Y-34887891D01*
X65296630Y-35251525D01*
X65296638Y-35251538D01*
X65504304Y-35568512D01*
X65521677Y-35595029D01*
X65766640Y-35900037D01*
X65778829Y-35915214D01*
X65991912Y-36133510D01*
X66065682Y-36209084D01*
X66065687Y-36209088D01*
X66065689Y-36209090D01*
X66084272Y-36224768D01*
X66379558Y-36473897D01*
X66379565Y-36473902D01*
X66379577Y-36473911D01*
X66717517Y-36707174D01*
X66717529Y-36707182D01*
X66947358Y-36834981D01*
X67076435Y-36906756D01*
X67076438Y-36906757D01*
X67076447Y-36906762D01*
X67286925Y-36998448D01*
X67452928Y-37070761D01*
X67843493Y-37197663D01*
X68244482Y-37286278D01*
X68244493Y-37286279D01*
X68244497Y-37286280D01*
X68652142Y-37335777D01*
X68652151Y-37335778D01*
X69062695Y-37345701D01*
X69472280Y-37315955D01*
X69472281Y-37315955D01*
X69530108Y-37306078D01*
X69877082Y-37246817D01*
X70273321Y-37138932D01*
X70657298Y-36993309D01*
X71025429Y-36811306D01*
X71374274Y-36594623D01*
X71700578Y-36345284D01*
X72001295Y-36065615D01*
X72273615Y-35758229D01*
X72463450Y-35496943D01*
X75704351Y-35496943D01*
X75724832Y-35639397D01*
X75759009Y-35714233D01*
X75784621Y-35770314D01*
X75849643Y-35845354D01*
X75878871Y-35879085D01*
X75958162Y-35930042D01*
X75999945Y-35956894D01*
X76077136Y-35979559D01*
X76138033Y-35997440D01*
X76138034Y-35997440D01*
X76138037Y-35997441D01*
X76173808Y-35997441D01*
X76231999Y-36016348D01*
X76243812Y-36026437D01*
X83930502Y-43713127D01*
X83958279Y-43767644D01*
X83959498Y-43783131D01*
X83959498Y-53600228D01*
X83940591Y-53658419D01*
X83935318Y-53665058D01*
X83884621Y-53723567D01*
X83824832Y-53854484D01*
X83804351Y-53996938D01*
X83804351Y-53996943D01*
X83824832Y-54139397D01*
X83835783Y-54163375D01*
X83884621Y-54270314D01*
X83978870Y-54379084D01*
X83978871Y-54379085D01*
X84048090Y-54423569D01*
X84099945Y-54456894D01*
X84206401Y-54488152D01*
X84238033Y-54497440D01*
X84238034Y-54497440D01*
X84238037Y-54497441D01*
X84238039Y-54497441D01*
X84381957Y-54497441D01*
X84381959Y-54497441D01*
X84520051Y-54456894D01*
X84641126Y-54379084D01*
X84735375Y-54270314D01*
X84795163Y-54139398D01*
X84815645Y-53996941D01*
X84795163Y-53854484D01*
X84735375Y-53723568D01*
X84731017Y-53718538D01*
X84684678Y-53665058D01*
X84660861Y-53608698D01*
X84660498Y-53600228D01*
X84660498Y-43550798D01*
X84660498Y-43550797D01*
X84636612Y-43461653D01*
X84602063Y-43401813D01*
X84590468Y-43381729D01*
X76740617Y-35531878D01*
X76712840Y-35477361D01*
X76712629Y-35475963D01*
X76695163Y-35354484D01*
X76694519Y-35353074D01*
X76635375Y-35223568D01*
X76541126Y-35114798D01*
X76541125Y-35114797D01*
X76541124Y-35114796D01*
X76420055Y-35036990D01*
X76420052Y-35036988D01*
X76420051Y-35036988D01*
X76397233Y-35030288D01*
X76281962Y-34996441D01*
X76281959Y-34996441D01*
X76138037Y-34996441D01*
X76138033Y-34996441D01*
X75999947Y-35036987D01*
X75999940Y-35036990D01*
X75878871Y-35114796D01*
X75784620Y-35223569D01*
X75724832Y-35354484D01*
X75704351Y-35496938D01*
X75704351Y-35496943D01*
X72463450Y-35496943D01*
X72514997Y-35425995D01*
X72723187Y-35072015D01*
X72896241Y-34699595D01*
X73032544Y-34312211D01*
X73032544Y-34312209D01*
X73032547Y-34312202D01*
X73130818Y-33913498D01*
X73130818Y-33913495D01*
X73130822Y-33913481D01*
X73190158Y-33507126D01*
X73190159Y-33507111D01*
X73209999Y-33096950D01*
X73209999Y-33096933D01*
X73190159Y-32686772D01*
X73190158Y-32686767D01*
X73190158Y-32686758D01*
X73130822Y-32280403D01*
X73130818Y-32280385D01*
X73032547Y-31881681D01*
X72896242Y-31494293D01*
X72896241Y-31494289D01*
X72723187Y-31121869D01*
X72617602Y-30942345D01*
X72515001Y-30767895D01*
X72462683Y-30695886D01*
X72273615Y-30435655D01*
X72001295Y-30128269D01*
X71972041Y-30101063D01*
X71700578Y-29848600D01*
X71374275Y-29599261D01*
X71025428Y-29382577D01*
X71025425Y-29382575D01*
X70657307Y-29200579D01*
X70657303Y-29200577D01*
X70657298Y-29200575D01*
X70273321Y-29054952D01*
X69877082Y-28947067D01*
X69865335Y-28945060D01*
X69472279Y-28877928D01*
X69160389Y-28855278D01*
X69062695Y-28848183D01*
X69062691Y-28848183D01*
X69062687Y-28848183D01*
X68652145Y-28858106D01*
X68652140Y-28858106D01*
X68244497Y-28907603D01*
X68244485Y-28907605D01*
X68065923Y-28947066D01*
X67843493Y-28996221D01*
X67452928Y-29123123D01*
X67452924Y-29123124D01*
X67452923Y-29123125D01*
X67452913Y-29123129D01*
X67076447Y-29287121D01*
X67076430Y-29287130D01*
X66717529Y-29486701D01*
X66717517Y-29486709D01*
X66379577Y-29719972D01*
X66379551Y-29719992D01*
X66065689Y-29984793D01*
X66065675Y-29984806D01*
X65778829Y-30278669D01*
X65521674Y-30598858D01*
X65296638Y-30942345D01*
X65296630Y-30942358D01*
X65105780Y-31305992D01*
X65105778Y-31305995D01*
X64950930Y-31686316D01*
X64950921Y-31686343D01*
X64833497Y-32079841D01*
X64754596Y-32482870D01*
X64714962Y-32891603D01*
X64714962Y-33302280D01*
X60090118Y-33302280D01*
X60288615Y-33065006D01*
X60667854Y-32556494D01*
X61018115Y-32027606D01*
X61338307Y-31479990D01*
X61627431Y-30915354D01*
X61884586Y-30335460D01*
X62108968Y-29742114D01*
X62299880Y-29137169D01*
X62456725Y-28522510D01*
X62579014Y-27900054D01*
X62666366Y-27271742D01*
X62688854Y-26999473D01*
X62690922Y-26988840D01*
X62690588Y-26988783D01*
X62691689Y-26982389D01*
X62691691Y-26982383D01*
X62692923Y-26951315D01*
X62693174Y-26947179D01*
X62696390Y-26908208D01*
X62696388Y-26908201D01*
X62695807Y-26900439D01*
X62696585Y-26900380D01*
X62695421Y-26888319D01*
X62706760Y-26602451D01*
X62734979Y-25890986D01*
X62735179Y-25887530D01*
X62905887Y-23635371D01*
X62929139Y-23578778D01*
X62955101Y-23557122D01*
X64767544Y-22510705D01*
X64817044Y-22497442D01*
X72977951Y-22497442D01*
X73027451Y-22510705D01*
G37*
G04 #@! TD.AperFunction*
M02*
