G04 #@! TF.GenerationSoftware,KiCad,Pcbnew,8.0.1*
G04 #@! TF.CreationDate,2024-04-04T12:49:37+03:00*
G04 #@! TF.ProjectId,TWV,5457562e-6b69-4636-9164-5f7063625858,V-0.96*
G04 #@! TF.SameCoordinates,Original*
G04 #@! TF.FileFunction,Paste,Top*
G04 #@! TF.FilePolarity,Positive*
%FSLAX46Y46*%
G04 Gerber Fmt 4.6, Leading zero omitted, Abs format (unit mm)*
G04 Created by KiCad (PCBNEW 8.0.1) date 2024-04-04 12:49:37*
%MOMM*%
%LPD*%
G01*
G04 APERTURE LIST*
G04 Aperture macros list*
%AMRoundRect*
0 Rectangle with rounded corners*
0 $1 Rounding radius*
0 $2 $3 $4 $5 $6 $7 $8 $9 X,Y pos of 4 corners*
0 Add a 4 corners polygon primitive as box body*
4,1,4,$2,$3,$4,$5,$6,$7,$8,$9,$2,$3,0*
0 Add four circle primitives for the rounded corners*
1,1,$1+$1,$2,$3*
1,1,$1+$1,$4,$5*
1,1,$1+$1,$6,$7*
1,1,$1+$1,$8,$9*
0 Add four rect primitives between the rounded corners*
20,1,$1+$1,$2,$3,$4,$5,0*
20,1,$1+$1,$4,$5,$6,$7,0*
20,1,$1+$1,$6,$7,$8,$9,0*
20,1,$1+$1,$8,$9,$2,$3,0*%
G04 Aperture macros list end*
%ADD10R,0.800000X1.200000*%
%ADD11R,1.200000X0.800000*%
%ADD12R,0.800000X1.100000*%
%ADD13R,1.550000X0.600000*%
%ADD14R,1.800000X1.200000*%
%ADD15RoundRect,0.200000X0.275000X-0.200000X0.275000X0.200000X-0.275000X0.200000X-0.275000X-0.200000X0*%
%ADD16RoundRect,0.200000X-0.200000X-0.275000X0.200000X-0.275000X0.200000X0.275000X-0.200000X0.275000X0*%
%ADD17RoundRect,0.200000X-0.200000X0.537500X-0.200000X-0.537500X0.200000X-0.537500X0.200000X0.537500X0*%
%ADD18R,0.600000X1.550000*%
%ADD19R,1.200000X1.800000*%
%ADD20RoundRect,0.225000X0.250000X-0.225000X0.250000X0.225000X-0.250000X0.225000X-0.250000X-0.225000X0*%
%ADD21RoundRect,0.225000X-0.250000X0.225000X-0.250000X-0.225000X0.250000X-0.225000X0.250000X0.225000X0*%
%ADD22RoundRect,0.200000X-0.275000X0.200000X-0.275000X-0.200000X0.275000X-0.200000X0.275000X0.200000X0*%
%ADD23RoundRect,0.225000X-0.225000X-0.250000X0.225000X-0.250000X0.225000X0.250000X-0.225000X0.250000X0*%
%ADD24R,3.400000X1.300000*%
%ADD25RoundRect,0.250000X0.550000X-1.500000X0.550000X1.500000X-0.550000X1.500000X-0.550000X-1.500000X0*%
%ADD26RoundRect,0.062500X-0.237500X-0.062500X0.237500X-0.062500X0.237500X0.062500X-0.237500X0.062500X0*%
%ADD27RoundRect,0.200000X0.537500X0.200000X-0.537500X0.200000X-0.537500X-0.200000X0.537500X-0.200000X0*%
%ADD28RoundRect,0.200000X0.200000X0.275000X-0.200000X0.275000X-0.200000X-0.275000X0.200000X-0.275000X0*%
%ADD29RoundRect,0.500000X-0.000010X-0.000010X0.000010X-0.000010X0.000010X0.000010X-0.000010X0.000010X0*%
%ADD30RoundRect,0.200000X0.200000X-0.537500X0.200000X0.537500X-0.200000X0.537500X-0.200000X-0.537500X0*%
%ADD31RoundRect,0.250000X-0.300000X-0.300000X0.300000X-0.300000X0.300000X0.300000X-0.300000X0.300000X0*%
%ADD32R,0.650000X2.700000*%
%ADD33R,2.300000X2.800000*%
%ADD34RoundRect,0.250000X0.300000X0.300000X-0.300000X0.300000X-0.300000X-0.300000X0.300000X-0.300000X0*%
%ADD35RoundRect,0.062500X0.062500X-0.187500X0.062500X0.187500X-0.062500X0.187500X-0.062500X-0.187500X0*%
%ADD36R,1.600000X0.900000*%
%ADD37R,0.800000X0.800000*%
%ADD38R,0.700000X1.200000*%
%ADD39RoundRect,0.218750X0.381250X-0.218750X0.381250X0.218750X-0.381250X0.218750X-0.381250X-0.218750X0*%
%ADD40RoundRect,0.225000X0.225000X0.250000X-0.225000X0.250000X-0.225000X-0.250000X0.225000X-0.250000X0*%
%ADD41RoundRect,0.200000X-0.537500X-0.200000X0.537500X-0.200000X0.537500X0.200000X-0.537500X0.200000X0*%
G04 APERTURE END LIST*
D10*
X85909999Y-57546942D03*
X84809999Y-57546942D03*
X83709999Y-57546942D03*
X82609999Y-57546942D03*
X81509999Y-57546942D03*
X80409999Y-57546942D03*
X79309999Y-57546942D03*
X78209999Y-57546942D03*
X77109999Y-57546942D03*
X76009999Y-57546942D03*
X74909999Y-57546942D03*
X73809999Y-57546942D03*
X72709999Y-57546942D03*
D11*
X71209999Y-58796942D03*
X71209999Y-59896942D03*
X71209999Y-60996942D03*
X71209999Y-62096942D03*
X71209999Y-63196942D03*
X71209999Y-64296942D03*
X71209999Y-65396942D03*
X71209999Y-66496942D03*
X71209999Y-67596942D03*
X71209999Y-68696942D03*
X71209999Y-69796942D03*
D10*
X72709999Y-71046942D03*
X73809999Y-71046942D03*
X74909999Y-71046942D03*
X76009999Y-71046942D03*
X77109999Y-71046942D03*
X78209999Y-71046942D03*
X79309999Y-71046942D03*
X80409999Y-71046942D03*
X81509999Y-71046942D03*
X82609999Y-71046942D03*
X83709999Y-71046942D03*
X84809999Y-71046942D03*
X85909999Y-71046942D03*
D12*
X83709999Y-60046942D03*
X82609999Y-60046942D03*
X81509999Y-60046942D03*
X80409999Y-60046942D03*
X79309999Y-60046942D03*
X78209999Y-60046942D03*
X77109999Y-60046942D03*
X76009999Y-60046942D03*
X74909999Y-60046942D03*
X83709999Y-68546942D03*
X82609999Y-68546942D03*
X81509999Y-68546942D03*
X80409999Y-68546942D03*
X79309999Y-68546942D03*
X78209999Y-68546942D03*
X77109999Y-68546942D03*
X76009999Y-68546942D03*
X74909999Y-68546942D03*
D13*
X54609999Y-42396942D03*
X54609999Y-43396942D03*
D14*
X52084999Y-41096942D03*
X52084999Y-44696942D03*
D15*
X79709998Y-52921941D03*
X79709998Y-51271941D03*
D16*
X73684998Y-35496941D03*
X75334998Y-35496941D03*
X81584998Y-52496941D03*
X83234998Y-52496941D03*
D17*
X50658899Y-80655842D03*
X48758899Y-80655842D03*
X49708899Y-82530842D03*
D18*
X57208899Y-88868342D03*
X58208899Y-88868342D03*
D19*
X55908899Y-91393342D03*
X59508899Y-91393342D03*
D16*
X56884998Y-59496941D03*
X58534998Y-59496941D03*
D15*
X62909998Y-38821941D03*
X62909998Y-37171941D03*
D20*
X55309998Y-61571941D03*
X55309998Y-60021941D03*
D16*
X56884998Y-56096941D03*
X58534998Y-56096941D03*
D21*
X80703178Y-76163167D03*
X80703178Y-77713167D03*
D22*
X53209998Y-56868342D03*
X53209998Y-58518342D03*
D23*
X84234998Y-55096941D03*
X85784998Y-55096941D03*
D24*
X82309999Y-38143342D03*
X82309999Y-46843342D03*
D18*
X82208899Y-84368342D03*
X83208899Y-84368342D03*
D19*
X80908899Y-86893342D03*
X84508899Y-86893342D03*
D25*
X75880348Y-85393342D03*
X75880348Y-79993342D03*
D26*
X53458899Y-67830842D03*
X53458899Y-68330842D03*
X53458899Y-68830842D03*
X53458899Y-69330842D03*
X54758899Y-69330842D03*
X54758899Y-68830842D03*
X54758899Y-68330842D03*
X54758899Y-67830842D03*
D27*
X62046399Y-72243342D03*
X62046399Y-70343342D03*
X60171399Y-71293342D03*
D13*
X50233899Y-59093342D03*
X50233899Y-60093342D03*
X50233899Y-61093342D03*
D14*
X47708899Y-57793342D03*
X47708899Y-62393342D03*
D20*
X55309998Y-54271941D03*
X55309998Y-52721941D03*
D22*
X53209998Y-49071941D03*
X53209998Y-50721941D03*
D28*
X54833899Y-70680842D03*
X53183899Y-70680842D03*
D29*
X57009999Y-40296942D03*
D21*
X55309998Y-56918342D03*
X55309998Y-58468342D03*
D22*
X61908899Y-74968342D03*
X61908899Y-76618342D03*
D15*
X64709998Y-38821941D03*
X64709998Y-37171941D03*
D30*
X83359998Y-50634441D03*
X85259998Y-50634441D03*
X84309998Y-48759441D03*
D31*
X52908899Y-73193342D03*
X50108899Y-73193342D03*
D32*
X68109999Y-87896942D03*
X69109999Y-87896942D03*
X70109999Y-87896942D03*
X71109999Y-87896942D03*
D33*
X65459999Y-90496942D03*
X73759999Y-90496942D03*
D15*
X53209998Y-54318342D03*
X53209998Y-52668342D03*
X72609999Y-77221942D03*
X72609999Y-75571942D03*
D22*
X61108899Y-78668342D03*
X61108899Y-80318342D03*
D29*
X53208899Y-47893342D03*
D15*
X53209998Y-61621941D03*
X53209998Y-59971941D03*
D21*
X55309998Y-49121941D03*
X55309998Y-50671941D03*
D16*
X74289182Y-73902981D03*
X75939182Y-73902981D03*
D15*
X63971399Y-72118342D03*
X63971399Y-70468342D03*
X61108899Y-86918342D03*
X61108899Y-85268342D03*
D16*
X55383899Y-73193342D03*
X57033899Y-73193342D03*
D34*
X74308899Y-76193342D03*
X77108899Y-76193342D03*
D13*
X50233899Y-49993342D03*
X50233899Y-50993342D03*
X50233899Y-51993342D03*
D14*
X47708899Y-48693342D03*
X47708899Y-53293342D03*
D16*
X65584999Y-73443342D03*
X67234999Y-73443342D03*
X63384998Y-58396941D03*
X65034998Y-58396941D03*
D20*
X69309998Y-59271941D03*
X69309998Y-57721941D03*
D15*
X52708899Y-82618342D03*
X52708899Y-80968342D03*
D29*
X56209999Y-69796942D03*
D35*
X82458899Y-79643342D03*
X82958899Y-79643342D03*
X83458899Y-79643342D03*
X83958899Y-79643342D03*
X83958899Y-77743342D03*
X83458899Y-77743342D03*
X82958899Y-77743342D03*
X82458899Y-77743342D03*
D36*
X83208899Y-78693342D03*
D29*
X84308899Y-82693342D03*
D20*
X51307799Y-67752242D03*
X51307799Y-66202242D03*
D17*
X58758899Y-80455842D03*
X56858899Y-80455842D03*
X57808899Y-82330842D03*
D37*
X81309998Y-54896941D03*
X79709998Y-54896941D03*
D27*
X59045299Y-87014742D03*
X59045299Y-85114742D03*
X57170299Y-86064742D03*
D17*
X50658899Y-75755842D03*
X48758899Y-75755842D03*
X49708899Y-77630842D03*
D38*
X69409999Y-28426942D03*
X67389999Y-28426942D03*
D10*
X66159999Y-28426942D03*
D38*
X68409999Y-28426942D03*
X70429999Y-28426942D03*
D10*
X71659999Y-28426942D03*
D15*
X65108899Y-76618342D03*
X65108899Y-74968342D03*
D29*
X51809998Y-62096941D03*
D22*
X63483899Y-74968342D03*
X63483899Y-76618342D03*
X58708899Y-76468342D03*
X58708899Y-78118342D03*
D39*
X56708899Y-68505842D03*
X56708899Y-66380842D03*
D28*
X81259998Y-49696941D03*
X79609998Y-49696941D03*
D40*
X54833899Y-65630842D03*
X53283899Y-65630842D03*
D29*
X50509998Y-53896941D03*
D34*
X67808899Y-75693342D03*
X70608899Y-75693342D03*
D20*
X80707799Y-80964742D03*
X80707799Y-79414742D03*
D29*
X51608899Y-57193342D03*
X81808899Y-82593342D03*
D15*
X75109998Y-34021941D03*
X75109998Y-32371941D03*
D30*
X54658899Y-77930842D03*
X56558899Y-77930842D03*
X55608899Y-76055842D03*
D21*
X78009998Y-49746941D03*
X78009998Y-51296941D03*
D15*
X65846399Y-71518342D03*
X65846399Y-69868342D03*
X54808899Y-82618342D03*
X54808899Y-80968342D03*
D41*
X63071399Y-78443342D03*
X63071399Y-80343342D03*
X64946399Y-79393342D03*
D40*
X72171399Y-73380842D03*
X70621399Y-73380842D03*
D23*
X67433899Y-71693342D03*
X68983899Y-71693342D03*
D22*
X52608899Y-76268342D03*
X52608899Y-77918342D03*
D23*
X82505531Y-81032293D03*
X84055531Y-81032293D03*
D16*
X60384998Y-57396941D03*
X62034998Y-57396941D03*
M02*
