G04 #@! TF.GenerationSoftware,KiCad,Pcbnew,8.0.1*
G04 #@! TF.CreationDate,2024-04-04T12:49:37+03:00*
G04 #@! TF.ProjectId,TWV,5457562e-6b69-4636-9164-5f7063625858,V-0.96*
G04 #@! TF.SameCoordinates,Original*
G04 #@! TF.FileFunction,Legend,Top*
G04 #@! TF.FilePolarity,Positive*
%FSLAX46Y46*%
G04 Gerber Fmt 4.6, Leading zero omitted, Abs format (unit mm)*
G04 Created by KiCad (PCBNEW 8.0.1) date 2024-04-04 12:49:37*
%MOMM*%
%LPD*%
G01*
G04 APERTURE LIST*
G04 Aperture macros list*
%AMRoundRect*
0 Rectangle with rounded corners*
0 $1 Rounding radius*
0 $2 $3 $4 $5 $6 $7 $8 $9 X,Y pos of 4 corners*
0 Add a 4 corners polygon primitive as box body*
4,1,4,$2,$3,$4,$5,$6,$7,$8,$9,$2,$3,0*
0 Add four circle primitives for the rounded corners*
1,1,$1+$1,$2,$3*
1,1,$1+$1,$4,$5*
1,1,$1+$1,$6,$7*
1,1,$1+$1,$8,$9*
0 Add four rect primitives between the rounded corners*
20,1,$1+$1,$2,$3,$4,$5,0*
20,1,$1+$1,$4,$5,$6,$7,0*
20,1,$1+$1,$6,$7,$8,$9,0*
20,1,$1+$1,$8,$9,$2,$3,0*%
G04 Aperture macros list end*
%ADD10C,0.200000*%
%ADD11C,0.100000*%
%ADD12C,0.300000*%
%ADD13C,0.120000*%
%ADD14RoundRect,0.101600X-0.400000X0.600000X-0.400000X-0.600000X0.400000X-0.600000X0.400000X0.600000X0*%
%ADD15RoundRect,0.101600X-0.600000X-0.400000X0.600000X-0.400000X0.600000X0.400000X-0.600000X0.400000X0*%
%ADD16RoundRect,0.101600X-0.400000X0.550000X-0.400000X-0.550000X0.400000X-0.550000X0.400000X0.550000X0*%
%ADD17RoundRect,0.101600X-0.775000X0.300000X-0.775000X-0.300000X0.775000X-0.300000X0.775000X0.300000X0*%
%ADD18RoundRect,0.101600X-0.900000X0.600000X-0.900000X-0.600000X0.900000X-0.600000X0.900000X0.600000X0*%
%ADD19RoundRect,0.250000X0.325000X-0.250000X0.325000X0.250000X-0.325000X0.250000X-0.325000X-0.250000X0*%
%ADD20RoundRect,0.250000X-0.250000X-0.325000X0.250000X-0.325000X0.250000X0.325000X-0.250000X0.325000X0*%
%ADD21RoundRect,0.250000X-0.250000X0.587500X-0.250000X-0.587500X0.250000X-0.587500X0.250000X0.587500X0*%
%ADD22RoundRect,0.101600X-0.300000X-0.775000X0.300000X-0.775000X0.300000X0.775000X-0.300000X0.775000X0*%
%ADD23RoundRect,0.101600X-0.600000X-0.900000X0.600000X-0.900000X0.600000X0.900000X-0.600000X0.900000X0*%
%ADD24RoundRect,0.275000X0.300000X-0.275000X0.300000X0.275000X-0.300000X0.275000X-0.300000X-0.275000X0*%
%ADD25RoundRect,0.275000X-0.300000X0.275000X-0.300000X-0.275000X0.300000X-0.275000X0.300000X0.275000X0*%
%ADD26RoundRect,0.250000X-0.325000X0.250000X-0.325000X-0.250000X0.325000X-0.250000X0.325000X0.250000X0*%
%ADD27RoundRect,0.275000X-0.275000X-0.300000X0.275000X-0.300000X0.275000X0.300000X-0.275000X0.300000X0*%
%ADD28RoundRect,0.101600X-1.700000X0.650000X-1.700000X-0.650000X1.700000X-0.650000X1.700000X0.650000X0*%
%ADD29RoundRect,0.281250X0.618750X-1.568750X0.618750X1.568750X-0.618750X1.568750X-0.618750X-1.568750X0*%
%ADD30RoundRect,0.087500X-0.262500X-0.087500X0.262500X-0.087500X0.262500X0.087500X-0.262500X0.087500X0*%
%ADD31RoundRect,0.250000X0.587500X0.250000X-0.587500X0.250000X-0.587500X-0.250000X0.587500X-0.250000X0*%
%ADD32RoundRect,0.250000X0.250000X0.325000X-0.250000X0.325000X-0.250000X-0.325000X0.250000X-0.325000X0*%
%ADD33RoundRect,0.601600X-0.000010X-0.000010X0.000010X-0.000010X0.000010X0.000010X-0.000010X0.000010X0*%
%ADD34RoundRect,0.250000X0.250000X-0.587500X0.250000X0.587500X-0.250000X0.587500X-0.250000X-0.587500X0*%
%ADD35RoundRect,0.295455X-0.354545X-0.354545X0.354545X-0.354545X0.354545X0.354545X-0.354545X0.354545X0*%
%ADD36RoundRect,0.101600X-0.325000X-1.350000X0.325000X-1.350000X0.325000X1.350000X-0.325000X1.350000X0*%
%ADD37RoundRect,0.101600X-1.150000X-1.400000X1.150000X-1.400000X1.150000X1.400000X-1.150000X1.400000X0*%
%ADD38RoundRect,0.295455X0.354545X0.354545X-0.354545X0.354545X-0.354545X-0.354545X0.354545X-0.354545X0*%
%ADD39RoundRect,0.097500X0.097500X-0.222500X0.097500X0.222500X-0.097500X0.222500X-0.097500X-0.222500X0*%
%ADD40RoundRect,0.070000X0.800000X-0.450000X0.800000X0.450000X-0.800000X0.450000X-0.800000X-0.450000X0*%
%ADD41RoundRect,0.101600X-0.400000X0.400000X-0.400000X-0.400000X0.400000X-0.400000X0.400000X0.400000X0*%
%ADD42RoundRect,0.101600X-0.350000X-0.600000X0.350000X-0.600000X0.350000X0.600000X-0.350000X0.600000X0*%
%ADD43RoundRect,0.101600X-0.400000X-0.600000X0.400000X-0.600000X0.400000X0.600000X-0.400000X0.600000X0*%
%ADD44O,1.211200X2.219200*%
%ADD45RoundRect,0.268750X0.431250X-0.268750X0.431250X0.268750X-0.431250X0.268750X-0.431250X-0.268750X0*%
%ADD46RoundRect,0.275000X0.275000X0.300000X-0.275000X0.300000X-0.275000X-0.300000X0.275000X-0.300000X0*%
%ADD47RoundRect,0.101600X-1.000000X1.000000X-1.000000X-1.000000X1.000000X-1.000000X1.000000X1.000000X0*%
%ADD48C,2.203200*%
%ADD49RoundRect,0.250000X-0.587500X-0.250000X0.587500X-0.250000X0.587500X0.250000X-0.587500X0.250000X0*%
G04 APERTURE END LIST*
D10*
X55609999Y-88896942D02*
X56209999Y-88896942D01*
X84809999Y-84296942D02*
X84209999Y-84296942D01*
X84509999Y-84596942D02*
X84509999Y-83996942D01*
X81209999Y-84296942D02*
X80609999Y-84296942D01*
X59209999Y-88896942D02*
X59809999Y-88896942D01*
X55909999Y-88596942D02*
X55909999Y-89196942D01*
X48789195Y-64112445D02*
X48751099Y-64150541D01*
X48751099Y-64150541D02*
X48636814Y-64188636D01*
X48636814Y-64188636D02*
X48560623Y-64188636D01*
X48560623Y-64188636D02*
X48446337Y-64150541D01*
X48446337Y-64150541D02*
X48370147Y-64074350D01*
X48370147Y-64074350D02*
X48332052Y-63998160D01*
X48332052Y-63998160D02*
X48293956Y-63845779D01*
X48293956Y-63845779D02*
X48293956Y-63731493D01*
X48293956Y-63731493D02*
X48332052Y-63579112D01*
X48332052Y-63579112D02*
X48370147Y-63502921D01*
X48370147Y-63502921D02*
X48446337Y-63426731D01*
X48446337Y-63426731D02*
X48560623Y-63388636D01*
X48560623Y-63388636D02*
X48636814Y-63388636D01*
X48636814Y-63388636D02*
X48751099Y-63426731D01*
X48751099Y-63426731D02*
X48789195Y-63464826D01*
X49017766Y-63655302D02*
X49322528Y-63655302D01*
X49132052Y-63388636D02*
X49132052Y-64074350D01*
X49132052Y-64074350D02*
X49170147Y-64150541D01*
X49170147Y-64150541D02*
X49246337Y-64188636D01*
X49246337Y-64188636D02*
X49322528Y-64188636D01*
X49589195Y-64188636D02*
X49589195Y-63655302D01*
X49589195Y-63807683D02*
X49627290Y-63731493D01*
X49627290Y-63731493D02*
X49665385Y-63693398D01*
X49665385Y-63693398D02*
X49741576Y-63655302D01*
X49741576Y-63655302D02*
X49817766Y-63655302D01*
X50198718Y-64188636D02*
X50122528Y-64150541D01*
X50122528Y-64150541D02*
X50084433Y-64074350D01*
X50084433Y-64074350D02*
X50084433Y-63388636D01*
X50465385Y-63464826D02*
X50503481Y-63426731D01*
X50503481Y-63426731D02*
X50579671Y-63388636D01*
X50579671Y-63388636D02*
X50770147Y-63388636D01*
X50770147Y-63388636D02*
X50846338Y-63426731D01*
X50846338Y-63426731D02*
X50884433Y-63464826D01*
X50884433Y-63464826D02*
X50922528Y-63541017D01*
X50922528Y-63541017D02*
X50922528Y-63617207D01*
X50922528Y-63617207D02*
X50884433Y-63731493D01*
X50884433Y-63731493D02*
X50427290Y-64188636D01*
X50427290Y-64188636D02*
X50922528Y-64188636D01*
X51477883Y-61012982D02*
X51439788Y-60974886D01*
X51439788Y-60974886D02*
X51401693Y-60898696D01*
X51401693Y-60898696D02*
X51401693Y-60708220D01*
X51401693Y-60708220D02*
X51439788Y-60632029D01*
X51439788Y-60632029D02*
X51477883Y-60593934D01*
X51477883Y-60593934D02*
X51554074Y-60555839D01*
X51554074Y-60555839D02*
X51630264Y-60555839D01*
X51630264Y-60555839D02*
X51744550Y-60593934D01*
X51744550Y-60593934D02*
X52201693Y-61051077D01*
X52201693Y-61051077D02*
X52201693Y-60555839D01*
X52201693Y-58574886D02*
X52201693Y-59032029D01*
X52201693Y-58803457D02*
X51401693Y-58803457D01*
X51401693Y-58803457D02*
X51515978Y-58879648D01*
X51515978Y-58879648D02*
X51592169Y-58955838D01*
X51592169Y-58955838D02*
X51630264Y-59032029D01*
X55217766Y-38288636D02*
X55484433Y-39088636D01*
X55484433Y-39088636D02*
X55751099Y-38288636D01*
X56017766Y-39088636D02*
X56017766Y-38288636D01*
X56017766Y-38593398D02*
X56093956Y-38555302D01*
X56093956Y-38555302D02*
X56246337Y-38555302D01*
X56246337Y-38555302D02*
X56322528Y-38593398D01*
X56322528Y-38593398D02*
X56360623Y-38631493D01*
X56360623Y-38631493D02*
X56398718Y-38707683D01*
X56398718Y-38707683D02*
X56398718Y-38936255D01*
X56398718Y-38936255D02*
X56360623Y-39012445D01*
X56360623Y-39012445D02*
X56322528Y-39050541D01*
X56322528Y-39050541D02*
X56246337Y-39088636D01*
X56246337Y-39088636D02*
X56093956Y-39088636D01*
X56093956Y-39088636D02*
X56017766Y-39050541D01*
X57084433Y-38555302D02*
X57084433Y-39088636D01*
X56741576Y-38555302D02*
X56741576Y-38974350D01*
X56741576Y-38974350D02*
X56779671Y-39050541D01*
X56779671Y-39050541D02*
X56855861Y-39088636D01*
X56855861Y-39088636D02*
X56970147Y-39088636D01*
X56970147Y-39088636D02*
X57046338Y-39050541D01*
X57046338Y-39050541D02*
X57084433Y-39012445D01*
X57427290Y-39050541D02*
X57503481Y-39088636D01*
X57503481Y-39088636D02*
X57655862Y-39088636D01*
X57655862Y-39088636D02*
X57732052Y-39050541D01*
X57732052Y-39050541D02*
X57770148Y-38974350D01*
X57770148Y-38974350D02*
X57770148Y-38936255D01*
X57770148Y-38936255D02*
X57732052Y-38860064D01*
X57732052Y-38860064D02*
X57655862Y-38821969D01*
X57655862Y-38821969D02*
X57541576Y-38821969D01*
X57541576Y-38821969D02*
X57465386Y-38783874D01*
X57465386Y-38783874D02*
X57427290Y-38707683D01*
X57427290Y-38707683D02*
X57427290Y-38669588D01*
X57427290Y-38669588D02*
X57465386Y-38593398D01*
X57465386Y-38593398D02*
X57541576Y-38555302D01*
X57541576Y-38555302D02*
X57655862Y-38555302D01*
X57655862Y-38555302D02*
X57732052Y-38593398D01*
X66479671Y-85664160D02*
X66479671Y-84664160D01*
X66479671Y-84664160D02*
X66860623Y-84664160D01*
X66860623Y-84664160D02*
X66955861Y-84711779D01*
X66955861Y-84711779D02*
X67003480Y-84759398D01*
X67003480Y-84759398D02*
X67051099Y-84854636D01*
X67051099Y-84854636D02*
X67051099Y-84997493D01*
X67051099Y-84997493D02*
X67003480Y-85092731D01*
X67003480Y-85092731D02*
X66955861Y-85140350D01*
X66955861Y-85140350D02*
X66860623Y-85187969D01*
X66860623Y-85187969D02*
X66479671Y-85187969D01*
X67908242Y-85664160D02*
X67908242Y-85140350D01*
X67908242Y-85140350D02*
X67860623Y-85045112D01*
X67860623Y-85045112D02*
X67765385Y-84997493D01*
X67765385Y-84997493D02*
X67574909Y-84997493D01*
X67574909Y-84997493D02*
X67479671Y-85045112D01*
X67908242Y-85616541D02*
X67813004Y-85664160D01*
X67813004Y-85664160D02*
X67574909Y-85664160D01*
X67574909Y-85664160D02*
X67479671Y-85616541D01*
X67479671Y-85616541D02*
X67432052Y-85521302D01*
X67432052Y-85521302D02*
X67432052Y-85426064D01*
X67432052Y-85426064D02*
X67479671Y-85330826D01*
X67479671Y-85330826D02*
X67574909Y-85283207D01*
X67574909Y-85283207D02*
X67813004Y-85283207D01*
X67813004Y-85283207D02*
X67908242Y-85235588D01*
X68384433Y-85664160D02*
X68384433Y-84997493D01*
X68384433Y-84664160D02*
X68336814Y-84711779D01*
X68336814Y-84711779D02*
X68384433Y-84759398D01*
X68384433Y-84759398D02*
X68432052Y-84711779D01*
X68432052Y-84711779D02*
X68384433Y-84664160D01*
X68384433Y-84664160D02*
X68384433Y-84759398D01*
X68860623Y-85664160D02*
X68860623Y-84997493D01*
X68860623Y-85187969D02*
X68908242Y-85092731D01*
X68908242Y-85092731D02*
X68955861Y-85045112D01*
X68955861Y-85045112D02*
X69051099Y-84997493D01*
X69051099Y-84997493D02*
X69146337Y-84997493D01*
X69479671Y-85664160D02*
X69479671Y-84997493D01*
X69479671Y-84664160D02*
X69432052Y-84711779D01*
X69432052Y-84711779D02*
X69479671Y-84759398D01*
X69479671Y-84759398D02*
X69527290Y-84711779D01*
X69527290Y-84711779D02*
X69479671Y-84664160D01*
X69479671Y-84664160D02*
X69479671Y-84759398D01*
X69955861Y-84997493D02*
X69955861Y-85664160D01*
X69955861Y-85092731D02*
X70003480Y-85045112D01*
X70003480Y-85045112D02*
X70098718Y-84997493D01*
X70098718Y-84997493D02*
X70241575Y-84997493D01*
X70241575Y-84997493D02*
X70336813Y-85045112D01*
X70336813Y-85045112D02*
X70384432Y-85140350D01*
X70384432Y-85140350D02*
X70384432Y-85664160D01*
X71289194Y-84997493D02*
X71289194Y-85807017D01*
X71289194Y-85807017D02*
X71241575Y-85902255D01*
X71241575Y-85902255D02*
X71193956Y-85949874D01*
X71193956Y-85949874D02*
X71098718Y-85997493D01*
X71098718Y-85997493D02*
X70955861Y-85997493D01*
X70955861Y-85997493D02*
X70860623Y-85949874D01*
X71289194Y-85616541D02*
X71193956Y-85664160D01*
X71193956Y-85664160D02*
X71003480Y-85664160D01*
X71003480Y-85664160D02*
X70908242Y-85616541D01*
X70908242Y-85616541D02*
X70860623Y-85568921D01*
X70860623Y-85568921D02*
X70813004Y-85473683D01*
X70813004Y-85473683D02*
X70813004Y-85187969D01*
X70813004Y-85187969D02*
X70860623Y-85092731D01*
X70860623Y-85092731D02*
X70908242Y-85045112D01*
X70908242Y-85045112D02*
X71003480Y-84997493D01*
X71003480Y-84997493D02*
X71193956Y-84997493D01*
X71193956Y-84997493D02*
X71289194Y-85045112D01*
X50184433Y-46588636D02*
X50336814Y-46588636D01*
X50336814Y-46588636D02*
X50413004Y-46626731D01*
X50413004Y-46626731D02*
X50489195Y-46702921D01*
X50489195Y-46702921D02*
X50527290Y-46855302D01*
X50527290Y-46855302D02*
X50527290Y-47121969D01*
X50527290Y-47121969D02*
X50489195Y-47274350D01*
X50489195Y-47274350D02*
X50413004Y-47350541D01*
X50413004Y-47350541D02*
X50336814Y-47388636D01*
X50336814Y-47388636D02*
X50184433Y-47388636D01*
X50184433Y-47388636D02*
X50108242Y-47350541D01*
X50108242Y-47350541D02*
X50032052Y-47274350D01*
X50032052Y-47274350D02*
X49993956Y-47121969D01*
X49993956Y-47121969D02*
X49993956Y-46855302D01*
X49993956Y-46855302D02*
X50032052Y-46702921D01*
X50032052Y-46702921D02*
X50108242Y-46626731D01*
X50108242Y-46626731D02*
X50184433Y-46588636D01*
X50870147Y-46855302D02*
X50870147Y-47655302D01*
X50870147Y-46893398D02*
X50946337Y-46855302D01*
X50946337Y-46855302D02*
X51098718Y-46855302D01*
X51098718Y-46855302D02*
X51174909Y-46893398D01*
X51174909Y-46893398D02*
X51213004Y-46931493D01*
X51213004Y-46931493D02*
X51251099Y-47007683D01*
X51251099Y-47007683D02*
X51251099Y-47236255D01*
X51251099Y-47236255D02*
X51213004Y-47312445D01*
X51213004Y-47312445D02*
X51174909Y-47350541D01*
X51174909Y-47350541D02*
X51098718Y-47388636D01*
X51098718Y-47388636D02*
X50946337Y-47388636D01*
X50946337Y-47388636D02*
X50870147Y-47350541D01*
X51898719Y-47350541D02*
X51822528Y-47388636D01*
X51822528Y-47388636D02*
X51670147Y-47388636D01*
X51670147Y-47388636D02*
X51593957Y-47350541D01*
X51593957Y-47350541D02*
X51555861Y-47274350D01*
X51555861Y-47274350D02*
X51555861Y-46969588D01*
X51555861Y-46969588D02*
X51593957Y-46893398D01*
X51593957Y-46893398D02*
X51670147Y-46855302D01*
X51670147Y-46855302D02*
X51822528Y-46855302D01*
X51822528Y-46855302D02*
X51898719Y-46893398D01*
X51898719Y-46893398D02*
X51936814Y-46969588D01*
X51936814Y-46969588D02*
X51936814Y-47045779D01*
X51936814Y-47045779D02*
X51555861Y-47121969D01*
X52279671Y-46855302D02*
X52279671Y-47388636D01*
X52279671Y-46931493D02*
X52317766Y-46893398D01*
X52317766Y-46893398D02*
X52393956Y-46855302D01*
X52393956Y-46855302D02*
X52508242Y-46855302D01*
X52508242Y-46855302D02*
X52584433Y-46893398D01*
X52584433Y-46893398D02*
X52622528Y-46969588D01*
X52622528Y-46969588D02*
X52622528Y-47388636D01*
X48777217Y-44027267D02*
X49586740Y-44027267D01*
X49586740Y-44027267D02*
X49681978Y-43979648D01*
X49681978Y-43979648D02*
X49729598Y-43932029D01*
X49729598Y-43932029D02*
X49777217Y-43836791D01*
X49777217Y-43836791D02*
X49777217Y-43646315D01*
X49777217Y-43646315D02*
X49729598Y-43551077D01*
X49729598Y-43551077D02*
X49681978Y-43503458D01*
X49681978Y-43503458D02*
X49586740Y-43455839D01*
X49586740Y-43455839D02*
X48777217Y-43455839D01*
X49729598Y-43027267D02*
X49777217Y-42884410D01*
X49777217Y-42884410D02*
X49777217Y-42646315D01*
X49777217Y-42646315D02*
X49729598Y-42551077D01*
X49729598Y-42551077D02*
X49681978Y-42503458D01*
X49681978Y-42503458D02*
X49586740Y-42455839D01*
X49586740Y-42455839D02*
X49491502Y-42455839D01*
X49491502Y-42455839D02*
X49396264Y-42503458D01*
X49396264Y-42503458D02*
X49348645Y-42551077D01*
X49348645Y-42551077D02*
X49301026Y-42646315D01*
X49301026Y-42646315D02*
X49253407Y-42836791D01*
X49253407Y-42836791D02*
X49205788Y-42932029D01*
X49205788Y-42932029D02*
X49158169Y-42979648D01*
X49158169Y-42979648D02*
X49062931Y-43027267D01*
X49062931Y-43027267D02*
X48967693Y-43027267D01*
X48967693Y-43027267D02*
X48872455Y-42979648D01*
X48872455Y-42979648D02*
X48824836Y-42932029D01*
X48824836Y-42932029D02*
X48777217Y-42836791D01*
X48777217Y-42836791D02*
X48777217Y-42598696D01*
X48777217Y-42598696D02*
X48824836Y-42455839D01*
X49253407Y-41693934D02*
X49301026Y-41551077D01*
X49301026Y-41551077D02*
X49348645Y-41503458D01*
X49348645Y-41503458D02*
X49443883Y-41455839D01*
X49443883Y-41455839D02*
X49586740Y-41455839D01*
X49586740Y-41455839D02*
X49681978Y-41503458D01*
X49681978Y-41503458D02*
X49729598Y-41551077D01*
X49729598Y-41551077D02*
X49777217Y-41646315D01*
X49777217Y-41646315D02*
X49777217Y-42027267D01*
X49777217Y-42027267D02*
X48777217Y-42027267D01*
X48777217Y-42027267D02*
X48777217Y-41693934D01*
X48777217Y-41693934D02*
X48824836Y-41598696D01*
X48824836Y-41598696D02*
X48872455Y-41551077D01*
X48872455Y-41551077D02*
X48967693Y-41503458D01*
X48967693Y-41503458D02*
X49062931Y-41503458D01*
X49062931Y-41503458D02*
X49158169Y-41551077D01*
X49158169Y-41551077D02*
X49205788Y-41598696D01*
X49205788Y-41598696D02*
X49253407Y-41693934D01*
X49253407Y-41693934D02*
X49253407Y-42027267D01*
X77439788Y-90755839D02*
X77401693Y-90832029D01*
X77401693Y-90832029D02*
X77401693Y-90946315D01*
X77401693Y-90946315D02*
X77439788Y-91060601D01*
X77439788Y-91060601D02*
X77515978Y-91136791D01*
X77515978Y-91136791D02*
X77592169Y-91174886D01*
X77592169Y-91174886D02*
X77744550Y-91212982D01*
X77744550Y-91212982D02*
X77858836Y-91212982D01*
X77858836Y-91212982D02*
X78011217Y-91174886D01*
X78011217Y-91174886D02*
X78087407Y-91136791D01*
X78087407Y-91136791D02*
X78163598Y-91060601D01*
X78163598Y-91060601D02*
X78201693Y-90946315D01*
X78201693Y-90946315D02*
X78201693Y-90870124D01*
X78201693Y-90870124D02*
X78163598Y-90755839D01*
X78163598Y-90755839D02*
X78125502Y-90717743D01*
X78125502Y-90717743D02*
X77858836Y-90717743D01*
X77858836Y-90717743D02*
X77858836Y-90870124D01*
X78201693Y-90374886D02*
X77401693Y-90374886D01*
X77401693Y-90374886D02*
X78201693Y-89917743D01*
X78201693Y-89917743D02*
X77401693Y-89917743D01*
X78201693Y-89536791D02*
X77401693Y-89536791D01*
X77401693Y-89536791D02*
X77401693Y-89346315D01*
X77401693Y-89346315D02*
X77439788Y-89232029D01*
X77439788Y-89232029D02*
X77515978Y-89155839D01*
X77515978Y-89155839D02*
X77592169Y-89117744D01*
X77592169Y-89117744D02*
X77744550Y-89079648D01*
X77744550Y-89079648D02*
X77858836Y-89079648D01*
X77858836Y-89079648D02*
X78011217Y-89117744D01*
X78011217Y-89117744D02*
X78087407Y-89155839D01*
X78087407Y-89155839D02*
X78163598Y-89232029D01*
X78163598Y-89232029D02*
X78201693Y-89346315D01*
X78201693Y-89346315D02*
X78201693Y-89536791D01*
D11*
X51968799Y-51797819D02*
X52006894Y-51874010D01*
X52006894Y-51874010D02*
X52006894Y-52026391D01*
X52006894Y-52026391D02*
X51968799Y-52102581D01*
X51968799Y-52102581D02*
X51930703Y-52140676D01*
X51930703Y-52140676D02*
X51854513Y-52178772D01*
X51854513Y-52178772D02*
X51625941Y-52178772D01*
X51625941Y-52178772D02*
X51549751Y-52140676D01*
X51549751Y-52140676D02*
X51511656Y-52102581D01*
X51511656Y-52102581D02*
X51473560Y-52026391D01*
X51473560Y-52026391D02*
X51473560Y-51874010D01*
X51473560Y-51874010D02*
X51511656Y-51797819D01*
X52006894Y-50121629D02*
X51968799Y-50197819D01*
X51968799Y-50197819D02*
X51930703Y-50235914D01*
X51930703Y-50235914D02*
X51854513Y-50274010D01*
X51854513Y-50274010D02*
X51625941Y-50274010D01*
X51625941Y-50274010D02*
X51549751Y-50235914D01*
X51549751Y-50235914D02*
X51511656Y-50197819D01*
X51511656Y-50197819D02*
X51473560Y-50121629D01*
X51473560Y-50121629D02*
X51473560Y-50007343D01*
X51473560Y-50007343D02*
X51511656Y-49931152D01*
X51511656Y-49931152D02*
X51549751Y-49893057D01*
X51549751Y-49893057D02*
X51625941Y-49854962D01*
X51625941Y-49854962D02*
X51854513Y-49854962D01*
X51854513Y-49854962D02*
X51930703Y-49893057D01*
X51930703Y-49893057D02*
X51968799Y-49931152D01*
X51968799Y-49931152D02*
X52006894Y-50007343D01*
X52006894Y-50007343D02*
X52006894Y-50121629D01*
D10*
X80925502Y-90717743D02*
X80963598Y-90755839D01*
X80963598Y-90755839D02*
X81001693Y-90870124D01*
X81001693Y-90870124D02*
X81001693Y-90946315D01*
X81001693Y-90946315D02*
X80963598Y-91060601D01*
X80963598Y-91060601D02*
X80887407Y-91136791D01*
X80887407Y-91136791D02*
X80811217Y-91174886D01*
X80811217Y-91174886D02*
X80658836Y-91212982D01*
X80658836Y-91212982D02*
X80544550Y-91212982D01*
X80544550Y-91212982D02*
X80392169Y-91174886D01*
X80392169Y-91174886D02*
X80315978Y-91136791D01*
X80315978Y-91136791D02*
X80239788Y-91060601D01*
X80239788Y-91060601D02*
X80201693Y-90946315D01*
X80201693Y-90946315D02*
X80201693Y-90870124D01*
X80201693Y-90870124D02*
X80239788Y-90755839D01*
X80239788Y-90755839D02*
X80277883Y-90717743D01*
X81001693Y-89993934D02*
X81001693Y-90374886D01*
X81001693Y-90374886D02*
X80201693Y-90374886D01*
X81001693Y-89727267D02*
X80201693Y-89727267D01*
X81001693Y-89270124D02*
X80544550Y-89612982D01*
X80201693Y-89270124D02*
X80658836Y-89727267D01*
X49389195Y-56612445D02*
X49351099Y-56650541D01*
X49351099Y-56650541D02*
X49236814Y-56688636D01*
X49236814Y-56688636D02*
X49160623Y-56688636D01*
X49160623Y-56688636D02*
X49046337Y-56650541D01*
X49046337Y-56650541D02*
X48970147Y-56574350D01*
X48970147Y-56574350D02*
X48932052Y-56498160D01*
X48932052Y-56498160D02*
X48893956Y-56345779D01*
X48893956Y-56345779D02*
X48893956Y-56231493D01*
X48893956Y-56231493D02*
X48932052Y-56079112D01*
X48932052Y-56079112D02*
X48970147Y-56002921D01*
X48970147Y-56002921D02*
X49046337Y-55926731D01*
X49046337Y-55926731D02*
X49160623Y-55888636D01*
X49160623Y-55888636D02*
X49236814Y-55888636D01*
X49236814Y-55888636D02*
X49351099Y-55926731D01*
X49351099Y-55926731D02*
X49389195Y-55964826D01*
X49617766Y-56155302D02*
X49922528Y-56155302D01*
X49732052Y-55888636D02*
X49732052Y-56574350D01*
X49732052Y-56574350D02*
X49770147Y-56650541D01*
X49770147Y-56650541D02*
X49846337Y-56688636D01*
X49846337Y-56688636D02*
X49922528Y-56688636D01*
X50189195Y-56688636D02*
X50189195Y-56155302D01*
X50189195Y-56307683D02*
X50227290Y-56231493D01*
X50227290Y-56231493D02*
X50265385Y-56193398D01*
X50265385Y-56193398D02*
X50341576Y-56155302D01*
X50341576Y-56155302D02*
X50417766Y-56155302D01*
X50798718Y-56688636D02*
X50722528Y-56650541D01*
X50722528Y-56650541D02*
X50684433Y-56574350D01*
X50684433Y-56574350D02*
X50684433Y-55888636D01*
X79677217Y-89527267D02*
X78677217Y-89527267D01*
X78677217Y-89527267D02*
X79391502Y-89193934D01*
X79391502Y-89193934D02*
X78677217Y-88860601D01*
X78677217Y-88860601D02*
X79677217Y-88860601D01*
X79677217Y-88241553D02*
X79629598Y-88336791D01*
X79629598Y-88336791D02*
X79581978Y-88384410D01*
X79581978Y-88384410D02*
X79486740Y-88432029D01*
X79486740Y-88432029D02*
X79201026Y-88432029D01*
X79201026Y-88432029D02*
X79105788Y-88384410D01*
X79105788Y-88384410D02*
X79058169Y-88336791D01*
X79058169Y-88336791D02*
X79010550Y-88241553D01*
X79010550Y-88241553D02*
X79010550Y-88098696D01*
X79010550Y-88098696D02*
X79058169Y-88003458D01*
X79058169Y-88003458D02*
X79105788Y-87955839D01*
X79105788Y-87955839D02*
X79201026Y-87908220D01*
X79201026Y-87908220D02*
X79486740Y-87908220D01*
X79486740Y-87908220D02*
X79581978Y-87955839D01*
X79581978Y-87955839D02*
X79629598Y-88003458D01*
X79629598Y-88003458D02*
X79677217Y-88098696D01*
X79677217Y-88098696D02*
X79677217Y-88241553D01*
X79010550Y-87622505D02*
X79010550Y-87241553D01*
X78677217Y-87479648D02*
X79534359Y-87479648D01*
X79534359Y-87479648D02*
X79629598Y-87432029D01*
X79629598Y-87432029D02*
X79677217Y-87336791D01*
X79677217Y-87336791D02*
X79677217Y-87241553D01*
X79677217Y-86765362D02*
X79629598Y-86860600D01*
X79629598Y-86860600D02*
X79581978Y-86908219D01*
X79581978Y-86908219D02*
X79486740Y-86955838D01*
X79486740Y-86955838D02*
X79201026Y-86955838D01*
X79201026Y-86955838D02*
X79105788Y-86908219D01*
X79105788Y-86908219D02*
X79058169Y-86860600D01*
X79058169Y-86860600D02*
X79010550Y-86765362D01*
X79010550Y-86765362D02*
X79010550Y-86622505D01*
X79010550Y-86622505D02*
X79058169Y-86527267D01*
X79058169Y-86527267D02*
X79105788Y-86479648D01*
X79105788Y-86479648D02*
X79201026Y-86432029D01*
X79201026Y-86432029D02*
X79486740Y-86432029D01*
X79486740Y-86432029D02*
X79581978Y-86479648D01*
X79581978Y-86479648D02*
X79629598Y-86527267D01*
X79629598Y-86527267D02*
X79677217Y-86622505D01*
X79677217Y-86622505D02*
X79677217Y-86765362D01*
X79677217Y-86003457D02*
X79010550Y-86003457D01*
X79201026Y-86003457D02*
X79105788Y-85955838D01*
X79105788Y-85955838D02*
X79058169Y-85908219D01*
X79058169Y-85908219D02*
X79010550Y-85812981D01*
X79010550Y-85812981D02*
X79010550Y-85717743D01*
X82301693Y-91074886D02*
X81501693Y-91074886D01*
X81501693Y-91074886D02*
X81501693Y-90884410D01*
X81501693Y-90884410D02*
X81539788Y-90770124D01*
X81539788Y-90770124D02*
X81615978Y-90693934D01*
X81615978Y-90693934D02*
X81692169Y-90655839D01*
X81692169Y-90655839D02*
X81844550Y-90617743D01*
X81844550Y-90617743D02*
X81958836Y-90617743D01*
X81958836Y-90617743D02*
X82111217Y-90655839D01*
X82111217Y-90655839D02*
X82187407Y-90693934D01*
X82187407Y-90693934D02*
X82263598Y-90770124D01*
X82263598Y-90770124D02*
X82301693Y-90884410D01*
X82301693Y-90884410D02*
X82301693Y-91074886D01*
X82301693Y-90274886D02*
X81501693Y-90274886D01*
X81501693Y-89741553D02*
X81501693Y-89589172D01*
X81501693Y-89589172D02*
X81539788Y-89512982D01*
X81539788Y-89512982D02*
X81615978Y-89436791D01*
X81615978Y-89436791D02*
X81768359Y-89398696D01*
X81768359Y-89398696D02*
X82035026Y-89398696D01*
X82035026Y-89398696D02*
X82187407Y-89436791D01*
X82187407Y-89436791D02*
X82263598Y-89512982D01*
X82263598Y-89512982D02*
X82301693Y-89589172D01*
X82301693Y-89589172D02*
X82301693Y-89741553D01*
X82301693Y-89741553D02*
X82263598Y-89817744D01*
X82263598Y-89817744D02*
X82187407Y-89893934D01*
X82187407Y-89893934D02*
X82035026Y-89932030D01*
X82035026Y-89932030D02*
X81768359Y-89932030D01*
X81768359Y-89932030D02*
X81615978Y-89893934D01*
X81615978Y-89893934D02*
X81539788Y-89817744D01*
X81539788Y-89817744D02*
X81501693Y-89741553D01*
X44924836Y-51203458D02*
X44877217Y-51298696D01*
X44877217Y-51298696D02*
X44877217Y-51441553D01*
X44877217Y-51441553D02*
X44924836Y-51584410D01*
X44924836Y-51584410D02*
X45020074Y-51679648D01*
X45020074Y-51679648D02*
X45115312Y-51727267D01*
X45115312Y-51727267D02*
X45305788Y-51774886D01*
X45305788Y-51774886D02*
X45448645Y-51774886D01*
X45448645Y-51774886D02*
X45639121Y-51727267D01*
X45639121Y-51727267D02*
X45734359Y-51679648D01*
X45734359Y-51679648D02*
X45829598Y-51584410D01*
X45829598Y-51584410D02*
X45877217Y-51441553D01*
X45877217Y-51441553D02*
X45877217Y-51346315D01*
X45877217Y-51346315D02*
X45829598Y-51203458D01*
X45829598Y-51203458D02*
X45781978Y-51155839D01*
X45781978Y-51155839D02*
X45448645Y-51155839D01*
X45448645Y-51155839D02*
X45448645Y-51346315D01*
X45353407Y-50393934D02*
X45401026Y-50251077D01*
X45401026Y-50251077D02*
X45448645Y-50203458D01*
X45448645Y-50203458D02*
X45543883Y-50155839D01*
X45543883Y-50155839D02*
X45686740Y-50155839D01*
X45686740Y-50155839D02*
X45781978Y-50203458D01*
X45781978Y-50203458D02*
X45829598Y-50251077D01*
X45829598Y-50251077D02*
X45877217Y-50346315D01*
X45877217Y-50346315D02*
X45877217Y-50727267D01*
X45877217Y-50727267D02*
X44877217Y-50727267D01*
X44877217Y-50727267D02*
X44877217Y-50393934D01*
X44877217Y-50393934D02*
X44924836Y-50298696D01*
X44924836Y-50298696D02*
X44972455Y-50251077D01*
X44972455Y-50251077D02*
X45067693Y-50203458D01*
X45067693Y-50203458D02*
X45162931Y-50203458D01*
X45162931Y-50203458D02*
X45258169Y-50251077D01*
X45258169Y-50251077D02*
X45305788Y-50298696D01*
X45305788Y-50298696D02*
X45353407Y-50393934D01*
X45353407Y-50393934D02*
X45353407Y-50727267D01*
X47689195Y-55212445D02*
X47651099Y-55250541D01*
X47651099Y-55250541D02*
X47536814Y-55288636D01*
X47536814Y-55288636D02*
X47460623Y-55288636D01*
X47460623Y-55288636D02*
X47346337Y-55250541D01*
X47346337Y-55250541D02*
X47270147Y-55174350D01*
X47270147Y-55174350D02*
X47232052Y-55098160D01*
X47232052Y-55098160D02*
X47193956Y-54945779D01*
X47193956Y-54945779D02*
X47193956Y-54831493D01*
X47193956Y-54831493D02*
X47232052Y-54679112D01*
X47232052Y-54679112D02*
X47270147Y-54602921D01*
X47270147Y-54602921D02*
X47346337Y-54526731D01*
X47346337Y-54526731D02*
X47460623Y-54488636D01*
X47460623Y-54488636D02*
X47536814Y-54488636D01*
X47536814Y-54488636D02*
X47651099Y-54526731D01*
X47651099Y-54526731D02*
X47689195Y-54564826D01*
X48146337Y-55288636D02*
X48070147Y-55250541D01*
X48070147Y-55250541D02*
X48032052Y-55174350D01*
X48032052Y-55174350D02*
X48032052Y-54488636D01*
X48565385Y-55288636D02*
X48489195Y-55250541D01*
X48489195Y-55250541D02*
X48451100Y-55212445D01*
X48451100Y-55212445D02*
X48413004Y-55136255D01*
X48413004Y-55136255D02*
X48413004Y-54907683D01*
X48413004Y-54907683D02*
X48451100Y-54831493D01*
X48451100Y-54831493D02*
X48489195Y-54793398D01*
X48489195Y-54793398D02*
X48565385Y-54755302D01*
X48565385Y-54755302D02*
X48679671Y-54755302D01*
X48679671Y-54755302D02*
X48755862Y-54793398D01*
X48755862Y-54793398D02*
X48793957Y-54831493D01*
X48793957Y-54831493D02*
X48832052Y-54907683D01*
X48832052Y-54907683D02*
X48832052Y-55136255D01*
X48832052Y-55136255D02*
X48793957Y-55212445D01*
X48793957Y-55212445D02*
X48755862Y-55250541D01*
X48755862Y-55250541D02*
X48679671Y-55288636D01*
X48679671Y-55288636D02*
X48565385Y-55288636D01*
X49136814Y-55250541D02*
X49213005Y-55288636D01*
X49213005Y-55288636D02*
X49365386Y-55288636D01*
X49365386Y-55288636D02*
X49441576Y-55250541D01*
X49441576Y-55250541D02*
X49479672Y-55174350D01*
X49479672Y-55174350D02*
X49479672Y-55136255D01*
X49479672Y-55136255D02*
X49441576Y-55060064D01*
X49441576Y-55060064D02*
X49365386Y-55021969D01*
X49365386Y-55021969D02*
X49251100Y-55021969D01*
X49251100Y-55021969D02*
X49174910Y-54983874D01*
X49174910Y-54983874D02*
X49136814Y-54907683D01*
X49136814Y-54907683D02*
X49136814Y-54869588D01*
X49136814Y-54869588D02*
X49174910Y-54793398D01*
X49174910Y-54793398D02*
X49251100Y-54755302D01*
X49251100Y-54755302D02*
X49365386Y-54755302D01*
X49365386Y-54755302D02*
X49441576Y-54793398D01*
X50127291Y-55250541D02*
X50051100Y-55288636D01*
X50051100Y-55288636D02*
X49898719Y-55288636D01*
X49898719Y-55288636D02*
X49822529Y-55250541D01*
X49822529Y-55250541D02*
X49784433Y-55174350D01*
X49784433Y-55174350D02*
X49784433Y-54869588D01*
X49784433Y-54869588D02*
X49822529Y-54793398D01*
X49822529Y-54793398D02*
X49898719Y-54755302D01*
X49898719Y-54755302D02*
X50051100Y-54755302D01*
X50051100Y-54755302D02*
X50127291Y-54793398D01*
X50127291Y-54793398D02*
X50165386Y-54869588D01*
X50165386Y-54869588D02*
X50165386Y-54945779D01*
X50165386Y-54945779D02*
X49784433Y-55021969D01*
X83901693Y-91151077D02*
X83901693Y-90655839D01*
X83901693Y-90655839D02*
X84206455Y-90922505D01*
X84206455Y-90922505D02*
X84206455Y-90808220D01*
X84206455Y-90808220D02*
X84244550Y-90732029D01*
X84244550Y-90732029D02*
X84282645Y-90693934D01*
X84282645Y-90693934D02*
X84358836Y-90655839D01*
X84358836Y-90655839D02*
X84549312Y-90655839D01*
X84549312Y-90655839D02*
X84625502Y-90693934D01*
X84625502Y-90693934D02*
X84663598Y-90732029D01*
X84663598Y-90732029D02*
X84701693Y-90808220D01*
X84701693Y-90808220D02*
X84701693Y-91036791D01*
X84701693Y-91036791D02*
X84663598Y-91112982D01*
X84663598Y-91112982D02*
X84625502Y-91151077D01*
X84625502Y-90312981D02*
X84663598Y-90274886D01*
X84663598Y-90274886D02*
X84701693Y-90312981D01*
X84701693Y-90312981D02*
X84663598Y-90351077D01*
X84663598Y-90351077D02*
X84625502Y-90312981D01*
X84625502Y-90312981D02*
X84701693Y-90312981D01*
X83901693Y-90008220D02*
X83901693Y-89512982D01*
X83901693Y-89512982D02*
X84206455Y-89779648D01*
X84206455Y-89779648D02*
X84206455Y-89665363D01*
X84206455Y-89665363D02*
X84244550Y-89589172D01*
X84244550Y-89589172D02*
X84282645Y-89551077D01*
X84282645Y-89551077D02*
X84358836Y-89512982D01*
X84358836Y-89512982D02*
X84549312Y-89512982D01*
X84549312Y-89512982D02*
X84625502Y-89551077D01*
X84625502Y-89551077D02*
X84663598Y-89589172D01*
X84663598Y-89589172D02*
X84701693Y-89665363D01*
X84701693Y-89665363D02*
X84701693Y-89893934D01*
X84701693Y-89893934D02*
X84663598Y-89970125D01*
X84663598Y-89970125D02*
X84625502Y-90008220D01*
X83901693Y-89284410D02*
X84701693Y-89017743D01*
X84701693Y-89017743D02*
X83901693Y-88751077D01*
X53753408Y-91293935D02*
X53801027Y-91151078D01*
X53801027Y-91151078D02*
X53848646Y-91103459D01*
X53848646Y-91103459D02*
X53943884Y-91055840D01*
X53943884Y-91055840D02*
X54086741Y-91055840D01*
X54086741Y-91055840D02*
X54181979Y-91103459D01*
X54181979Y-91103459D02*
X54229599Y-91151078D01*
X54229599Y-91151078D02*
X54277218Y-91246316D01*
X54277218Y-91246316D02*
X54277218Y-91627268D01*
X54277218Y-91627268D02*
X53277218Y-91627268D01*
X53277218Y-91627268D02*
X53277218Y-91293935D01*
X53277218Y-91293935D02*
X53324837Y-91198697D01*
X53324837Y-91198697D02*
X53372456Y-91151078D01*
X53372456Y-91151078D02*
X53467694Y-91103459D01*
X53467694Y-91103459D02*
X53562932Y-91103459D01*
X53562932Y-91103459D02*
X53658170Y-91151078D01*
X53658170Y-91151078D02*
X53705789Y-91198697D01*
X53705789Y-91198697D02*
X53753408Y-91293935D01*
X53753408Y-91293935D02*
X53753408Y-91627268D01*
X53991503Y-90674887D02*
X53991503Y-90198697D01*
X54277218Y-90770125D02*
X53277218Y-90436792D01*
X53277218Y-90436792D02*
X54277218Y-90103459D01*
X53277218Y-89912982D02*
X53277218Y-89341554D01*
X54277218Y-89627268D02*
X53277218Y-89627268D01*
D11*
G36*
X58188372Y-47313386D02*
G01*
X57717862Y-47313386D01*
X57717862Y-47119543D01*
X58852761Y-47119543D01*
X58852761Y-47313386D01*
X58382252Y-47313386D01*
X58382252Y-48744442D01*
X58188372Y-48744442D01*
X58188372Y-47313386D01*
G37*
G36*
X60988176Y-47119543D02*
G01*
X60529635Y-48744442D01*
X60323787Y-48744442D01*
X59949362Y-47450809D01*
X59574938Y-48744442D01*
X59365329Y-48744442D01*
X58906446Y-47119543D01*
X59108532Y-47119543D01*
X59478853Y-48441385D01*
X59864903Y-47119543D01*
X60045448Y-47119543D01*
X60423633Y-48448236D01*
X60801819Y-47119543D01*
X60988176Y-47119543D01*
G37*
G36*
X62447576Y-47119543D02*
G01*
X61845762Y-48744442D01*
X61651882Y-48744442D01*
X61048016Y-47119543D01*
X61259676Y-47119543D01*
X61753780Y-48455490D01*
X62251644Y-47119543D01*
X62447576Y-47119543D01*
G37*
G36*
X59107506Y-49891543D02*
G01*
X58505692Y-51516442D01*
X58311812Y-51516442D01*
X57707946Y-49891543D01*
X57919607Y-49891543D01*
X58413710Y-51227490D01*
X58911575Y-49891543D01*
X59107506Y-49891543D01*
G37*
G36*
X59171791Y-50780965D02*
G01*
X59699062Y-50780965D01*
X59699062Y-50974809D01*
X59171791Y-50974809D01*
X59171791Y-50780965D01*
G37*
G36*
X60546452Y-49883333D02*
G01*
X60620984Y-49900164D01*
X60691157Y-49929237D01*
X60756969Y-49970551D01*
X60764889Y-49976576D01*
X60824772Y-50031107D01*
X60877901Y-50096771D01*
X60918848Y-50163359D01*
X60954626Y-50238471D01*
X60963898Y-50261497D01*
X60992145Y-50346447D01*
X61010834Y-50424541D01*
X61024426Y-50507509D01*
X61032921Y-50595350D01*
X61036319Y-50688066D01*
X61036390Y-50703992D01*
X61033841Y-50797534D01*
X61026196Y-50886230D01*
X61013453Y-50970081D01*
X60995613Y-51049087D01*
X60968358Y-51135136D01*
X60963898Y-51146890D01*
X60929598Y-51224280D01*
X60890128Y-51293185D01*
X60838687Y-51361544D01*
X60780493Y-51418821D01*
X60764889Y-51431408D01*
X60699622Y-51474252D01*
X60629994Y-51504855D01*
X60556007Y-51523217D01*
X60487692Y-51529242D01*
X60477660Y-51529338D01*
X60408318Y-51524651D01*
X60333279Y-51507820D01*
X60262727Y-51478747D01*
X60196663Y-51437433D01*
X60188720Y-51431408D01*
X60128838Y-51376903D01*
X60075709Y-51311314D01*
X60034761Y-51244833D01*
X59998984Y-51169867D01*
X59989711Y-51146890D01*
X59961465Y-51061783D01*
X59942776Y-50983585D01*
X59929184Y-50900542D01*
X59920689Y-50812653D01*
X59917291Y-50719919D01*
X59917220Y-50703992D01*
X60113152Y-50703992D01*
X60115564Y-50796531D01*
X60122802Y-50881966D01*
X60137857Y-50975111D01*
X60159860Y-51058027D01*
X60194312Y-51141833D01*
X60211972Y-51173488D01*
X60258579Y-51236613D01*
X60319739Y-51289772D01*
X60389318Y-51322679D01*
X60457107Y-51334861D01*
X60477660Y-51335494D01*
X60546608Y-51327742D01*
X60617673Y-51299897D01*
X60680489Y-51251801D01*
X60728685Y-51193106D01*
X60741295Y-51173488D01*
X60779934Y-51095649D01*
X60805499Y-51017847D01*
X60824092Y-50929817D01*
X60834260Y-50848644D01*
X60839587Y-50760368D01*
X60840458Y-50703992D01*
X60838037Y-50611453D01*
X60830774Y-50526018D01*
X60815667Y-50432873D01*
X60793588Y-50349958D01*
X60759017Y-50266151D01*
X60741295Y-50234496D01*
X60694904Y-50171371D01*
X60634150Y-50118212D01*
X60565148Y-50085305D01*
X60487896Y-50072648D01*
X60477660Y-50072490D01*
X60408029Y-50080242D01*
X60336344Y-50108087D01*
X60273080Y-50156183D01*
X60224631Y-50214878D01*
X60211972Y-50234496D01*
X60173467Y-50312336D01*
X60147990Y-50390137D01*
X60129461Y-50478167D01*
X60119328Y-50559340D01*
X60114020Y-50647616D01*
X60113152Y-50703992D01*
X59917220Y-50703992D01*
X59919769Y-50610464D01*
X59927414Y-50521811D01*
X59940157Y-50438031D01*
X59957996Y-50359124D01*
X59985251Y-50273227D01*
X59989711Y-50261497D01*
X60024012Y-50183950D01*
X60063482Y-50114926D01*
X60114923Y-50046479D01*
X60173117Y-49989165D01*
X60188720Y-49976576D01*
X60254223Y-49933732D01*
X60324214Y-49903129D01*
X60398693Y-49884767D01*
X60467543Y-49878742D01*
X60477660Y-49878647D01*
X60546452Y-49883333D01*
G37*
G36*
X61329432Y-51529338D02*
G01*
X61261478Y-51508575D01*
X61235399Y-51485410D01*
X61200224Y-51413409D01*
X61196418Y-51373376D01*
X61214842Y-51293703D01*
X61235399Y-51264163D01*
X61296741Y-51224162D01*
X61329432Y-51219833D01*
X61396725Y-51240214D01*
X61421756Y-51262954D01*
X61455388Y-51333501D01*
X61459028Y-51373376D01*
X61442534Y-51452172D01*
X61420730Y-51485410D01*
X61361122Y-51525048D01*
X61329432Y-51529338D01*
G37*
G36*
X62172914Y-49883773D02*
G01*
X62250070Y-49899151D01*
X62321030Y-49924781D01*
X62385797Y-49960664D01*
X62444369Y-50006798D01*
X62496747Y-50063185D01*
X62515964Y-50088610D01*
X62559209Y-50158387D01*
X62595124Y-50236744D01*
X62623710Y-50323681D01*
X62644966Y-50419197D01*
X62656694Y-50501786D01*
X62663730Y-50589867D01*
X62666076Y-50683439D01*
X62664089Y-50765753D01*
X62656459Y-50859413D01*
X62643108Y-50947491D01*
X62624034Y-51029986D01*
X62599238Y-51106900D01*
X62584694Y-51143263D01*
X62545997Y-51222066D01*
X62501115Y-51292038D01*
X62450048Y-51353177D01*
X62392796Y-51405484D01*
X62357304Y-51431408D01*
X62291118Y-51469566D01*
X62220318Y-51498352D01*
X62144904Y-51517766D01*
X62076591Y-51526947D01*
X62017074Y-51529338D01*
X61943824Y-51526051D01*
X61873843Y-51516190D01*
X61829007Y-51505963D01*
X61761221Y-51483447D01*
X61696931Y-51451314D01*
X61676159Y-51437856D01*
X61750702Y-51257715D01*
X61811978Y-51295313D01*
X61883478Y-51320607D01*
X61955617Y-51332760D01*
X62015022Y-51335494D01*
X62091882Y-51329898D01*
X62162179Y-51313109D01*
X62235896Y-51279375D01*
X62300679Y-51230407D01*
X62349097Y-51176309D01*
X62390118Y-51111363D01*
X62422652Y-51036216D01*
X62446698Y-50950868D01*
X62462258Y-50855319D01*
X62468741Y-50767902D01*
X62469802Y-50712052D01*
X62469802Y-50653214D01*
X62424034Y-50720636D01*
X62367599Y-50776057D01*
X62307039Y-50816026D01*
X62239746Y-50845354D01*
X62167378Y-50863820D01*
X62097906Y-50871152D01*
X62073836Y-50871640D01*
X62000079Y-50866922D01*
X61930758Y-50852769D01*
X61858937Y-50825975D01*
X61831742Y-50811996D01*
X61769639Y-50769681D01*
X61716685Y-50717291D01*
X61672880Y-50654826D01*
X61665217Y-50641124D01*
X61633661Y-50568379D01*
X61613793Y-50489180D01*
X61605612Y-50403527D01*
X61605378Y-50385622D01*
X61605945Y-50376353D01*
X61795496Y-50376353D01*
X61803711Y-50457236D01*
X61831723Y-50533480D01*
X61879614Y-50596391D01*
X61938144Y-50639320D01*
X62008162Y-50666349D01*
X62080999Y-50677082D01*
X62107346Y-50677797D01*
X62178864Y-50671146D01*
X62248689Y-50649107D01*
X62271819Y-50637497D01*
X62332642Y-50593429D01*
X62381785Y-50532563D01*
X62384317Y-50528284D01*
X62414579Y-50455038D01*
X62424666Y-50373935D01*
X62413858Y-50290250D01*
X62386369Y-50223212D01*
X62339523Y-50161855D01*
X62279456Y-50116595D01*
X62274896Y-50113999D01*
X62210141Y-50087124D01*
X62141451Y-50074476D01*
X62097429Y-50072490D01*
X62025539Y-50079025D01*
X61955241Y-50101615D01*
X61895027Y-50140341D01*
X61878930Y-50155105D01*
X61831428Y-50218522D01*
X61803644Y-50295178D01*
X61795496Y-50376353D01*
X61605945Y-50376353D01*
X61610409Y-50303320D01*
X61627800Y-50218752D01*
X61657612Y-50141427D01*
X61668979Y-50119641D01*
X61713417Y-50052933D01*
X61766806Y-49996380D01*
X61829143Y-49949979D01*
X61842684Y-49941918D01*
X61906590Y-49911333D01*
X61974823Y-49890757D01*
X62047383Y-49880191D01*
X62089565Y-49878647D01*
X62172914Y-49883773D01*
G37*
G36*
X63575919Y-49881990D02*
G01*
X63646012Y-49892021D01*
X63690870Y-49902424D01*
X63758655Y-49925268D01*
X63822945Y-49957753D01*
X63843717Y-49971337D01*
X63769174Y-50149463D01*
X63701360Y-50108872D01*
X63629250Y-50085194D01*
X63556342Y-50074369D01*
X63506564Y-50072490D01*
X63429656Y-50078001D01*
X63359215Y-50094535D01*
X63285208Y-50127757D01*
X63220004Y-50175981D01*
X63171121Y-50229257D01*
X63123822Y-50304493D01*
X63092527Y-50379848D01*
X63069766Y-50465234D01*
X63055541Y-50560651D01*
X63050206Y-50647827D01*
X63049732Y-50684648D01*
X63051784Y-50742680D01*
X63097431Y-50674800D01*
X63153502Y-50619110D01*
X63213522Y-50579062D01*
X63280420Y-50549522D01*
X63352461Y-50530922D01*
X63421695Y-50523537D01*
X63445699Y-50523045D01*
X63519594Y-50527826D01*
X63588945Y-50542172D01*
X63660672Y-50569327D01*
X63687792Y-50583495D01*
X63749996Y-50626392D01*
X63803251Y-50679522D01*
X63847556Y-50742885D01*
X63855343Y-50756785D01*
X63887440Y-50830404D01*
X63907649Y-50910713D01*
X63915970Y-50997712D01*
X63916208Y-51015915D01*
X63911150Y-51099155D01*
X63893666Y-51184840D01*
X63863693Y-51263362D01*
X63852265Y-51285522D01*
X63807907Y-51352985D01*
X63754332Y-51410295D01*
X63691540Y-51457451D01*
X63677876Y-51465663D01*
X63613613Y-51496443D01*
X63545076Y-51517150D01*
X63472266Y-51527783D01*
X63429970Y-51529338D01*
X63346710Y-51524221D01*
X63269612Y-51508873D01*
X63198674Y-51483292D01*
X63133898Y-51447478D01*
X63075282Y-51401432D01*
X63022827Y-51345154D01*
X63003570Y-51319777D01*
X62960424Y-51249884D01*
X62924590Y-51171430D01*
X62896070Y-51084417D01*
X62883373Y-51027199D01*
X63096920Y-51027199D01*
X63106409Y-51108101D01*
X63134875Y-51181548D01*
X63181978Y-51244114D01*
X63242129Y-51290508D01*
X63246690Y-51293179D01*
X63311106Y-51320576D01*
X63378883Y-51333469D01*
X63422105Y-51335494D01*
X63494215Y-51328832D01*
X63564820Y-51305801D01*
X63625408Y-51266319D01*
X63641630Y-51251267D01*
X63689716Y-51186369D01*
X63717842Y-51108043D01*
X63726090Y-51025184D01*
X63717741Y-50942269D01*
X63689274Y-50864337D01*
X63640605Y-50800309D01*
X63581747Y-50756318D01*
X63511602Y-50728619D01*
X63438822Y-50717621D01*
X63412531Y-50716888D01*
X63340960Y-50723672D01*
X63271584Y-50746152D01*
X63248741Y-50757994D01*
X63188580Y-50803084D01*
X63139479Y-50865624D01*
X63136927Y-50870028D01*
X63106922Y-50944584D01*
X63096920Y-51027199D01*
X62883373Y-51027199D01*
X62874862Y-50988844D01*
X62863161Y-50906223D01*
X62856141Y-50818123D01*
X62853801Y-50724545D01*
X62855788Y-50642231D01*
X62863417Y-50548571D01*
X62876769Y-50460493D01*
X62895843Y-50377998D01*
X62920639Y-50301085D01*
X62935182Y-50264721D01*
X62973879Y-50185918D01*
X63018761Y-50115946D01*
X63069828Y-50054807D01*
X63127080Y-50002500D01*
X63162573Y-49976576D01*
X63228742Y-49938418D01*
X63299493Y-49909632D01*
X63374825Y-49890218D01*
X63443042Y-49881038D01*
X63502461Y-49878647D01*
X63575919Y-49881990D01*
G37*
G36*
X63520060Y-44510388D02*
G01*
X63369349Y-44502177D01*
X63229403Y-44477544D01*
X63100223Y-44436489D01*
X62981808Y-44379012D01*
X62874159Y-44305113D01*
X62759190Y-44194757D01*
X62741536Y-44174065D01*
X62661333Y-44061773D01*
X62594724Y-43935099D01*
X62541708Y-43794041D01*
X62502286Y-43638601D01*
X62476458Y-43468778D01*
X62465583Y-43322565D01*
X62463136Y-43206864D01*
X62463136Y-41532579D01*
X62820634Y-41532579D01*
X62820634Y-43203933D01*
X62826814Y-43374425D01*
X62845355Y-43528148D01*
X62889303Y-43707025D01*
X62955224Y-43856090D01*
X63043119Y-43975341D01*
X63152989Y-44064780D01*
X63284832Y-44124406D01*
X63438649Y-44154219D01*
X63523797Y-44157945D01*
X63665974Y-44146690D01*
X63792772Y-44112926D01*
X63918854Y-44046774D01*
X64024850Y-43951221D01*
X64048211Y-43922740D01*
X64128049Y-43789337D01*
X64179195Y-43647290D01*
X64212876Y-43481611D01*
X64227846Y-43320792D01*
X64230697Y-43203933D01*
X64230697Y-41532579D01*
X64576985Y-41532579D01*
X64576985Y-43206864D01*
X64572635Y-43360817D01*
X64554963Y-43540088D01*
X64523697Y-43704727D01*
X64478838Y-43854732D01*
X64420384Y-43990105D01*
X64348338Y-44110844D01*
X64298584Y-44176264D01*
X64186389Y-44289814D01*
X64058604Y-44379871D01*
X63940208Y-44436972D01*
X63810985Y-44477758D01*
X63670936Y-44502230D01*
X63520060Y-44510388D01*
G37*
G36*
X66267939Y-42235998D02*
G01*
X66397957Y-42244654D01*
X66536473Y-42276631D01*
X66660802Y-42332169D01*
X66770945Y-42411269D01*
X66840933Y-42482195D01*
X66923687Y-42600881D01*
X66986115Y-42741515D01*
X67028218Y-42904099D01*
X67048129Y-43060926D01*
X67053314Y-43203933D01*
X67053314Y-44486941D01*
X66710763Y-44486941D01*
X66710763Y-43243500D01*
X66702472Y-43090864D01*
X66673323Y-42943124D01*
X66616320Y-42808742D01*
X66578103Y-42753305D01*
X66473859Y-42659442D01*
X66355718Y-42607922D01*
X66230358Y-42589085D01*
X66200052Y-42588441D01*
X66068209Y-42600485D01*
X65937473Y-42642828D01*
X65825360Y-42715658D01*
X65760964Y-42781148D01*
X65683288Y-42902407D01*
X65631033Y-43050212D01*
X65605926Y-43203878D01*
X65600277Y-43332893D01*
X65600277Y-44486941D01*
X65257726Y-44486941D01*
X65257726Y-41345001D01*
X65600277Y-41345001D01*
X65600277Y-42564261D01*
X65689904Y-42457099D01*
X65798100Y-42369721D01*
X65880545Y-42322460D01*
X66004439Y-42273234D01*
X66138047Y-42244442D01*
X66267939Y-42235998D01*
G37*
G36*
X68646836Y-42245066D02*
G01*
X68776811Y-42272268D01*
X68899389Y-42317606D01*
X69014572Y-42381079D01*
X69120023Y-42460717D01*
X69224231Y-42567280D01*
X69313167Y-42691810D01*
X69363973Y-42784812D01*
X69419560Y-42918443D01*
X69459265Y-43060684D01*
X69483088Y-43211535D01*
X69491029Y-43370995D01*
X69483088Y-43530776D01*
X69459265Y-43681855D01*
X69419560Y-43824233D01*
X69363973Y-43957910D01*
X69294724Y-44079956D01*
X69202394Y-44200725D01*
X69094791Y-44303990D01*
X69014572Y-44363109D01*
X68899389Y-44427544D01*
X68776811Y-44473568D01*
X68646836Y-44501183D01*
X68509465Y-44510388D01*
X68371978Y-44501183D01*
X68241653Y-44473568D01*
X68118491Y-44427544D01*
X68002491Y-44363109D01*
X67896183Y-44282555D01*
X67791197Y-44175400D01*
X67701681Y-44050741D01*
X67650598Y-43957910D01*
X67595284Y-43824233D01*
X67555773Y-43681855D01*
X67532067Y-43530776D01*
X67524165Y-43370995D01*
X67870453Y-43370995D01*
X67880315Y-43523946D01*
X67913567Y-43676583D01*
X67953911Y-43781323D01*
X68025467Y-43904181D01*
X68122160Y-44011928D01*
X68182485Y-44059027D01*
X68296198Y-44119305D01*
X68420597Y-44151763D01*
X68509465Y-44157945D01*
X68640608Y-44144035D01*
X68761240Y-44102304D01*
X68835823Y-44059027D01*
X68942945Y-43965475D01*
X69029510Y-43845560D01*
X69062529Y-43781323D01*
X69112627Y-43639815D01*
X69139603Y-43483469D01*
X69144741Y-43370995D01*
X69135027Y-43218044D01*
X69102270Y-43065407D01*
X69062529Y-42960667D01*
X68992111Y-42838118D01*
X68896059Y-42731403D01*
X68835823Y-42685161D01*
X68712254Y-42622538D01*
X68587242Y-42593069D01*
X68509465Y-42588441D01*
X68377943Y-42602042D01*
X68257107Y-42642846D01*
X68182485Y-42685161D01*
X68075054Y-42777290D01*
X67987565Y-42896507D01*
X67953911Y-42960667D01*
X67903054Y-43102175D01*
X67875669Y-43258521D01*
X67870453Y-43370995D01*
X67524165Y-43370995D01*
X67532067Y-43211535D01*
X67555773Y-43060684D01*
X67595284Y-42918443D01*
X67650598Y-42784812D01*
X67720237Y-42662584D01*
X67813191Y-42542046D01*
X67921614Y-42439477D01*
X68002491Y-42381079D01*
X68118491Y-42317606D01*
X68241653Y-42272268D01*
X68371978Y-42245066D01*
X68509465Y-42235998D01*
X68646836Y-42245066D01*
G37*
G36*
X72332953Y-42235998D02*
G01*
X72461570Y-42244576D01*
X72598450Y-42276268D01*
X72721144Y-42331310D01*
X72829652Y-42409704D01*
X72898473Y-42479997D01*
X72980013Y-42598036D01*
X73041527Y-42738656D01*
X73083012Y-42901855D01*
X73102631Y-43059713D01*
X73107740Y-43203933D01*
X73107740Y-44486941D01*
X72764567Y-44486941D01*
X72764567Y-43243500D01*
X72756665Y-43090864D01*
X72728884Y-42943124D01*
X72674558Y-42808742D01*
X72638134Y-42753305D01*
X72538259Y-42659442D01*
X72412479Y-42604541D01*
X72275653Y-42588441D01*
X72137638Y-42603684D01*
X72016471Y-42649415D01*
X71901602Y-42735983D01*
X71861479Y-42781148D01*
X71787415Y-42902407D01*
X71737591Y-43050212D01*
X71713652Y-43203878D01*
X71708265Y-43332893D01*
X71708265Y-44486941D01*
X71365715Y-44486941D01*
X71365715Y-43243500D01*
X71357774Y-43090864D01*
X71329856Y-42943124D01*
X71275262Y-42808742D01*
X71238659Y-42753305D01*
X71138784Y-42659442D01*
X71013004Y-42604541D01*
X70876179Y-42588441D01*
X70738163Y-42603684D01*
X70616996Y-42649415D01*
X70502127Y-42735983D01*
X70462004Y-42781148D01*
X70387941Y-42902407D01*
X70338116Y-43050212D01*
X70314177Y-43203878D01*
X70308790Y-43332893D01*
X70308790Y-44486941D01*
X69966240Y-44486941D01*
X69966240Y-42235998D01*
X70294465Y-42235998D01*
X70294465Y-42580381D01*
X70381028Y-42465766D01*
X70485632Y-42373614D01*
X70565392Y-42324659D01*
X70686449Y-42274181D01*
X70818398Y-42244657D01*
X70947803Y-42235998D01*
X71081125Y-42246302D01*
X71204716Y-42277214D01*
X71329426Y-42335020D01*
X71340179Y-42341511D01*
X71449012Y-42425063D01*
X71539153Y-42531646D01*
X71604877Y-42648525D01*
X71688387Y-42525491D01*
X71791621Y-42422372D01*
X71902585Y-42345908D01*
X72026771Y-42287948D01*
X72160325Y-42251454D01*
X72288531Y-42236964D01*
X72332953Y-42235998D01*
G37*
G36*
X74656730Y-42245066D02*
G01*
X74781411Y-42272268D01*
X74912836Y-42324548D01*
X75008584Y-42381079D01*
X75120708Y-42471432D01*
X75218151Y-42580100D01*
X75300912Y-42707084D01*
X75340547Y-42785545D01*
X75392864Y-42920001D01*
X75430233Y-43063982D01*
X75452655Y-43217488D01*
X75460128Y-43380520D01*
X75453277Y-43502153D01*
X73918028Y-43502153D01*
X73948463Y-43659508D01*
X74003335Y-43798548D01*
X74082642Y-43919272D01*
X74137260Y-43978427D01*
X74249953Y-44065206D01*
X74377131Y-44123584D01*
X74502337Y-44151634D01*
X74603752Y-44157945D01*
X74745694Y-44145042D01*
X74875060Y-44106334D01*
X74991849Y-44041819D01*
X75096061Y-43951499D01*
X75149964Y-43888301D01*
X75338679Y-44149153D01*
X75243039Y-44260600D01*
X75132533Y-44352133D01*
X75019172Y-44418064D01*
X74895618Y-44466750D01*
X74763184Y-44497405D01*
X74636401Y-44509576D01*
X74592541Y-44510388D01*
X74464695Y-44503445D01*
X74326468Y-44478510D01*
X74196649Y-44435439D01*
X74075239Y-44374233D01*
X74060653Y-44365308D01*
X73951349Y-44285578D01*
X73855123Y-44191468D01*
X73762503Y-44068406D01*
X73701910Y-43960109D01*
X73646595Y-43825470D01*
X73607085Y-43682405D01*
X73583379Y-43530913D01*
X73575477Y-43370995D01*
X73582770Y-43220786D01*
X73918028Y-43220786D01*
X75131903Y-43220786D01*
X75104899Y-43072221D01*
X75049357Y-42926048D01*
X74966930Y-42799766D01*
X74936960Y-42765761D01*
X74825510Y-42672252D01*
X74698245Y-42613377D01*
X74570187Y-42589999D01*
X74524654Y-42588441D01*
X74392577Y-42602293D01*
X74273113Y-42643851D01*
X74155166Y-42722519D01*
X74112347Y-42763563D01*
X74022185Y-42883147D01*
X73958784Y-43023911D01*
X73924604Y-43168707D01*
X73918028Y-43220786D01*
X73582770Y-43220786D01*
X73583146Y-43213046D01*
X73606151Y-43063066D01*
X73644493Y-42921054D01*
X73698173Y-42787010D01*
X73774880Y-42649439D01*
X73866268Y-42530183D01*
X73972338Y-42429243D01*
X74037609Y-42381079D01*
X74163511Y-42310947D01*
X74282703Y-42267876D01*
X74408746Y-42242941D01*
X74524654Y-42235998D01*
X74656730Y-42245066D01*
G37*
D10*
X85270197Y-83747254D02*
X85270197Y-82947254D01*
X85270197Y-82947254D02*
X85536863Y-83518682D01*
X85536863Y-83518682D02*
X85803530Y-82947254D01*
X85803530Y-82947254D02*
X85803530Y-83747254D01*
X86184483Y-83442492D02*
X86794007Y-83442492D01*
X86489245Y-83747254D02*
X86489245Y-83137730D01*
X45881978Y-61855839D02*
X45929598Y-61903458D01*
X45929598Y-61903458D02*
X45977217Y-62046315D01*
X45977217Y-62046315D02*
X45977217Y-62141553D01*
X45977217Y-62141553D02*
X45929598Y-62284410D01*
X45929598Y-62284410D02*
X45834359Y-62379648D01*
X45834359Y-62379648D02*
X45739121Y-62427267D01*
X45739121Y-62427267D02*
X45548645Y-62474886D01*
X45548645Y-62474886D02*
X45405788Y-62474886D01*
X45405788Y-62474886D02*
X45215312Y-62427267D01*
X45215312Y-62427267D02*
X45120074Y-62379648D01*
X45120074Y-62379648D02*
X45024836Y-62284410D01*
X45024836Y-62284410D02*
X44977217Y-62141553D01*
X44977217Y-62141553D02*
X44977217Y-62046315D01*
X44977217Y-62046315D02*
X45024836Y-61903458D01*
X45024836Y-61903458D02*
X45072455Y-61855839D01*
X45977217Y-61284410D02*
X45929598Y-61379648D01*
X45929598Y-61379648D02*
X45881978Y-61427267D01*
X45881978Y-61427267D02*
X45786740Y-61474886D01*
X45786740Y-61474886D02*
X45501026Y-61474886D01*
X45501026Y-61474886D02*
X45405788Y-61427267D01*
X45405788Y-61427267D02*
X45358169Y-61379648D01*
X45358169Y-61379648D02*
X45310550Y-61284410D01*
X45310550Y-61284410D02*
X45310550Y-61141553D01*
X45310550Y-61141553D02*
X45358169Y-61046315D01*
X45358169Y-61046315D02*
X45405788Y-60998696D01*
X45405788Y-60998696D02*
X45501026Y-60951077D01*
X45501026Y-60951077D02*
X45786740Y-60951077D01*
X45786740Y-60951077D02*
X45881978Y-60998696D01*
X45881978Y-60998696D02*
X45929598Y-61046315D01*
X45929598Y-61046315D02*
X45977217Y-61141553D01*
X45977217Y-61141553D02*
X45977217Y-61284410D01*
X45310550Y-60522505D02*
X45977217Y-60522505D01*
X45405788Y-60522505D02*
X45358169Y-60474886D01*
X45358169Y-60474886D02*
X45310550Y-60379648D01*
X45310550Y-60379648D02*
X45310550Y-60236791D01*
X45310550Y-60236791D02*
X45358169Y-60141553D01*
X45358169Y-60141553D02*
X45453407Y-60093934D01*
X45453407Y-60093934D02*
X45977217Y-60093934D01*
X45310550Y-59760600D02*
X45310550Y-59379648D01*
X44977217Y-59617743D02*
X45834359Y-59617743D01*
X45834359Y-59617743D02*
X45929598Y-59570124D01*
X45929598Y-59570124D02*
X45977217Y-59474886D01*
X45977217Y-59474886D02*
X45977217Y-59379648D01*
X45977217Y-59046314D02*
X45310550Y-59046314D01*
X45501026Y-59046314D02*
X45405788Y-58998695D01*
X45405788Y-58998695D02*
X45358169Y-58951076D01*
X45358169Y-58951076D02*
X45310550Y-58855838D01*
X45310550Y-58855838D02*
X45310550Y-58760600D01*
X45977217Y-58284409D02*
X45929598Y-58379647D01*
X45929598Y-58379647D02*
X45881978Y-58427266D01*
X45881978Y-58427266D02*
X45786740Y-58474885D01*
X45786740Y-58474885D02*
X45501026Y-58474885D01*
X45501026Y-58474885D02*
X45405788Y-58427266D01*
X45405788Y-58427266D02*
X45358169Y-58379647D01*
X45358169Y-58379647D02*
X45310550Y-58284409D01*
X45310550Y-58284409D02*
X45310550Y-58141552D01*
X45310550Y-58141552D02*
X45358169Y-58046314D01*
X45358169Y-58046314D02*
X45405788Y-57998695D01*
X45405788Y-57998695D02*
X45501026Y-57951076D01*
X45501026Y-57951076D02*
X45786740Y-57951076D01*
X45786740Y-57951076D02*
X45881978Y-57998695D01*
X45881978Y-57998695D02*
X45929598Y-58046314D01*
X45929598Y-58046314D02*
X45977217Y-58141552D01*
X45977217Y-58141552D02*
X45977217Y-58284409D01*
X45977217Y-57379647D02*
X45929598Y-57474885D01*
X45929598Y-57474885D02*
X45834359Y-57522504D01*
X45834359Y-57522504D02*
X44977217Y-57522504D01*
X80655074Y-83466267D02*
X79855074Y-83466267D01*
X79855074Y-83466267D02*
X80426502Y-83199601D01*
X80426502Y-83199601D02*
X79855074Y-82932934D01*
X79855074Y-82932934D02*
X80655074Y-82932934D01*
X80350312Y-82551981D02*
X80350312Y-81942458D01*
X51581426Y-38856636D02*
X52114760Y-39656636D01*
X52114760Y-38856636D02*
X51581426Y-39656636D01*
X52381426Y-39618541D02*
X52495712Y-39656636D01*
X52495712Y-39656636D02*
X52686188Y-39656636D01*
X52686188Y-39656636D02*
X52762379Y-39618541D01*
X52762379Y-39618541D02*
X52800474Y-39580445D01*
X52800474Y-39580445D02*
X52838569Y-39504255D01*
X52838569Y-39504255D02*
X52838569Y-39428064D01*
X52838569Y-39428064D02*
X52800474Y-39351874D01*
X52800474Y-39351874D02*
X52762379Y-39313779D01*
X52762379Y-39313779D02*
X52686188Y-39275683D01*
X52686188Y-39275683D02*
X52533807Y-39237588D01*
X52533807Y-39237588D02*
X52457617Y-39199493D01*
X52457617Y-39199493D02*
X52419522Y-39161398D01*
X52419522Y-39161398D02*
X52381426Y-39085207D01*
X52381426Y-39085207D02*
X52381426Y-39009017D01*
X52381426Y-39009017D02*
X52419522Y-38932826D01*
X52419522Y-38932826D02*
X52457617Y-38894731D01*
X52457617Y-38894731D02*
X52533807Y-38856636D01*
X52533807Y-38856636D02*
X52724284Y-38856636D01*
X52724284Y-38856636D02*
X52838569Y-38894731D01*
X53562379Y-38856636D02*
X53181427Y-38856636D01*
X53181427Y-38856636D02*
X53143331Y-39237588D01*
X53143331Y-39237588D02*
X53181427Y-39199493D01*
X53181427Y-39199493D02*
X53257617Y-39161398D01*
X53257617Y-39161398D02*
X53448093Y-39161398D01*
X53448093Y-39161398D02*
X53524284Y-39199493D01*
X53524284Y-39199493D02*
X53562379Y-39237588D01*
X53562379Y-39237588D02*
X53600474Y-39313779D01*
X53600474Y-39313779D02*
X53600474Y-39504255D01*
X53600474Y-39504255D02*
X53562379Y-39580445D01*
X53562379Y-39580445D02*
X53524284Y-39618541D01*
X53524284Y-39618541D02*
X53448093Y-39656636D01*
X53448093Y-39656636D02*
X53257617Y-39656636D01*
X53257617Y-39656636D02*
X53181427Y-39618541D01*
X53181427Y-39618541D02*
X53143331Y-39580445D01*
X78669693Y-53330273D02*
X78288740Y-53596940D01*
X78669693Y-53787416D02*
X77869693Y-53787416D01*
X77869693Y-53787416D02*
X77869693Y-53482654D01*
X77869693Y-53482654D02*
X77907788Y-53406464D01*
X77907788Y-53406464D02*
X77945883Y-53368369D01*
X77945883Y-53368369D02*
X78022074Y-53330273D01*
X78022074Y-53330273D02*
X78136359Y-53330273D01*
X78136359Y-53330273D02*
X78212550Y-53368369D01*
X78212550Y-53368369D02*
X78250645Y-53406464D01*
X78250645Y-53406464D02*
X78288740Y-53482654D01*
X78288740Y-53482654D02*
X78288740Y-53787416D01*
X77869693Y-53063607D02*
X77869693Y-52568369D01*
X77869693Y-52568369D02*
X78174455Y-52835035D01*
X78174455Y-52835035D02*
X78174455Y-52720750D01*
X78174455Y-52720750D02*
X78212550Y-52644559D01*
X78212550Y-52644559D02*
X78250645Y-52606464D01*
X78250645Y-52606464D02*
X78326836Y-52568369D01*
X78326836Y-52568369D02*
X78517312Y-52568369D01*
X78517312Y-52568369D02*
X78593502Y-52606464D01*
X78593502Y-52606464D02*
X78631598Y-52644559D01*
X78631598Y-52644559D02*
X78669693Y-52720750D01*
X78669693Y-52720750D02*
X78669693Y-52949321D01*
X78669693Y-52949321D02*
X78631598Y-53025512D01*
X78631598Y-53025512D02*
X78593502Y-53063607D01*
X74176665Y-37456636D02*
X73909998Y-37075683D01*
X73719522Y-37456636D02*
X73719522Y-36656636D01*
X73719522Y-36656636D02*
X74024284Y-36656636D01*
X74024284Y-36656636D02*
X74100474Y-36694731D01*
X74100474Y-36694731D02*
X74138569Y-36732826D01*
X74138569Y-36732826D02*
X74176665Y-36809017D01*
X74176665Y-36809017D02*
X74176665Y-36923302D01*
X74176665Y-36923302D02*
X74138569Y-36999493D01*
X74138569Y-36999493D02*
X74100474Y-37037588D01*
X74100474Y-37037588D02*
X74024284Y-37075683D01*
X74024284Y-37075683D02*
X73719522Y-37075683D01*
X74633807Y-36999493D02*
X74557617Y-36961398D01*
X74557617Y-36961398D02*
X74519522Y-36923302D01*
X74519522Y-36923302D02*
X74481426Y-36847112D01*
X74481426Y-36847112D02*
X74481426Y-36809017D01*
X74481426Y-36809017D02*
X74519522Y-36732826D01*
X74519522Y-36732826D02*
X74557617Y-36694731D01*
X74557617Y-36694731D02*
X74633807Y-36656636D01*
X74633807Y-36656636D02*
X74786188Y-36656636D01*
X74786188Y-36656636D02*
X74862379Y-36694731D01*
X74862379Y-36694731D02*
X74900474Y-36732826D01*
X74900474Y-36732826D02*
X74938569Y-36809017D01*
X74938569Y-36809017D02*
X74938569Y-36847112D01*
X74938569Y-36847112D02*
X74900474Y-36923302D01*
X74900474Y-36923302D02*
X74862379Y-36961398D01*
X74862379Y-36961398D02*
X74786188Y-36999493D01*
X74786188Y-36999493D02*
X74633807Y-36999493D01*
X74633807Y-36999493D02*
X74557617Y-37037588D01*
X74557617Y-37037588D02*
X74519522Y-37075683D01*
X74519522Y-37075683D02*
X74481426Y-37151874D01*
X74481426Y-37151874D02*
X74481426Y-37304255D01*
X74481426Y-37304255D02*
X74519522Y-37380445D01*
X74519522Y-37380445D02*
X74557617Y-37418541D01*
X74557617Y-37418541D02*
X74633807Y-37456636D01*
X74633807Y-37456636D02*
X74786188Y-37456636D01*
X74786188Y-37456636D02*
X74862379Y-37418541D01*
X74862379Y-37418541D02*
X74900474Y-37380445D01*
X74900474Y-37380445D02*
X74938569Y-37304255D01*
X74938569Y-37304255D02*
X74938569Y-37151874D01*
X74938569Y-37151874D02*
X74900474Y-37075683D01*
X74900474Y-37075683D02*
X74862379Y-37037588D01*
X74862379Y-37037588D02*
X74786188Y-36999493D01*
X82895712Y-54156636D02*
X82629045Y-53775683D01*
X82438569Y-54156636D02*
X82438569Y-53356636D01*
X82438569Y-53356636D02*
X82743331Y-53356636D01*
X82743331Y-53356636D02*
X82819521Y-53394731D01*
X82819521Y-53394731D02*
X82857616Y-53432826D01*
X82857616Y-53432826D02*
X82895712Y-53509017D01*
X82895712Y-53509017D02*
X82895712Y-53623302D01*
X82895712Y-53623302D02*
X82857616Y-53699493D01*
X82857616Y-53699493D02*
X82819521Y-53737588D01*
X82819521Y-53737588D02*
X82743331Y-53775683D01*
X82743331Y-53775683D02*
X82438569Y-53775683D01*
X83200473Y-53432826D02*
X83238569Y-53394731D01*
X83238569Y-53394731D02*
X83314759Y-53356636D01*
X83314759Y-53356636D02*
X83505235Y-53356636D01*
X83505235Y-53356636D02*
X83581426Y-53394731D01*
X83581426Y-53394731D02*
X83619521Y-53432826D01*
X83619521Y-53432826D02*
X83657616Y-53509017D01*
X83657616Y-53509017D02*
X83657616Y-53585207D01*
X83657616Y-53585207D02*
X83619521Y-53699493D01*
X83619521Y-53699493D02*
X83162378Y-54156636D01*
X83162378Y-54156636D02*
X83657616Y-54156636D01*
X84152855Y-53356636D02*
X84229045Y-53356636D01*
X84229045Y-53356636D02*
X84305236Y-53394731D01*
X84305236Y-53394731D02*
X84343331Y-53432826D01*
X84343331Y-53432826D02*
X84381426Y-53509017D01*
X84381426Y-53509017D02*
X84419521Y-53661398D01*
X84419521Y-53661398D02*
X84419521Y-53851874D01*
X84419521Y-53851874D02*
X84381426Y-54004255D01*
X84381426Y-54004255D02*
X84343331Y-54080445D01*
X84343331Y-54080445D02*
X84305236Y-54118541D01*
X84305236Y-54118541D02*
X84229045Y-54156636D01*
X84229045Y-54156636D02*
X84152855Y-54156636D01*
X84152855Y-54156636D02*
X84076664Y-54118541D01*
X84076664Y-54118541D02*
X84038569Y-54080445D01*
X84038569Y-54080445D02*
X84000474Y-54004255D01*
X84000474Y-54004255D02*
X83962378Y-53851874D01*
X83962378Y-53851874D02*
X83962378Y-53661398D01*
X83962378Y-53661398D02*
X84000474Y-53509017D01*
X84000474Y-53509017D02*
X84038569Y-53432826D01*
X84038569Y-53432826D02*
X84076664Y-53394731D01*
X84076664Y-53394731D02*
X84152855Y-53356636D01*
X46869694Y-82449322D02*
X47669694Y-82182655D01*
X47669694Y-82182655D02*
X46869694Y-81915989D01*
X46869694Y-81763608D02*
X46869694Y-81306465D01*
X47669694Y-81535037D02*
X46869694Y-81535037D01*
X47136360Y-80696941D02*
X47669694Y-80696941D01*
X46831599Y-80887417D02*
X47403027Y-81077894D01*
X47403027Y-81077894D02*
X47403027Y-80582655D01*
X56680327Y-93253037D02*
X57213661Y-94053037D01*
X57213661Y-93253037D02*
X56680327Y-94053037D01*
X57480327Y-94014942D02*
X57594613Y-94053037D01*
X57594613Y-94053037D02*
X57785089Y-94053037D01*
X57785089Y-94053037D02*
X57861280Y-94014942D01*
X57861280Y-94014942D02*
X57899375Y-93976846D01*
X57899375Y-93976846D02*
X57937470Y-93900656D01*
X57937470Y-93900656D02*
X57937470Y-93824465D01*
X57937470Y-93824465D02*
X57899375Y-93748275D01*
X57899375Y-93748275D02*
X57861280Y-93710180D01*
X57861280Y-93710180D02*
X57785089Y-93672084D01*
X57785089Y-93672084D02*
X57632708Y-93633989D01*
X57632708Y-93633989D02*
X57556518Y-93595894D01*
X57556518Y-93595894D02*
X57518423Y-93557799D01*
X57518423Y-93557799D02*
X57480327Y-93481608D01*
X57480327Y-93481608D02*
X57480327Y-93405418D01*
X57480327Y-93405418D02*
X57518423Y-93329227D01*
X57518423Y-93329227D02*
X57556518Y-93291132D01*
X57556518Y-93291132D02*
X57632708Y-93253037D01*
X57632708Y-93253037D02*
X57823185Y-93253037D01*
X57823185Y-93253037D02*
X57937470Y-93291132D01*
X58623185Y-93519703D02*
X58623185Y-94053037D01*
X58432709Y-93214942D02*
X58242232Y-93786370D01*
X58242232Y-93786370D02*
X58737471Y-93786370D01*
X58176665Y-58556636D02*
X57909998Y-58175683D01*
X57719522Y-58556636D02*
X57719522Y-57756636D01*
X57719522Y-57756636D02*
X58024284Y-57756636D01*
X58024284Y-57756636D02*
X58100474Y-57794731D01*
X58100474Y-57794731D02*
X58138569Y-57832826D01*
X58138569Y-57832826D02*
X58176665Y-57909017D01*
X58176665Y-57909017D02*
X58176665Y-58023302D01*
X58176665Y-58023302D02*
X58138569Y-58099493D01*
X58138569Y-58099493D02*
X58100474Y-58137588D01*
X58100474Y-58137588D02*
X58024284Y-58175683D01*
X58024284Y-58175683D02*
X57719522Y-58175683D01*
X58900474Y-57756636D02*
X58519522Y-57756636D01*
X58519522Y-57756636D02*
X58481426Y-58137588D01*
X58481426Y-58137588D02*
X58519522Y-58099493D01*
X58519522Y-58099493D02*
X58595712Y-58061398D01*
X58595712Y-58061398D02*
X58786188Y-58061398D01*
X58786188Y-58061398D02*
X58862379Y-58099493D01*
X58862379Y-58099493D02*
X58900474Y-58137588D01*
X58900474Y-58137588D02*
X58938569Y-58213779D01*
X58938569Y-58213779D02*
X58938569Y-58404255D01*
X58938569Y-58404255D02*
X58900474Y-58480445D01*
X58900474Y-58480445D02*
X58862379Y-58518541D01*
X58862379Y-58518541D02*
X58786188Y-58556636D01*
X58786188Y-58556636D02*
X58595712Y-58556636D01*
X58595712Y-58556636D02*
X58519522Y-58518541D01*
X58519522Y-58518541D02*
X58481426Y-58480445D01*
X62569693Y-35711226D02*
X62188740Y-35977893D01*
X62569693Y-36168369D02*
X61769693Y-36168369D01*
X61769693Y-36168369D02*
X61769693Y-35863607D01*
X61769693Y-35863607D02*
X61807788Y-35787417D01*
X61807788Y-35787417D02*
X61845883Y-35749322D01*
X61845883Y-35749322D02*
X61922074Y-35711226D01*
X61922074Y-35711226D02*
X62036359Y-35711226D01*
X62036359Y-35711226D02*
X62112550Y-35749322D01*
X62112550Y-35749322D02*
X62150645Y-35787417D01*
X62150645Y-35787417D02*
X62188740Y-35863607D01*
X62188740Y-35863607D02*
X62188740Y-36168369D01*
X62569693Y-34949322D02*
X62569693Y-35406465D01*
X62569693Y-35177893D02*
X61769693Y-35177893D01*
X61769693Y-35177893D02*
X61883978Y-35254084D01*
X61883978Y-35254084D02*
X61960169Y-35330274D01*
X61960169Y-35330274D02*
X61998264Y-35406465D01*
X62569693Y-34187417D02*
X62569693Y-34644560D01*
X62569693Y-34415988D02*
X61769693Y-34415988D01*
X61769693Y-34415988D02*
X61883978Y-34492179D01*
X61883978Y-34492179D02*
X61960169Y-34568369D01*
X61960169Y-34568369D02*
X61998264Y-34644560D01*
X57093502Y-61930273D02*
X57131598Y-61968369D01*
X57131598Y-61968369D02*
X57169693Y-62082654D01*
X57169693Y-62082654D02*
X57169693Y-62158845D01*
X57169693Y-62158845D02*
X57131598Y-62273131D01*
X57131598Y-62273131D02*
X57055407Y-62349321D01*
X57055407Y-62349321D02*
X56979217Y-62387416D01*
X56979217Y-62387416D02*
X56826836Y-62425512D01*
X56826836Y-62425512D02*
X56712550Y-62425512D01*
X56712550Y-62425512D02*
X56560169Y-62387416D01*
X56560169Y-62387416D02*
X56483978Y-62349321D01*
X56483978Y-62349321D02*
X56407788Y-62273131D01*
X56407788Y-62273131D02*
X56369693Y-62158845D01*
X56369693Y-62158845D02*
X56369693Y-62082654D01*
X56369693Y-62082654D02*
X56407788Y-61968369D01*
X56407788Y-61968369D02*
X56445883Y-61930273D01*
X56712550Y-61473131D02*
X56674455Y-61549321D01*
X56674455Y-61549321D02*
X56636359Y-61587416D01*
X56636359Y-61587416D02*
X56560169Y-61625512D01*
X56560169Y-61625512D02*
X56522074Y-61625512D01*
X56522074Y-61625512D02*
X56445883Y-61587416D01*
X56445883Y-61587416D02*
X56407788Y-61549321D01*
X56407788Y-61549321D02*
X56369693Y-61473131D01*
X56369693Y-61473131D02*
X56369693Y-61320750D01*
X56369693Y-61320750D02*
X56407788Y-61244559D01*
X56407788Y-61244559D02*
X56445883Y-61206464D01*
X56445883Y-61206464D02*
X56522074Y-61168369D01*
X56522074Y-61168369D02*
X56560169Y-61168369D01*
X56560169Y-61168369D02*
X56636359Y-61206464D01*
X56636359Y-61206464D02*
X56674455Y-61244559D01*
X56674455Y-61244559D02*
X56712550Y-61320750D01*
X56712550Y-61320750D02*
X56712550Y-61473131D01*
X56712550Y-61473131D02*
X56750645Y-61549321D01*
X56750645Y-61549321D02*
X56788740Y-61587416D01*
X56788740Y-61587416D02*
X56864931Y-61625512D01*
X56864931Y-61625512D02*
X57017312Y-61625512D01*
X57017312Y-61625512D02*
X57093502Y-61587416D01*
X57093502Y-61587416D02*
X57131598Y-61549321D01*
X57131598Y-61549321D02*
X57169693Y-61473131D01*
X57169693Y-61473131D02*
X57169693Y-61320750D01*
X57169693Y-61320750D02*
X57131598Y-61244559D01*
X57131598Y-61244559D02*
X57093502Y-61206464D01*
X57093502Y-61206464D02*
X57017312Y-61168369D01*
X57017312Y-61168369D02*
X56864931Y-61168369D01*
X56864931Y-61168369D02*
X56788740Y-61206464D01*
X56788740Y-61206464D02*
X56750645Y-61244559D01*
X56750645Y-61244559D02*
X56712550Y-61320750D01*
X58276665Y-55156636D02*
X58009998Y-54775683D01*
X57819522Y-55156636D02*
X57819522Y-54356636D01*
X57819522Y-54356636D02*
X58124284Y-54356636D01*
X58124284Y-54356636D02*
X58200474Y-54394731D01*
X58200474Y-54394731D02*
X58238569Y-54432826D01*
X58238569Y-54432826D02*
X58276665Y-54509017D01*
X58276665Y-54509017D02*
X58276665Y-54623302D01*
X58276665Y-54623302D02*
X58238569Y-54699493D01*
X58238569Y-54699493D02*
X58200474Y-54737588D01*
X58200474Y-54737588D02*
X58124284Y-54775683D01*
X58124284Y-54775683D02*
X57819522Y-54775683D01*
X58962379Y-54623302D02*
X58962379Y-55156636D01*
X58771903Y-54318541D02*
X58581426Y-54889969D01*
X58581426Y-54889969D02*
X59076665Y-54889969D01*
X79593503Y-75530274D02*
X79631599Y-75568370D01*
X79631599Y-75568370D02*
X79669694Y-75682655D01*
X79669694Y-75682655D02*
X79669694Y-75758846D01*
X79669694Y-75758846D02*
X79631599Y-75873132D01*
X79631599Y-75873132D02*
X79555408Y-75949322D01*
X79555408Y-75949322D02*
X79479218Y-75987417D01*
X79479218Y-75987417D02*
X79326837Y-76025513D01*
X79326837Y-76025513D02*
X79212551Y-76025513D01*
X79212551Y-76025513D02*
X79060170Y-75987417D01*
X79060170Y-75987417D02*
X78983979Y-75949322D01*
X78983979Y-75949322D02*
X78907789Y-75873132D01*
X78907789Y-75873132D02*
X78869694Y-75758846D01*
X78869694Y-75758846D02*
X78869694Y-75682655D01*
X78869694Y-75682655D02*
X78907789Y-75568370D01*
X78907789Y-75568370D02*
X78945884Y-75530274D01*
X79669694Y-74768370D02*
X79669694Y-75225513D01*
X79669694Y-74996941D02*
X78869694Y-74996941D01*
X78869694Y-74996941D02*
X78983979Y-75073132D01*
X78983979Y-75073132D02*
X79060170Y-75149322D01*
X79060170Y-75149322D02*
X79098265Y-75225513D01*
X52895712Y-56056636D02*
X52629045Y-55675683D01*
X52438569Y-56056636D02*
X52438569Y-55256636D01*
X52438569Y-55256636D02*
X52743331Y-55256636D01*
X52743331Y-55256636D02*
X52819521Y-55294731D01*
X52819521Y-55294731D02*
X52857616Y-55332826D01*
X52857616Y-55332826D02*
X52895712Y-55409017D01*
X52895712Y-55409017D02*
X52895712Y-55523302D01*
X52895712Y-55523302D02*
X52857616Y-55599493D01*
X52857616Y-55599493D02*
X52819521Y-55637588D01*
X52819521Y-55637588D02*
X52743331Y-55675683D01*
X52743331Y-55675683D02*
X52438569Y-55675683D01*
X53657616Y-56056636D02*
X53200473Y-56056636D01*
X53429045Y-56056636D02*
X53429045Y-55256636D01*
X53429045Y-55256636D02*
X53352854Y-55370921D01*
X53352854Y-55370921D02*
X53276664Y-55447112D01*
X53276664Y-55447112D02*
X53200473Y-55485207D01*
X54343331Y-55256636D02*
X54190950Y-55256636D01*
X54190950Y-55256636D02*
X54114759Y-55294731D01*
X54114759Y-55294731D02*
X54076664Y-55332826D01*
X54076664Y-55332826D02*
X54000474Y-55447112D01*
X54000474Y-55447112D02*
X53962378Y-55599493D01*
X53962378Y-55599493D02*
X53962378Y-55904255D01*
X53962378Y-55904255D02*
X54000474Y-55980445D01*
X54000474Y-55980445D02*
X54038569Y-56018541D01*
X54038569Y-56018541D02*
X54114759Y-56056636D01*
X54114759Y-56056636D02*
X54267140Y-56056636D01*
X54267140Y-56056636D02*
X54343331Y-56018541D01*
X54343331Y-56018541D02*
X54381426Y-55980445D01*
X54381426Y-55980445D02*
X54419521Y-55904255D01*
X54419521Y-55904255D02*
X54419521Y-55713779D01*
X54419521Y-55713779D02*
X54381426Y-55637588D01*
X54381426Y-55637588D02*
X54343331Y-55599493D01*
X54343331Y-55599493D02*
X54267140Y-55561398D01*
X54267140Y-55561398D02*
X54114759Y-55561398D01*
X54114759Y-55561398D02*
X54038569Y-55599493D01*
X54038569Y-55599493D02*
X54000474Y-55637588D01*
X54000474Y-55637588D02*
X53962378Y-55713779D01*
X83093502Y-56011226D02*
X83131598Y-56049322D01*
X83131598Y-56049322D02*
X83169693Y-56163607D01*
X83169693Y-56163607D02*
X83169693Y-56239798D01*
X83169693Y-56239798D02*
X83131598Y-56354084D01*
X83131598Y-56354084D02*
X83055407Y-56430274D01*
X83055407Y-56430274D02*
X82979217Y-56468369D01*
X82979217Y-56468369D02*
X82826836Y-56506465D01*
X82826836Y-56506465D02*
X82712550Y-56506465D01*
X82712550Y-56506465D02*
X82560169Y-56468369D01*
X82560169Y-56468369D02*
X82483978Y-56430274D01*
X82483978Y-56430274D02*
X82407788Y-56354084D01*
X82407788Y-56354084D02*
X82369693Y-56239798D01*
X82369693Y-56239798D02*
X82369693Y-56163607D01*
X82369693Y-56163607D02*
X82407788Y-56049322D01*
X82407788Y-56049322D02*
X82445883Y-56011226D01*
X83169693Y-55249322D02*
X83169693Y-55706465D01*
X83169693Y-55477893D02*
X82369693Y-55477893D01*
X82369693Y-55477893D02*
X82483978Y-55554084D01*
X82483978Y-55554084D02*
X82560169Y-55630274D01*
X82560169Y-55630274D02*
X82598264Y-55706465D01*
X82445883Y-54944560D02*
X82407788Y-54906464D01*
X82407788Y-54906464D02*
X82369693Y-54830274D01*
X82369693Y-54830274D02*
X82369693Y-54639798D01*
X82369693Y-54639798D02*
X82407788Y-54563607D01*
X82407788Y-54563607D02*
X82445883Y-54525512D01*
X82445883Y-54525512D02*
X82522074Y-54487417D01*
X82522074Y-54487417D02*
X82598264Y-54487417D01*
X82598264Y-54487417D02*
X82712550Y-54525512D01*
X82712550Y-54525512D02*
X83169693Y-54982655D01*
X83169693Y-54982655D02*
X83169693Y-54487417D01*
X77986188Y-36337588D02*
X78100474Y-36375683D01*
X78100474Y-36375683D02*
X78138569Y-36413779D01*
X78138569Y-36413779D02*
X78176665Y-36489969D01*
X78176665Y-36489969D02*
X78176665Y-36604255D01*
X78176665Y-36604255D02*
X78138569Y-36680445D01*
X78138569Y-36680445D02*
X78100474Y-36718541D01*
X78100474Y-36718541D02*
X78024284Y-36756636D01*
X78024284Y-36756636D02*
X77719522Y-36756636D01*
X77719522Y-36756636D02*
X77719522Y-35956636D01*
X77719522Y-35956636D02*
X77986188Y-35956636D01*
X77986188Y-35956636D02*
X78062379Y-35994731D01*
X78062379Y-35994731D02*
X78100474Y-36032826D01*
X78100474Y-36032826D02*
X78138569Y-36109017D01*
X78138569Y-36109017D02*
X78138569Y-36185207D01*
X78138569Y-36185207D02*
X78100474Y-36261398D01*
X78100474Y-36261398D02*
X78062379Y-36299493D01*
X78062379Y-36299493D02*
X77986188Y-36337588D01*
X77986188Y-36337588D02*
X77719522Y-36337588D01*
X78519522Y-35956636D02*
X78519522Y-36604255D01*
X78519522Y-36604255D02*
X78557617Y-36680445D01*
X78557617Y-36680445D02*
X78595712Y-36718541D01*
X78595712Y-36718541D02*
X78671903Y-36756636D01*
X78671903Y-36756636D02*
X78824284Y-36756636D01*
X78824284Y-36756636D02*
X78900474Y-36718541D01*
X78900474Y-36718541D02*
X78938569Y-36680445D01*
X78938569Y-36680445D02*
X78976665Y-36604255D01*
X78976665Y-36604255D02*
X78976665Y-35956636D01*
X79281426Y-35956636D02*
X79814760Y-35956636D01*
X79814760Y-35956636D02*
X79281426Y-36756636D01*
X79281426Y-36756636D02*
X79814760Y-36756636D01*
X80538569Y-36756636D02*
X80081426Y-36756636D01*
X80309998Y-36756636D02*
X80309998Y-35956636D01*
X80309998Y-35956636D02*
X80233807Y-36070921D01*
X80233807Y-36070921D02*
X80157617Y-36147112D01*
X80157617Y-36147112D02*
X80081426Y-36185207D01*
X85669693Y-87525512D02*
X86469693Y-86992178D01*
X85669693Y-86992178D02*
X86469693Y-87525512D01*
X86431598Y-86725512D02*
X86469693Y-86611226D01*
X86469693Y-86611226D02*
X86469693Y-86420750D01*
X86469693Y-86420750D02*
X86431598Y-86344559D01*
X86431598Y-86344559D02*
X86393502Y-86306464D01*
X86393502Y-86306464D02*
X86317312Y-86268369D01*
X86317312Y-86268369D02*
X86241121Y-86268369D01*
X86241121Y-86268369D02*
X86164931Y-86306464D01*
X86164931Y-86306464D02*
X86126836Y-86344559D01*
X86126836Y-86344559D02*
X86088740Y-86420750D01*
X86088740Y-86420750D02*
X86050645Y-86573131D01*
X86050645Y-86573131D02*
X86012550Y-86649321D01*
X86012550Y-86649321D02*
X85974455Y-86687416D01*
X85974455Y-86687416D02*
X85898264Y-86725512D01*
X85898264Y-86725512D02*
X85822074Y-86725512D01*
X85822074Y-86725512D02*
X85745883Y-86687416D01*
X85745883Y-86687416D02*
X85707788Y-86649321D01*
X85707788Y-86649321D02*
X85669693Y-86573131D01*
X85669693Y-86573131D02*
X85669693Y-86382654D01*
X85669693Y-86382654D02*
X85707788Y-86268369D01*
X85669693Y-86001702D02*
X85669693Y-85506464D01*
X85669693Y-85506464D02*
X85974455Y-85773130D01*
X85974455Y-85773130D02*
X85974455Y-85658845D01*
X85974455Y-85658845D02*
X86012550Y-85582654D01*
X86012550Y-85582654D02*
X86050645Y-85544559D01*
X86050645Y-85544559D02*
X86126836Y-85506464D01*
X86126836Y-85506464D02*
X86317312Y-85506464D01*
X86317312Y-85506464D02*
X86393502Y-85544559D01*
X86393502Y-85544559D02*
X86431598Y-85582654D01*
X86431598Y-85582654D02*
X86469693Y-85658845D01*
X86469693Y-85658845D02*
X86469693Y-85887416D01*
X86469693Y-85887416D02*
X86431598Y-85963607D01*
X86431598Y-85963607D02*
X86393502Y-86001702D01*
X77676666Y-78580446D02*
X77638570Y-78618542D01*
X77638570Y-78618542D02*
X77524285Y-78656637D01*
X77524285Y-78656637D02*
X77448094Y-78656637D01*
X77448094Y-78656637D02*
X77333808Y-78618542D01*
X77333808Y-78618542D02*
X77257618Y-78542351D01*
X77257618Y-78542351D02*
X77219523Y-78466161D01*
X77219523Y-78466161D02*
X77181427Y-78313780D01*
X77181427Y-78313780D02*
X77181427Y-78199494D01*
X77181427Y-78199494D02*
X77219523Y-78047113D01*
X77219523Y-78047113D02*
X77257618Y-77970922D01*
X77257618Y-77970922D02*
X77333808Y-77894732D01*
X77333808Y-77894732D02*
X77448094Y-77856637D01*
X77448094Y-77856637D02*
X77524285Y-77856637D01*
X77524285Y-77856637D02*
X77638570Y-77894732D01*
X77638570Y-77894732D02*
X77676666Y-77932827D01*
X78362380Y-77856637D02*
X78209999Y-77856637D01*
X78209999Y-77856637D02*
X78133808Y-77894732D01*
X78133808Y-77894732D02*
X78095713Y-77932827D01*
X78095713Y-77932827D02*
X78019523Y-78047113D01*
X78019523Y-78047113D02*
X77981427Y-78199494D01*
X77981427Y-78199494D02*
X77981427Y-78504256D01*
X77981427Y-78504256D02*
X78019523Y-78580446D01*
X78019523Y-78580446D02*
X78057618Y-78618542D01*
X78057618Y-78618542D02*
X78133808Y-78656637D01*
X78133808Y-78656637D02*
X78286189Y-78656637D01*
X78286189Y-78656637D02*
X78362380Y-78618542D01*
X78362380Y-78618542D02*
X78400475Y-78580446D01*
X78400475Y-78580446D02*
X78438570Y-78504256D01*
X78438570Y-78504256D02*
X78438570Y-78313780D01*
X78438570Y-78313780D02*
X78400475Y-78237589D01*
X78400475Y-78237589D02*
X78362380Y-78199494D01*
X78362380Y-78199494D02*
X78286189Y-78161399D01*
X78286189Y-78161399D02*
X78133808Y-78161399D01*
X78133808Y-78161399D02*
X78057618Y-78199494D01*
X78057618Y-78199494D02*
X78019523Y-78237589D01*
X78019523Y-78237589D02*
X77981427Y-78313780D01*
X47119522Y-68756636D02*
X47119522Y-67956636D01*
X47119522Y-67956636D02*
X47309998Y-67956636D01*
X47309998Y-67956636D02*
X47424284Y-67994731D01*
X47424284Y-67994731D02*
X47500474Y-68070921D01*
X47500474Y-68070921D02*
X47538569Y-68147112D01*
X47538569Y-68147112D02*
X47576665Y-68299493D01*
X47576665Y-68299493D02*
X47576665Y-68413779D01*
X47576665Y-68413779D02*
X47538569Y-68566160D01*
X47538569Y-68566160D02*
X47500474Y-68642350D01*
X47500474Y-68642350D02*
X47424284Y-68718541D01*
X47424284Y-68718541D02*
X47309998Y-68756636D01*
X47309998Y-68756636D02*
X47119522Y-68756636D01*
X47919522Y-68756636D02*
X47919522Y-67956636D01*
X47919522Y-67956636D02*
X48109998Y-67956636D01*
X48109998Y-67956636D02*
X48224284Y-67994731D01*
X48224284Y-67994731D02*
X48300474Y-68070921D01*
X48300474Y-68070921D02*
X48338569Y-68147112D01*
X48338569Y-68147112D02*
X48376665Y-68299493D01*
X48376665Y-68299493D02*
X48376665Y-68413779D01*
X48376665Y-68413779D02*
X48338569Y-68566160D01*
X48338569Y-68566160D02*
X48300474Y-68642350D01*
X48300474Y-68642350D02*
X48224284Y-68718541D01*
X48224284Y-68718541D02*
X48109998Y-68756636D01*
X48109998Y-68756636D02*
X47919522Y-68756636D01*
X49062379Y-68223302D02*
X49062379Y-68756636D01*
X48871903Y-67918541D02*
X48681426Y-68489969D01*
X48681426Y-68489969D02*
X49176665Y-68489969D01*
X60156518Y-73253037D02*
X60423185Y-74053037D01*
X60423185Y-74053037D02*
X60689851Y-73253037D01*
X60842232Y-73253037D02*
X61299375Y-73253037D01*
X61070803Y-74053037D02*
X61070803Y-73253037D01*
X61908899Y-73253037D02*
X61756518Y-73253037D01*
X61756518Y-73253037D02*
X61680327Y-73291132D01*
X61680327Y-73291132D02*
X61642232Y-73329227D01*
X61642232Y-73329227D02*
X61566042Y-73443513D01*
X61566042Y-73443513D02*
X61527946Y-73595894D01*
X61527946Y-73595894D02*
X61527946Y-73900656D01*
X61527946Y-73900656D02*
X61566042Y-73976846D01*
X61566042Y-73976846D02*
X61604137Y-74014942D01*
X61604137Y-74014942D02*
X61680327Y-74053037D01*
X61680327Y-74053037D02*
X61832708Y-74053037D01*
X61832708Y-74053037D02*
X61908899Y-74014942D01*
X61908899Y-74014942D02*
X61946994Y-73976846D01*
X61946994Y-73976846D02*
X61985089Y-73900656D01*
X61985089Y-73900656D02*
X61985089Y-73710180D01*
X61985089Y-73710180D02*
X61946994Y-73633989D01*
X61946994Y-73633989D02*
X61908899Y-73595894D01*
X61908899Y-73595894D02*
X61832708Y-73557799D01*
X61832708Y-73557799D02*
X61680327Y-73557799D01*
X61680327Y-73557799D02*
X61604137Y-73595894D01*
X61604137Y-73595894D02*
X61566042Y-73633989D01*
X61566042Y-73633989D02*
X61527946Y-73710180D01*
X45981426Y-64856636D02*
X46514760Y-65656636D01*
X46514760Y-64856636D02*
X45981426Y-65656636D01*
X46781426Y-65618541D02*
X46895712Y-65656636D01*
X46895712Y-65656636D02*
X47086188Y-65656636D01*
X47086188Y-65656636D02*
X47162379Y-65618541D01*
X47162379Y-65618541D02*
X47200474Y-65580445D01*
X47200474Y-65580445D02*
X47238569Y-65504255D01*
X47238569Y-65504255D02*
X47238569Y-65428064D01*
X47238569Y-65428064D02*
X47200474Y-65351874D01*
X47200474Y-65351874D02*
X47162379Y-65313779D01*
X47162379Y-65313779D02*
X47086188Y-65275683D01*
X47086188Y-65275683D02*
X46933807Y-65237588D01*
X46933807Y-65237588D02*
X46857617Y-65199493D01*
X46857617Y-65199493D02*
X46819522Y-65161398D01*
X46819522Y-65161398D02*
X46781426Y-65085207D01*
X46781426Y-65085207D02*
X46781426Y-65009017D01*
X46781426Y-65009017D02*
X46819522Y-64932826D01*
X46819522Y-64932826D02*
X46857617Y-64894731D01*
X46857617Y-64894731D02*
X46933807Y-64856636D01*
X46933807Y-64856636D02*
X47124284Y-64856636D01*
X47124284Y-64856636D02*
X47238569Y-64894731D01*
X47543331Y-64932826D02*
X47581427Y-64894731D01*
X47581427Y-64894731D02*
X47657617Y-64856636D01*
X47657617Y-64856636D02*
X47848093Y-64856636D01*
X47848093Y-64856636D02*
X47924284Y-64894731D01*
X47924284Y-64894731D02*
X47962379Y-64932826D01*
X47962379Y-64932826D02*
X48000474Y-65009017D01*
X48000474Y-65009017D02*
X48000474Y-65085207D01*
X48000474Y-65085207D02*
X47962379Y-65199493D01*
X47962379Y-65199493D02*
X47505236Y-65656636D01*
X47505236Y-65656636D02*
X48000474Y-65656636D01*
X57093502Y-54411226D02*
X57131598Y-54449322D01*
X57131598Y-54449322D02*
X57169693Y-54563607D01*
X57169693Y-54563607D02*
X57169693Y-54639798D01*
X57169693Y-54639798D02*
X57131598Y-54754084D01*
X57131598Y-54754084D02*
X57055407Y-54830274D01*
X57055407Y-54830274D02*
X56979217Y-54868369D01*
X56979217Y-54868369D02*
X56826836Y-54906465D01*
X56826836Y-54906465D02*
X56712550Y-54906465D01*
X56712550Y-54906465D02*
X56560169Y-54868369D01*
X56560169Y-54868369D02*
X56483978Y-54830274D01*
X56483978Y-54830274D02*
X56407788Y-54754084D01*
X56407788Y-54754084D02*
X56369693Y-54639798D01*
X56369693Y-54639798D02*
X56369693Y-54563607D01*
X56369693Y-54563607D02*
X56407788Y-54449322D01*
X56407788Y-54449322D02*
X56445883Y-54411226D01*
X57169693Y-53649322D02*
X57169693Y-54106465D01*
X57169693Y-53877893D02*
X56369693Y-53877893D01*
X56369693Y-53877893D02*
X56483978Y-53954084D01*
X56483978Y-53954084D02*
X56560169Y-54030274D01*
X56560169Y-54030274D02*
X56598264Y-54106465D01*
X56369693Y-53382655D02*
X56369693Y-52887417D01*
X56369693Y-52887417D02*
X56674455Y-53154083D01*
X56674455Y-53154083D02*
X56674455Y-53039798D01*
X56674455Y-53039798D02*
X56712550Y-52963607D01*
X56712550Y-52963607D02*
X56750645Y-52925512D01*
X56750645Y-52925512D02*
X56826836Y-52887417D01*
X56826836Y-52887417D02*
X57017312Y-52887417D01*
X57017312Y-52887417D02*
X57093502Y-52925512D01*
X57093502Y-52925512D02*
X57131598Y-52963607D01*
X57131598Y-52963607D02*
X57169693Y-53039798D01*
X57169693Y-53039798D02*
X57169693Y-53268369D01*
X57169693Y-53268369D02*
X57131598Y-53344560D01*
X57131598Y-53344560D02*
X57093502Y-53382655D01*
X54969693Y-47411226D02*
X54588740Y-47677893D01*
X54969693Y-47868369D02*
X54169693Y-47868369D01*
X54169693Y-47868369D02*
X54169693Y-47563607D01*
X54169693Y-47563607D02*
X54207788Y-47487417D01*
X54207788Y-47487417D02*
X54245883Y-47449322D01*
X54245883Y-47449322D02*
X54322074Y-47411226D01*
X54322074Y-47411226D02*
X54436359Y-47411226D01*
X54436359Y-47411226D02*
X54512550Y-47449322D01*
X54512550Y-47449322D02*
X54550645Y-47487417D01*
X54550645Y-47487417D02*
X54588740Y-47563607D01*
X54588740Y-47563607D02*
X54588740Y-47868369D01*
X54969693Y-46649322D02*
X54969693Y-47106465D01*
X54969693Y-46877893D02*
X54169693Y-46877893D01*
X54169693Y-46877893D02*
X54283978Y-46954084D01*
X54283978Y-46954084D02*
X54360169Y-47030274D01*
X54360169Y-47030274D02*
X54398264Y-47106465D01*
X54436359Y-45963607D02*
X54969693Y-45963607D01*
X54131598Y-46154083D02*
X54703026Y-46344560D01*
X54703026Y-46344560D02*
X54703026Y-45849321D01*
X54038773Y-72339523D02*
X53772106Y-71958570D01*
X53581630Y-72339523D02*
X53581630Y-71539523D01*
X53581630Y-71539523D02*
X53886392Y-71539523D01*
X53886392Y-71539523D02*
X53962582Y-71577618D01*
X53962582Y-71577618D02*
X54000677Y-71615713D01*
X54000677Y-71615713D02*
X54038773Y-71691904D01*
X54038773Y-71691904D02*
X54038773Y-71806189D01*
X54038773Y-71806189D02*
X54000677Y-71882380D01*
X54000677Y-71882380D02*
X53962582Y-71920475D01*
X53962582Y-71920475D02*
X53886392Y-71958570D01*
X53886392Y-71958570D02*
X53581630Y-71958570D01*
X54305439Y-71539523D02*
X54800677Y-71539523D01*
X54800677Y-71539523D02*
X54534011Y-71844285D01*
X54534011Y-71844285D02*
X54648296Y-71844285D01*
X54648296Y-71844285D02*
X54724487Y-71882380D01*
X54724487Y-71882380D02*
X54762582Y-71920475D01*
X54762582Y-71920475D02*
X54800677Y-71996666D01*
X54800677Y-71996666D02*
X54800677Y-72187142D01*
X54800677Y-72187142D02*
X54762582Y-72263332D01*
X54762582Y-72263332D02*
X54724487Y-72301428D01*
X54724487Y-72301428D02*
X54648296Y-72339523D01*
X54648296Y-72339523D02*
X54419725Y-72339523D01*
X54419725Y-72339523D02*
X54343534Y-72301428D01*
X54343534Y-72301428D02*
X54305439Y-72263332D01*
X55562582Y-72339523D02*
X55105439Y-72339523D01*
X55334011Y-72339523D02*
X55334011Y-71539523D01*
X55334011Y-71539523D02*
X55257820Y-71653808D01*
X55257820Y-71653808D02*
X55181630Y-71729999D01*
X55181630Y-71729999D02*
X55105439Y-71768094D01*
X56993502Y-57930273D02*
X57031598Y-57968369D01*
X57031598Y-57968369D02*
X57069693Y-58082654D01*
X57069693Y-58082654D02*
X57069693Y-58158845D01*
X57069693Y-58158845D02*
X57031598Y-58273131D01*
X57031598Y-58273131D02*
X56955407Y-58349321D01*
X56955407Y-58349321D02*
X56879217Y-58387416D01*
X56879217Y-58387416D02*
X56726836Y-58425512D01*
X56726836Y-58425512D02*
X56612550Y-58425512D01*
X56612550Y-58425512D02*
X56460169Y-58387416D01*
X56460169Y-58387416D02*
X56383978Y-58349321D01*
X56383978Y-58349321D02*
X56307788Y-58273131D01*
X56307788Y-58273131D02*
X56269693Y-58158845D01*
X56269693Y-58158845D02*
X56269693Y-58082654D01*
X56269693Y-58082654D02*
X56307788Y-57968369D01*
X56307788Y-57968369D02*
X56345883Y-57930273D01*
X56269693Y-57206464D02*
X56269693Y-57587416D01*
X56269693Y-57587416D02*
X56650645Y-57625512D01*
X56650645Y-57625512D02*
X56612550Y-57587416D01*
X56612550Y-57587416D02*
X56574455Y-57511226D01*
X56574455Y-57511226D02*
X56574455Y-57320750D01*
X56574455Y-57320750D02*
X56612550Y-57244559D01*
X56612550Y-57244559D02*
X56650645Y-57206464D01*
X56650645Y-57206464D02*
X56726836Y-57168369D01*
X56726836Y-57168369D02*
X56917312Y-57168369D01*
X56917312Y-57168369D02*
X56993502Y-57206464D01*
X56993502Y-57206464D02*
X57031598Y-57244559D01*
X57031598Y-57244559D02*
X57069693Y-57320750D01*
X57069693Y-57320750D02*
X57069693Y-57511226D01*
X57069693Y-57511226D02*
X57031598Y-57587416D01*
X57031598Y-57587416D02*
X56993502Y-57625512D01*
X60969694Y-75911227D02*
X60588741Y-76177894D01*
X60969694Y-76368370D02*
X60169694Y-76368370D01*
X60169694Y-76368370D02*
X60169694Y-76063608D01*
X60169694Y-76063608D02*
X60207789Y-75987418D01*
X60207789Y-75987418D02*
X60245884Y-75949323D01*
X60245884Y-75949323D02*
X60322075Y-75911227D01*
X60322075Y-75911227D02*
X60436360Y-75911227D01*
X60436360Y-75911227D02*
X60512551Y-75949323D01*
X60512551Y-75949323D02*
X60550646Y-75987418D01*
X60550646Y-75987418D02*
X60588741Y-76063608D01*
X60588741Y-76063608D02*
X60588741Y-76368370D01*
X60245884Y-75606466D02*
X60207789Y-75568370D01*
X60207789Y-75568370D02*
X60169694Y-75492180D01*
X60169694Y-75492180D02*
X60169694Y-75301704D01*
X60169694Y-75301704D02*
X60207789Y-75225513D01*
X60207789Y-75225513D02*
X60245884Y-75187418D01*
X60245884Y-75187418D02*
X60322075Y-75149323D01*
X60322075Y-75149323D02*
X60398265Y-75149323D01*
X60398265Y-75149323D02*
X60512551Y-75187418D01*
X60512551Y-75187418D02*
X60969694Y-75644561D01*
X60969694Y-75644561D02*
X60969694Y-75149323D01*
X60436360Y-74463608D02*
X60969694Y-74463608D01*
X60131599Y-74654084D02*
X60703027Y-74844561D01*
X60703027Y-74844561D02*
X60703027Y-74349322D01*
X64469693Y-35430273D02*
X64088740Y-35696940D01*
X64469693Y-35887416D02*
X63669693Y-35887416D01*
X63669693Y-35887416D02*
X63669693Y-35582654D01*
X63669693Y-35582654D02*
X63707788Y-35506464D01*
X63707788Y-35506464D02*
X63745883Y-35468369D01*
X63745883Y-35468369D02*
X63822074Y-35430273D01*
X63822074Y-35430273D02*
X63936359Y-35430273D01*
X63936359Y-35430273D02*
X64012550Y-35468369D01*
X64012550Y-35468369D02*
X64050645Y-35506464D01*
X64050645Y-35506464D02*
X64088740Y-35582654D01*
X64088740Y-35582654D02*
X64088740Y-35887416D01*
X63669693Y-35163607D02*
X63669693Y-34630273D01*
X63669693Y-34630273D02*
X64469693Y-34973131D01*
X85369693Y-53649321D02*
X86169693Y-53382654D01*
X86169693Y-53382654D02*
X85369693Y-53115988D01*
X85369693Y-52963607D02*
X85369693Y-52506464D01*
X86169693Y-52735036D02*
X85369693Y-52735036D01*
X86169693Y-51820750D02*
X86169693Y-52277893D01*
X86169693Y-52049321D02*
X85369693Y-52049321D01*
X85369693Y-52049321D02*
X85483978Y-52125512D01*
X85483978Y-52125512D02*
X85560169Y-52201702D01*
X85560169Y-52201702D02*
X85598264Y-52277893D01*
X45981427Y-72856637D02*
X46248094Y-73656637D01*
X46248094Y-73656637D02*
X46514760Y-72856637D01*
X46781427Y-73656637D02*
X46781427Y-72856637D01*
X46781427Y-72856637D02*
X46971903Y-72856637D01*
X46971903Y-72856637D02*
X47086189Y-72894732D01*
X47086189Y-72894732D02*
X47162379Y-72970922D01*
X47162379Y-72970922D02*
X47200474Y-73047113D01*
X47200474Y-73047113D02*
X47238570Y-73199494D01*
X47238570Y-73199494D02*
X47238570Y-73313780D01*
X47238570Y-73313780D02*
X47200474Y-73466161D01*
X47200474Y-73466161D02*
X47162379Y-73542351D01*
X47162379Y-73542351D02*
X47086189Y-73618542D01*
X47086189Y-73618542D02*
X46971903Y-73656637D01*
X46971903Y-73656637D02*
X46781427Y-73656637D01*
X48000474Y-73656637D02*
X47543331Y-73656637D01*
X47771903Y-73656637D02*
X47771903Y-72856637D01*
X47771903Y-72856637D02*
X47695712Y-72970922D01*
X47695712Y-72970922D02*
X47619522Y-73047113D01*
X47619522Y-73047113D02*
X47543331Y-73085208D01*
X48762379Y-73656637D02*
X48305236Y-73656637D01*
X48533808Y-73656637D02*
X48533808Y-72856637D01*
X48533808Y-72856637D02*
X48457617Y-72970922D01*
X48457617Y-72970922D02*
X48381427Y-73047113D01*
X48381427Y-73047113D02*
X48305236Y-73085208D01*
X64355862Y-87388637D02*
X64889196Y-88188637D01*
X64889196Y-87388637D02*
X64355862Y-88188637D01*
X65155862Y-88150542D02*
X65270148Y-88188637D01*
X65270148Y-88188637D02*
X65460624Y-88188637D01*
X65460624Y-88188637D02*
X65536815Y-88150542D01*
X65536815Y-88150542D02*
X65574910Y-88112446D01*
X65574910Y-88112446D02*
X65613005Y-88036256D01*
X65613005Y-88036256D02*
X65613005Y-87960065D01*
X65613005Y-87960065D02*
X65574910Y-87883875D01*
X65574910Y-87883875D02*
X65536815Y-87845780D01*
X65536815Y-87845780D02*
X65460624Y-87807684D01*
X65460624Y-87807684D02*
X65308243Y-87769589D01*
X65308243Y-87769589D02*
X65232053Y-87731494D01*
X65232053Y-87731494D02*
X65193958Y-87693399D01*
X65193958Y-87693399D02*
X65155862Y-87617208D01*
X65155862Y-87617208D02*
X65155862Y-87541018D01*
X65155862Y-87541018D02*
X65193958Y-87464827D01*
X65193958Y-87464827D02*
X65232053Y-87426732D01*
X65232053Y-87426732D02*
X65308243Y-87388637D01*
X65308243Y-87388637D02*
X65498720Y-87388637D01*
X65498720Y-87388637D02*
X65613005Y-87426732D01*
X66070148Y-87731494D02*
X65993958Y-87693399D01*
X65993958Y-87693399D02*
X65955863Y-87655303D01*
X65955863Y-87655303D02*
X65917767Y-87579113D01*
X65917767Y-87579113D02*
X65917767Y-87541018D01*
X65917767Y-87541018D02*
X65955863Y-87464827D01*
X65955863Y-87464827D02*
X65993958Y-87426732D01*
X65993958Y-87426732D02*
X66070148Y-87388637D01*
X66070148Y-87388637D02*
X66222529Y-87388637D01*
X66222529Y-87388637D02*
X66298720Y-87426732D01*
X66298720Y-87426732D02*
X66336815Y-87464827D01*
X66336815Y-87464827D02*
X66374910Y-87541018D01*
X66374910Y-87541018D02*
X66374910Y-87579113D01*
X66374910Y-87579113D02*
X66336815Y-87655303D01*
X66336815Y-87655303D02*
X66298720Y-87693399D01*
X66298720Y-87693399D02*
X66222529Y-87731494D01*
X66222529Y-87731494D02*
X66070148Y-87731494D01*
X66070148Y-87731494D02*
X65993958Y-87769589D01*
X65993958Y-87769589D02*
X65955863Y-87807684D01*
X65955863Y-87807684D02*
X65917767Y-87883875D01*
X65917767Y-87883875D02*
X65917767Y-88036256D01*
X65917767Y-88036256D02*
X65955863Y-88112446D01*
X65955863Y-88112446D02*
X65993958Y-88150542D01*
X65993958Y-88150542D02*
X66070148Y-88188637D01*
X66070148Y-88188637D02*
X66222529Y-88188637D01*
X66222529Y-88188637D02*
X66298720Y-88150542D01*
X66298720Y-88150542D02*
X66336815Y-88112446D01*
X66336815Y-88112446D02*
X66374910Y-88036256D01*
X66374910Y-88036256D02*
X66374910Y-87883875D01*
X66374910Y-87883875D02*
X66336815Y-87807684D01*
X66336815Y-87807684D02*
X66298720Y-87769589D01*
X66298720Y-87769589D02*
X66222529Y-87731494D01*
X52369693Y-54411226D02*
X51988740Y-54677893D01*
X52369693Y-54868369D02*
X51569693Y-54868369D01*
X51569693Y-54868369D02*
X51569693Y-54563607D01*
X51569693Y-54563607D02*
X51607788Y-54487417D01*
X51607788Y-54487417D02*
X51645883Y-54449322D01*
X51645883Y-54449322D02*
X51722074Y-54411226D01*
X51722074Y-54411226D02*
X51836359Y-54411226D01*
X51836359Y-54411226D02*
X51912550Y-54449322D01*
X51912550Y-54449322D02*
X51950645Y-54487417D01*
X51950645Y-54487417D02*
X51988740Y-54563607D01*
X51988740Y-54563607D02*
X51988740Y-54868369D01*
X51645883Y-54106465D02*
X51607788Y-54068369D01*
X51607788Y-54068369D02*
X51569693Y-53992179D01*
X51569693Y-53992179D02*
X51569693Y-53801703D01*
X51569693Y-53801703D02*
X51607788Y-53725512D01*
X51607788Y-53725512D02*
X51645883Y-53687417D01*
X51645883Y-53687417D02*
X51722074Y-53649322D01*
X51722074Y-53649322D02*
X51798264Y-53649322D01*
X51798264Y-53649322D02*
X51912550Y-53687417D01*
X51912550Y-53687417D02*
X52369693Y-54144560D01*
X52369693Y-54144560D02*
X52369693Y-53649322D01*
X51645883Y-53344560D02*
X51607788Y-53306464D01*
X51607788Y-53306464D02*
X51569693Y-53230274D01*
X51569693Y-53230274D02*
X51569693Y-53039798D01*
X51569693Y-53039798D02*
X51607788Y-52963607D01*
X51607788Y-52963607D02*
X51645883Y-52925512D01*
X51645883Y-52925512D02*
X51722074Y-52887417D01*
X51722074Y-52887417D02*
X51798264Y-52887417D01*
X51798264Y-52887417D02*
X51912550Y-52925512D01*
X51912550Y-52925512D02*
X52369693Y-53382655D01*
X52369693Y-53382655D02*
X52369693Y-52887417D01*
X71669694Y-79011227D02*
X71288741Y-79277894D01*
X71669694Y-79468370D02*
X70869694Y-79468370D01*
X70869694Y-79468370D02*
X70869694Y-79163608D01*
X70869694Y-79163608D02*
X70907789Y-79087418D01*
X70907789Y-79087418D02*
X70945884Y-79049323D01*
X70945884Y-79049323D02*
X71022075Y-79011227D01*
X71022075Y-79011227D02*
X71136360Y-79011227D01*
X71136360Y-79011227D02*
X71212551Y-79049323D01*
X71212551Y-79049323D02*
X71250646Y-79087418D01*
X71250646Y-79087418D02*
X71288741Y-79163608D01*
X71288741Y-79163608D02*
X71288741Y-79468370D01*
X71669694Y-78249323D02*
X71669694Y-78706466D01*
X71669694Y-78477894D02*
X70869694Y-78477894D01*
X70869694Y-78477894D02*
X70983979Y-78554085D01*
X70983979Y-78554085D02*
X71060170Y-78630275D01*
X71060170Y-78630275D02*
X71098265Y-78706466D01*
X71212551Y-77792180D02*
X71174456Y-77868370D01*
X71174456Y-77868370D02*
X71136360Y-77906465D01*
X71136360Y-77906465D02*
X71060170Y-77944561D01*
X71060170Y-77944561D02*
X71022075Y-77944561D01*
X71022075Y-77944561D02*
X70945884Y-77906465D01*
X70945884Y-77906465D02*
X70907789Y-77868370D01*
X70907789Y-77868370D02*
X70869694Y-77792180D01*
X70869694Y-77792180D02*
X70869694Y-77639799D01*
X70869694Y-77639799D02*
X70907789Y-77563608D01*
X70907789Y-77563608D02*
X70945884Y-77525513D01*
X70945884Y-77525513D02*
X71022075Y-77487418D01*
X71022075Y-77487418D02*
X71060170Y-77487418D01*
X71060170Y-77487418D02*
X71136360Y-77525513D01*
X71136360Y-77525513D02*
X71174456Y-77563608D01*
X71174456Y-77563608D02*
X71212551Y-77639799D01*
X71212551Y-77639799D02*
X71212551Y-77792180D01*
X71212551Y-77792180D02*
X71250646Y-77868370D01*
X71250646Y-77868370D02*
X71288741Y-77906465D01*
X71288741Y-77906465D02*
X71364932Y-77944561D01*
X71364932Y-77944561D02*
X71517313Y-77944561D01*
X71517313Y-77944561D02*
X71593503Y-77906465D01*
X71593503Y-77906465D02*
X71631599Y-77868370D01*
X71631599Y-77868370D02*
X71669694Y-77792180D01*
X71669694Y-77792180D02*
X71669694Y-77639799D01*
X71669694Y-77639799D02*
X71631599Y-77563608D01*
X71631599Y-77563608D02*
X71593503Y-77525513D01*
X71593503Y-77525513D02*
X71517313Y-77487418D01*
X71517313Y-77487418D02*
X71364932Y-77487418D01*
X71364932Y-77487418D02*
X71288741Y-77525513D01*
X71288741Y-77525513D02*
X71250646Y-77563608D01*
X71250646Y-77563608D02*
X71212551Y-77639799D01*
X61869693Y-82811226D02*
X61488740Y-83077893D01*
X61869693Y-83268369D02*
X61069693Y-83268369D01*
X61069693Y-83268369D02*
X61069693Y-82963607D01*
X61069693Y-82963607D02*
X61107788Y-82887417D01*
X61107788Y-82887417D02*
X61145883Y-82849322D01*
X61145883Y-82849322D02*
X61222074Y-82811226D01*
X61222074Y-82811226D02*
X61336359Y-82811226D01*
X61336359Y-82811226D02*
X61412550Y-82849322D01*
X61412550Y-82849322D02*
X61450645Y-82887417D01*
X61450645Y-82887417D02*
X61488740Y-82963607D01*
X61488740Y-82963607D02*
X61488740Y-83268369D01*
X61145883Y-82506465D02*
X61107788Y-82468369D01*
X61107788Y-82468369D02*
X61069693Y-82392179D01*
X61069693Y-82392179D02*
X61069693Y-82201703D01*
X61069693Y-82201703D02*
X61107788Y-82125512D01*
X61107788Y-82125512D02*
X61145883Y-82087417D01*
X61145883Y-82087417D02*
X61222074Y-82049322D01*
X61222074Y-82049322D02*
X61298264Y-82049322D01*
X61298264Y-82049322D02*
X61412550Y-82087417D01*
X61412550Y-82087417D02*
X61869693Y-82544560D01*
X61869693Y-82544560D02*
X61869693Y-82049322D01*
X61069693Y-81782655D02*
X61069693Y-81287417D01*
X61069693Y-81287417D02*
X61374455Y-81554083D01*
X61374455Y-81554083D02*
X61374455Y-81439798D01*
X61374455Y-81439798D02*
X61412550Y-81363607D01*
X61412550Y-81363607D02*
X61450645Y-81325512D01*
X61450645Y-81325512D02*
X61526836Y-81287417D01*
X61526836Y-81287417D02*
X61717312Y-81287417D01*
X61717312Y-81287417D02*
X61793502Y-81325512D01*
X61793502Y-81325512D02*
X61831598Y-81363607D01*
X61831598Y-81363607D02*
X61869693Y-81439798D01*
X61869693Y-81439798D02*
X61869693Y-81668369D01*
X61869693Y-81668369D02*
X61831598Y-81744560D01*
X61831598Y-81744560D02*
X61793502Y-81782655D01*
X52995712Y-63356636D02*
X52729045Y-62975683D01*
X52538569Y-63356636D02*
X52538569Y-62556636D01*
X52538569Y-62556636D02*
X52843331Y-62556636D01*
X52843331Y-62556636D02*
X52919521Y-62594731D01*
X52919521Y-62594731D02*
X52957616Y-62632826D01*
X52957616Y-62632826D02*
X52995712Y-62709017D01*
X52995712Y-62709017D02*
X52995712Y-62823302D01*
X52995712Y-62823302D02*
X52957616Y-62899493D01*
X52957616Y-62899493D02*
X52919521Y-62937588D01*
X52919521Y-62937588D02*
X52843331Y-62975683D01*
X52843331Y-62975683D02*
X52538569Y-62975683D01*
X53757616Y-63356636D02*
X53300473Y-63356636D01*
X53529045Y-63356636D02*
X53529045Y-62556636D01*
X53529045Y-62556636D02*
X53452854Y-62670921D01*
X53452854Y-62670921D02*
X53376664Y-62747112D01*
X53376664Y-62747112D02*
X53300473Y-62785207D01*
X54024283Y-62556636D02*
X54557617Y-62556636D01*
X54557617Y-62556636D02*
X54214759Y-63356636D01*
X56093502Y-47530273D02*
X56131598Y-47568369D01*
X56131598Y-47568369D02*
X56169693Y-47682654D01*
X56169693Y-47682654D02*
X56169693Y-47758845D01*
X56169693Y-47758845D02*
X56131598Y-47873131D01*
X56131598Y-47873131D02*
X56055407Y-47949321D01*
X56055407Y-47949321D02*
X55979217Y-47987416D01*
X55979217Y-47987416D02*
X55826836Y-48025512D01*
X55826836Y-48025512D02*
X55712550Y-48025512D01*
X55712550Y-48025512D02*
X55560169Y-47987416D01*
X55560169Y-47987416D02*
X55483978Y-47949321D01*
X55483978Y-47949321D02*
X55407788Y-47873131D01*
X55407788Y-47873131D02*
X55369693Y-47758845D01*
X55369693Y-47758845D02*
X55369693Y-47682654D01*
X55369693Y-47682654D02*
X55407788Y-47568369D01*
X55407788Y-47568369D02*
X55445883Y-47530273D01*
X55636359Y-46844559D02*
X56169693Y-46844559D01*
X55331598Y-47035035D02*
X55903026Y-47225512D01*
X55903026Y-47225512D02*
X55903026Y-46730273D01*
X74495713Y-73056637D02*
X74229046Y-72675684D01*
X74038570Y-73056637D02*
X74038570Y-72256637D01*
X74038570Y-72256637D02*
X74343332Y-72256637D01*
X74343332Y-72256637D02*
X74419522Y-72294732D01*
X74419522Y-72294732D02*
X74457617Y-72332827D01*
X74457617Y-72332827D02*
X74495713Y-72409018D01*
X74495713Y-72409018D02*
X74495713Y-72523303D01*
X74495713Y-72523303D02*
X74457617Y-72599494D01*
X74457617Y-72599494D02*
X74419522Y-72637589D01*
X74419522Y-72637589D02*
X74343332Y-72675684D01*
X74343332Y-72675684D02*
X74038570Y-72675684D01*
X75257617Y-73056637D02*
X74800474Y-73056637D01*
X75029046Y-73056637D02*
X75029046Y-72256637D01*
X75029046Y-72256637D02*
X74952855Y-72370922D01*
X74952855Y-72370922D02*
X74876665Y-72447113D01*
X74876665Y-72447113D02*
X74800474Y-72485208D01*
X75981427Y-72256637D02*
X75600475Y-72256637D01*
X75600475Y-72256637D02*
X75562379Y-72637589D01*
X75562379Y-72637589D02*
X75600475Y-72599494D01*
X75600475Y-72599494D02*
X75676665Y-72561399D01*
X75676665Y-72561399D02*
X75867141Y-72561399D01*
X75867141Y-72561399D02*
X75943332Y-72599494D01*
X75943332Y-72599494D02*
X75981427Y-72637589D01*
X75981427Y-72637589D02*
X76019522Y-72713780D01*
X76019522Y-72713780D02*
X76019522Y-72904256D01*
X76019522Y-72904256D02*
X75981427Y-72980446D01*
X75981427Y-72980446D02*
X75943332Y-73018542D01*
X75943332Y-73018542D02*
X75867141Y-73056637D01*
X75867141Y-73056637D02*
X75676665Y-73056637D01*
X75676665Y-73056637D02*
X75600475Y-73018542D01*
X75600475Y-73018542D02*
X75562379Y-72980446D01*
X63169694Y-68711227D02*
X62788741Y-68977894D01*
X63169694Y-69168370D02*
X62369694Y-69168370D01*
X62369694Y-69168370D02*
X62369694Y-68863608D01*
X62369694Y-68863608D02*
X62407789Y-68787418D01*
X62407789Y-68787418D02*
X62445884Y-68749323D01*
X62445884Y-68749323D02*
X62522075Y-68711227D01*
X62522075Y-68711227D02*
X62636360Y-68711227D01*
X62636360Y-68711227D02*
X62712551Y-68749323D01*
X62712551Y-68749323D02*
X62750646Y-68787418D01*
X62750646Y-68787418D02*
X62788741Y-68863608D01*
X62788741Y-68863608D02*
X62788741Y-69168370D01*
X62445884Y-68406466D02*
X62407789Y-68368370D01*
X62407789Y-68368370D02*
X62369694Y-68292180D01*
X62369694Y-68292180D02*
X62369694Y-68101704D01*
X62369694Y-68101704D02*
X62407789Y-68025513D01*
X62407789Y-68025513D02*
X62445884Y-67987418D01*
X62445884Y-67987418D02*
X62522075Y-67949323D01*
X62522075Y-67949323D02*
X62598265Y-67949323D01*
X62598265Y-67949323D02*
X62712551Y-67987418D01*
X62712551Y-67987418D02*
X63169694Y-68444561D01*
X63169694Y-68444561D02*
X63169694Y-67949323D01*
X62369694Y-67225513D02*
X62369694Y-67606465D01*
X62369694Y-67606465D02*
X62750646Y-67644561D01*
X62750646Y-67644561D02*
X62712551Y-67606465D01*
X62712551Y-67606465D02*
X62674456Y-67530275D01*
X62674456Y-67530275D02*
X62674456Y-67339799D01*
X62674456Y-67339799D02*
X62712551Y-67263608D01*
X62712551Y-67263608D02*
X62750646Y-67225513D01*
X62750646Y-67225513D02*
X62826837Y-67187418D01*
X62826837Y-67187418D02*
X63017313Y-67187418D01*
X63017313Y-67187418D02*
X63093503Y-67225513D01*
X63093503Y-67225513D02*
X63131599Y-67263608D01*
X63131599Y-67263608D02*
X63169694Y-67339799D01*
X63169694Y-67339799D02*
X63169694Y-67530275D01*
X63169694Y-67530275D02*
X63131599Y-67606465D01*
X63131599Y-67606465D02*
X63093503Y-67644561D01*
X62969694Y-86111227D02*
X62588741Y-86377894D01*
X62969694Y-86568370D02*
X62169694Y-86568370D01*
X62169694Y-86568370D02*
X62169694Y-86263608D01*
X62169694Y-86263608D02*
X62207789Y-86187418D01*
X62207789Y-86187418D02*
X62245884Y-86149323D01*
X62245884Y-86149323D02*
X62322075Y-86111227D01*
X62322075Y-86111227D02*
X62436360Y-86111227D01*
X62436360Y-86111227D02*
X62512551Y-86149323D01*
X62512551Y-86149323D02*
X62550646Y-86187418D01*
X62550646Y-86187418D02*
X62588741Y-86263608D01*
X62588741Y-86263608D02*
X62588741Y-86568370D01*
X62969694Y-85349323D02*
X62969694Y-85806466D01*
X62969694Y-85577894D02*
X62169694Y-85577894D01*
X62169694Y-85577894D02*
X62283979Y-85654085D01*
X62283979Y-85654085D02*
X62360170Y-85730275D01*
X62360170Y-85730275D02*
X62398265Y-85806466D01*
X62969694Y-84968370D02*
X62969694Y-84815989D01*
X62969694Y-84815989D02*
X62931599Y-84739799D01*
X62931599Y-84739799D02*
X62893503Y-84701703D01*
X62893503Y-84701703D02*
X62779218Y-84625513D01*
X62779218Y-84625513D02*
X62626837Y-84587418D01*
X62626837Y-84587418D02*
X62322075Y-84587418D01*
X62322075Y-84587418D02*
X62245884Y-84625513D01*
X62245884Y-84625513D02*
X62207789Y-84663608D01*
X62207789Y-84663608D02*
X62169694Y-84739799D01*
X62169694Y-84739799D02*
X62169694Y-84892180D01*
X62169694Y-84892180D02*
X62207789Y-84968370D01*
X62207789Y-84968370D02*
X62245884Y-85006465D01*
X62245884Y-85006465D02*
X62322075Y-85044561D01*
X62322075Y-85044561D02*
X62512551Y-85044561D01*
X62512551Y-85044561D02*
X62588741Y-85006465D01*
X62588741Y-85006465D02*
X62626837Y-84968370D01*
X62626837Y-84968370D02*
X62664932Y-84892180D01*
X62664932Y-84892180D02*
X62664932Y-84739799D01*
X62664932Y-84739799D02*
X62626837Y-84663608D01*
X62626837Y-84663608D02*
X62588741Y-84625513D01*
X62588741Y-84625513D02*
X62512551Y-84587418D01*
X56995713Y-72256637D02*
X56729046Y-71875684D01*
X56538570Y-72256637D02*
X56538570Y-71456637D01*
X56538570Y-71456637D02*
X56843332Y-71456637D01*
X56843332Y-71456637D02*
X56919522Y-71494732D01*
X56919522Y-71494732D02*
X56957617Y-71532827D01*
X56957617Y-71532827D02*
X56995713Y-71609018D01*
X56995713Y-71609018D02*
X56995713Y-71723303D01*
X56995713Y-71723303D02*
X56957617Y-71799494D01*
X56957617Y-71799494D02*
X56919522Y-71837589D01*
X56919522Y-71837589D02*
X56843332Y-71875684D01*
X56843332Y-71875684D02*
X56538570Y-71875684D01*
X57262379Y-71456637D02*
X57757617Y-71456637D01*
X57757617Y-71456637D02*
X57490951Y-71761399D01*
X57490951Y-71761399D02*
X57605236Y-71761399D01*
X57605236Y-71761399D02*
X57681427Y-71799494D01*
X57681427Y-71799494D02*
X57719522Y-71837589D01*
X57719522Y-71837589D02*
X57757617Y-71913780D01*
X57757617Y-71913780D02*
X57757617Y-72104256D01*
X57757617Y-72104256D02*
X57719522Y-72180446D01*
X57719522Y-72180446D02*
X57681427Y-72218542D01*
X57681427Y-72218542D02*
X57605236Y-72256637D01*
X57605236Y-72256637D02*
X57376665Y-72256637D01*
X57376665Y-72256637D02*
X57300474Y-72218542D01*
X57300474Y-72218542D02*
X57262379Y-72180446D01*
X58252856Y-71456637D02*
X58329046Y-71456637D01*
X58329046Y-71456637D02*
X58405237Y-71494732D01*
X58405237Y-71494732D02*
X58443332Y-71532827D01*
X58443332Y-71532827D02*
X58481427Y-71609018D01*
X58481427Y-71609018D02*
X58519522Y-71761399D01*
X58519522Y-71761399D02*
X58519522Y-71951875D01*
X58519522Y-71951875D02*
X58481427Y-72104256D01*
X58481427Y-72104256D02*
X58443332Y-72180446D01*
X58443332Y-72180446D02*
X58405237Y-72218542D01*
X58405237Y-72218542D02*
X58329046Y-72256637D01*
X58329046Y-72256637D02*
X58252856Y-72256637D01*
X58252856Y-72256637D02*
X58176665Y-72218542D01*
X58176665Y-72218542D02*
X58138570Y-72180446D01*
X58138570Y-72180446D02*
X58100475Y-72104256D01*
X58100475Y-72104256D02*
X58062379Y-71951875D01*
X58062379Y-71951875D02*
X58062379Y-71761399D01*
X58062379Y-71761399D02*
X58100475Y-71609018D01*
X58100475Y-71609018D02*
X58138570Y-71532827D01*
X58138570Y-71532827D02*
X58176665Y-71494732D01*
X58176665Y-71494732D02*
X58252856Y-71456637D01*
X76962380Y-73656637D02*
X77229047Y-74456637D01*
X77229047Y-74456637D02*
X77495713Y-73656637D01*
X77762380Y-74456637D02*
X77762380Y-73656637D01*
X77762380Y-73656637D02*
X77952856Y-73656637D01*
X77952856Y-73656637D02*
X78067142Y-73694732D01*
X78067142Y-73694732D02*
X78143332Y-73770922D01*
X78143332Y-73770922D02*
X78181427Y-73847113D01*
X78181427Y-73847113D02*
X78219523Y-73999494D01*
X78219523Y-73999494D02*
X78219523Y-74113780D01*
X78219523Y-74113780D02*
X78181427Y-74266161D01*
X78181427Y-74266161D02*
X78143332Y-74342351D01*
X78143332Y-74342351D02*
X78067142Y-74418542D01*
X78067142Y-74418542D02*
X77952856Y-74456637D01*
X77952856Y-74456637D02*
X77762380Y-74456637D01*
X78905237Y-73923303D02*
X78905237Y-74456637D01*
X78714761Y-73618542D02*
X78524284Y-74189970D01*
X78524284Y-74189970D02*
X79019523Y-74189970D01*
X46081427Y-46356635D02*
X46614761Y-47156635D01*
X46614761Y-46356635D02*
X46081427Y-47156635D01*
X46881427Y-47118540D02*
X46995713Y-47156635D01*
X46995713Y-47156635D02*
X47186189Y-47156635D01*
X47186189Y-47156635D02*
X47262380Y-47118540D01*
X47262380Y-47118540D02*
X47300475Y-47080444D01*
X47300475Y-47080444D02*
X47338570Y-47004254D01*
X47338570Y-47004254D02*
X47338570Y-46928063D01*
X47338570Y-46928063D02*
X47300475Y-46851873D01*
X47300475Y-46851873D02*
X47262380Y-46813778D01*
X47262380Y-46813778D02*
X47186189Y-46775682D01*
X47186189Y-46775682D02*
X47033808Y-46737587D01*
X47033808Y-46737587D02*
X46957618Y-46699492D01*
X46957618Y-46699492D02*
X46919523Y-46661397D01*
X46919523Y-46661397D02*
X46881427Y-46585206D01*
X46881427Y-46585206D02*
X46881427Y-46509016D01*
X46881427Y-46509016D02*
X46919523Y-46432825D01*
X46919523Y-46432825D02*
X46957618Y-46394730D01*
X46957618Y-46394730D02*
X47033808Y-46356635D01*
X47033808Y-46356635D02*
X47224285Y-46356635D01*
X47224285Y-46356635D02*
X47338570Y-46394730D01*
X48100475Y-47156635D02*
X47643332Y-47156635D01*
X47871904Y-47156635D02*
X47871904Y-46356635D01*
X47871904Y-46356635D02*
X47795713Y-46470920D01*
X47795713Y-46470920D02*
X47719523Y-46547111D01*
X47719523Y-46547111D02*
X47643332Y-46585206D01*
X68495713Y-74256637D02*
X68229046Y-73875684D01*
X68038570Y-74256637D02*
X68038570Y-73456637D01*
X68038570Y-73456637D02*
X68343332Y-73456637D01*
X68343332Y-73456637D02*
X68419522Y-73494732D01*
X68419522Y-73494732D02*
X68457617Y-73532827D01*
X68457617Y-73532827D02*
X68495713Y-73609018D01*
X68495713Y-73609018D02*
X68495713Y-73723303D01*
X68495713Y-73723303D02*
X68457617Y-73799494D01*
X68457617Y-73799494D02*
X68419522Y-73837589D01*
X68419522Y-73837589D02*
X68343332Y-73875684D01*
X68343332Y-73875684D02*
X68038570Y-73875684D01*
X68800474Y-73532827D02*
X68838570Y-73494732D01*
X68838570Y-73494732D02*
X68914760Y-73456637D01*
X68914760Y-73456637D02*
X69105236Y-73456637D01*
X69105236Y-73456637D02*
X69181427Y-73494732D01*
X69181427Y-73494732D02*
X69219522Y-73532827D01*
X69219522Y-73532827D02*
X69257617Y-73609018D01*
X69257617Y-73609018D02*
X69257617Y-73685208D01*
X69257617Y-73685208D02*
X69219522Y-73799494D01*
X69219522Y-73799494D02*
X68762379Y-74256637D01*
X68762379Y-74256637D02*
X69257617Y-74256637D01*
X70019522Y-74256637D02*
X69562379Y-74256637D01*
X69790951Y-74256637D02*
X69790951Y-73456637D01*
X69790951Y-73456637D02*
X69714760Y-73570922D01*
X69714760Y-73570922D02*
X69638570Y-73647113D01*
X69638570Y-73647113D02*
X69562379Y-73685208D01*
X64476665Y-57256636D02*
X64209998Y-56875683D01*
X64019522Y-57256636D02*
X64019522Y-56456636D01*
X64019522Y-56456636D02*
X64324284Y-56456636D01*
X64324284Y-56456636D02*
X64400474Y-56494731D01*
X64400474Y-56494731D02*
X64438569Y-56532826D01*
X64438569Y-56532826D02*
X64476665Y-56609017D01*
X64476665Y-56609017D02*
X64476665Y-56723302D01*
X64476665Y-56723302D02*
X64438569Y-56799493D01*
X64438569Y-56799493D02*
X64400474Y-56837588D01*
X64400474Y-56837588D02*
X64324284Y-56875683D01*
X64324284Y-56875683D02*
X64019522Y-56875683D01*
X64857617Y-57256636D02*
X65009998Y-57256636D01*
X65009998Y-57256636D02*
X65086188Y-57218541D01*
X65086188Y-57218541D02*
X65124284Y-57180445D01*
X65124284Y-57180445D02*
X65200474Y-57066160D01*
X65200474Y-57066160D02*
X65238569Y-56913779D01*
X65238569Y-56913779D02*
X65238569Y-56609017D01*
X65238569Y-56609017D02*
X65200474Y-56532826D01*
X65200474Y-56532826D02*
X65162379Y-56494731D01*
X65162379Y-56494731D02*
X65086188Y-56456636D01*
X65086188Y-56456636D02*
X64933807Y-56456636D01*
X64933807Y-56456636D02*
X64857617Y-56494731D01*
X64857617Y-56494731D02*
X64819522Y-56532826D01*
X64819522Y-56532826D02*
X64781426Y-56609017D01*
X64781426Y-56609017D02*
X64781426Y-56799493D01*
X64781426Y-56799493D02*
X64819522Y-56875683D01*
X64819522Y-56875683D02*
X64857617Y-56913779D01*
X64857617Y-56913779D02*
X64933807Y-56951874D01*
X64933807Y-56951874D02*
X65086188Y-56951874D01*
X65086188Y-56951874D02*
X65162379Y-56913779D01*
X65162379Y-56913779D02*
X65200474Y-56875683D01*
X65200474Y-56875683D02*
X65238569Y-56799493D01*
X69593502Y-61130273D02*
X69631598Y-61168369D01*
X69631598Y-61168369D02*
X69669693Y-61282654D01*
X69669693Y-61282654D02*
X69669693Y-61358845D01*
X69669693Y-61358845D02*
X69631598Y-61473131D01*
X69631598Y-61473131D02*
X69555407Y-61549321D01*
X69555407Y-61549321D02*
X69479217Y-61587416D01*
X69479217Y-61587416D02*
X69326836Y-61625512D01*
X69326836Y-61625512D02*
X69212550Y-61625512D01*
X69212550Y-61625512D02*
X69060169Y-61587416D01*
X69060169Y-61587416D02*
X68983978Y-61549321D01*
X68983978Y-61549321D02*
X68907788Y-61473131D01*
X68907788Y-61473131D02*
X68869693Y-61358845D01*
X68869693Y-61358845D02*
X68869693Y-61282654D01*
X68869693Y-61282654D02*
X68907788Y-61168369D01*
X68907788Y-61168369D02*
X68945883Y-61130273D01*
X68869693Y-60863607D02*
X68869693Y-60368369D01*
X68869693Y-60368369D02*
X69174455Y-60635035D01*
X69174455Y-60635035D02*
X69174455Y-60520750D01*
X69174455Y-60520750D02*
X69212550Y-60444559D01*
X69212550Y-60444559D02*
X69250645Y-60406464D01*
X69250645Y-60406464D02*
X69326836Y-60368369D01*
X69326836Y-60368369D02*
X69517312Y-60368369D01*
X69517312Y-60368369D02*
X69593502Y-60406464D01*
X69593502Y-60406464D02*
X69631598Y-60444559D01*
X69631598Y-60444559D02*
X69669693Y-60520750D01*
X69669693Y-60520750D02*
X69669693Y-60749321D01*
X69669693Y-60749321D02*
X69631598Y-60825512D01*
X69631598Y-60825512D02*
X69593502Y-60863607D01*
X53069694Y-85211227D02*
X52688741Y-85477894D01*
X53069694Y-85668370D02*
X52269694Y-85668370D01*
X52269694Y-85668370D02*
X52269694Y-85363608D01*
X52269694Y-85363608D02*
X52307789Y-85287418D01*
X52307789Y-85287418D02*
X52345884Y-85249323D01*
X52345884Y-85249323D02*
X52422075Y-85211227D01*
X52422075Y-85211227D02*
X52536360Y-85211227D01*
X52536360Y-85211227D02*
X52612551Y-85249323D01*
X52612551Y-85249323D02*
X52650646Y-85287418D01*
X52650646Y-85287418D02*
X52688741Y-85363608D01*
X52688741Y-85363608D02*
X52688741Y-85668370D01*
X52345884Y-84906466D02*
X52307789Y-84868370D01*
X52307789Y-84868370D02*
X52269694Y-84792180D01*
X52269694Y-84792180D02*
X52269694Y-84601704D01*
X52269694Y-84601704D02*
X52307789Y-84525513D01*
X52307789Y-84525513D02*
X52345884Y-84487418D01*
X52345884Y-84487418D02*
X52422075Y-84449323D01*
X52422075Y-84449323D02*
X52498265Y-84449323D01*
X52498265Y-84449323D02*
X52612551Y-84487418D01*
X52612551Y-84487418D02*
X53069694Y-84944561D01*
X53069694Y-84944561D02*
X53069694Y-84449323D01*
X52269694Y-84182656D02*
X52269694Y-83649322D01*
X52269694Y-83649322D02*
X53069694Y-83992180D01*
X57000474Y-69456636D02*
X57457617Y-69456636D01*
X57229045Y-70256636D02*
X57229045Y-69456636D01*
X57724284Y-70256636D02*
X57724284Y-69456636D01*
X57724284Y-69456636D02*
X58029046Y-69456636D01*
X58029046Y-69456636D02*
X58105236Y-69494731D01*
X58105236Y-69494731D02*
X58143331Y-69532826D01*
X58143331Y-69532826D02*
X58181427Y-69609017D01*
X58181427Y-69609017D02*
X58181427Y-69723302D01*
X58181427Y-69723302D02*
X58143331Y-69799493D01*
X58143331Y-69799493D02*
X58105236Y-69837588D01*
X58105236Y-69837588D02*
X58029046Y-69875683D01*
X58029046Y-69875683D02*
X57724284Y-69875683D01*
X58943331Y-70256636D02*
X58486188Y-70256636D01*
X58714760Y-70256636D02*
X58714760Y-69456636D01*
X58714760Y-69456636D02*
X58638569Y-69570921D01*
X58638569Y-69570921D02*
X58562379Y-69647112D01*
X58562379Y-69647112D02*
X58486188Y-69685207D01*
X85969694Y-79683817D02*
X85169694Y-79683817D01*
X85169694Y-79683817D02*
X85169694Y-79493341D01*
X85169694Y-79493341D02*
X85207789Y-79379055D01*
X85207789Y-79379055D02*
X85283979Y-79302865D01*
X85283979Y-79302865D02*
X85360170Y-79264770D01*
X85360170Y-79264770D02*
X85512551Y-79226674D01*
X85512551Y-79226674D02*
X85626837Y-79226674D01*
X85626837Y-79226674D02*
X85779218Y-79264770D01*
X85779218Y-79264770D02*
X85855408Y-79302865D01*
X85855408Y-79302865D02*
X85931599Y-79379055D01*
X85931599Y-79379055D02*
X85969694Y-79493341D01*
X85969694Y-79493341D02*
X85969694Y-79683817D01*
X85969694Y-78883817D02*
X85169694Y-78883817D01*
X85169694Y-78883817D02*
X85169694Y-78693341D01*
X85169694Y-78693341D02*
X85207789Y-78579055D01*
X85207789Y-78579055D02*
X85283979Y-78502865D01*
X85283979Y-78502865D02*
X85360170Y-78464770D01*
X85360170Y-78464770D02*
X85512551Y-78426674D01*
X85512551Y-78426674D02*
X85626837Y-78426674D01*
X85626837Y-78426674D02*
X85779218Y-78464770D01*
X85779218Y-78464770D02*
X85855408Y-78502865D01*
X85855408Y-78502865D02*
X85931599Y-78579055D01*
X85931599Y-78579055D02*
X85969694Y-78693341D01*
X85969694Y-78693341D02*
X85969694Y-78883817D01*
X85245884Y-78121913D02*
X85207789Y-78083817D01*
X85207789Y-78083817D02*
X85169694Y-78007627D01*
X85169694Y-78007627D02*
X85169694Y-77817151D01*
X85169694Y-77817151D02*
X85207789Y-77740960D01*
X85207789Y-77740960D02*
X85245884Y-77702865D01*
X85245884Y-77702865D02*
X85322075Y-77664770D01*
X85322075Y-77664770D02*
X85398265Y-77664770D01*
X85398265Y-77664770D02*
X85512551Y-77702865D01*
X85512551Y-77702865D02*
X85969694Y-78160008D01*
X85969694Y-78160008D02*
X85969694Y-77664770D01*
X50193503Y-67491527D02*
X50231599Y-67529623D01*
X50231599Y-67529623D02*
X50269694Y-67643908D01*
X50269694Y-67643908D02*
X50269694Y-67720099D01*
X50269694Y-67720099D02*
X50231599Y-67834385D01*
X50231599Y-67834385D02*
X50155408Y-67910575D01*
X50155408Y-67910575D02*
X50079218Y-67948670D01*
X50079218Y-67948670D02*
X49926837Y-67986766D01*
X49926837Y-67986766D02*
X49812551Y-67986766D01*
X49812551Y-67986766D02*
X49660170Y-67948670D01*
X49660170Y-67948670D02*
X49583979Y-67910575D01*
X49583979Y-67910575D02*
X49507789Y-67834385D01*
X49507789Y-67834385D02*
X49469694Y-67720099D01*
X49469694Y-67720099D02*
X49469694Y-67643908D01*
X49469694Y-67643908D02*
X49507789Y-67529623D01*
X49507789Y-67529623D02*
X49545884Y-67491527D01*
X50269694Y-66729623D02*
X50269694Y-67186766D01*
X50269694Y-66958194D02*
X49469694Y-66958194D01*
X49469694Y-66958194D02*
X49583979Y-67034385D01*
X49583979Y-67034385D02*
X49660170Y-67110575D01*
X49660170Y-67110575D02*
X49698265Y-67186766D01*
X49469694Y-66043908D02*
X49469694Y-66196289D01*
X49469694Y-66196289D02*
X49507789Y-66272480D01*
X49507789Y-66272480D02*
X49545884Y-66310575D01*
X49545884Y-66310575D02*
X49660170Y-66386765D01*
X49660170Y-66386765D02*
X49812551Y-66424861D01*
X49812551Y-66424861D02*
X50117313Y-66424861D01*
X50117313Y-66424861D02*
X50193503Y-66386765D01*
X50193503Y-66386765D02*
X50231599Y-66348670D01*
X50231599Y-66348670D02*
X50269694Y-66272480D01*
X50269694Y-66272480D02*
X50269694Y-66120099D01*
X50269694Y-66120099D02*
X50231599Y-66043908D01*
X50231599Y-66043908D02*
X50193503Y-66005813D01*
X50193503Y-66005813D02*
X50117313Y-65967718D01*
X50117313Y-65967718D02*
X49926837Y-65967718D01*
X49926837Y-65967718D02*
X49850646Y-66005813D01*
X49850646Y-66005813D02*
X49812551Y-66043908D01*
X49812551Y-66043908D02*
X49774456Y-66120099D01*
X49774456Y-66120099D02*
X49774456Y-66272480D01*
X49774456Y-66272480D02*
X49812551Y-66348670D01*
X49812551Y-66348670D02*
X49850646Y-66386765D01*
X49850646Y-66386765D02*
X49926837Y-66424861D01*
X59769693Y-83449321D02*
X60569693Y-83182654D01*
X60569693Y-83182654D02*
X59769693Y-82915988D01*
X59769693Y-82763607D02*
X59769693Y-82306464D01*
X60569693Y-82535036D02*
X59769693Y-82535036D01*
X59769693Y-82115988D02*
X59769693Y-81582654D01*
X59769693Y-81582654D02*
X60569693Y-81925512D01*
X76762379Y-54356636D02*
X77029046Y-55156636D01*
X77029046Y-55156636D02*
X77295712Y-54356636D01*
X77562379Y-55156636D02*
X77562379Y-54356636D01*
X77562379Y-54356636D02*
X77752855Y-54356636D01*
X77752855Y-54356636D02*
X77867141Y-54394731D01*
X77867141Y-54394731D02*
X77943331Y-54470921D01*
X77943331Y-54470921D02*
X77981426Y-54547112D01*
X77981426Y-54547112D02*
X78019522Y-54699493D01*
X78019522Y-54699493D02*
X78019522Y-54813779D01*
X78019522Y-54813779D02*
X77981426Y-54966160D01*
X77981426Y-54966160D02*
X77943331Y-55042350D01*
X77943331Y-55042350D02*
X77867141Y-55118541D01*
X77867141Y-55118541D02*
X77752855Y-55156636D01*
X77752855Y-55156636D02*
X77562379Y-55156636D01*
X78781426Y-55156636D02*
X78324283Y-55156636D01*
X78552855Y-55156636D02*
X78552855Y-54356636D01*
X78552855Y-54356636D02*
X78476664Y-54470921D01*
X78476664Y-54470921D02*
X78400474Y-54547112D01*
X78400474Y-54547112D02*
X78324283Y-54585207D01*
X53957618Y-86556637D02*
X54224285Y-87356637D01*
X54224285Y-87356637D02*
X54490951Y-86556637D01*
X54643332Y-86556637D02*
X55100475Y-86556637D01*
X54871903Y-87356637D02*
X54871903Y-86556637D01*
X55290951Y-86556637D02*
X55786189Y-86556637D01*
X55786189Y-86556637D02*
X55519523Y-86861399D01*
X55519523Y-86861399D02*
X55633808Y-86861399D01*
X55633808Y-86861399D02*
X55709999Y-86899494D01*
X55709999Y-86899494D02*
X55748094Y-86937589D01*
X55748094Y-86937589D02*
X55786189Y-87013780D01*
X55786189Y-87013780D02*
X55786189Y-87204256D01*
X55786189Y-87204256D02*
X55748094Y-87280446D01*
X55748094Y-87280446D02*
X55709999Y-87318542D01*
X55709999Y-87318542D02*
X55633808Y-87356637D01*
X55633808Y-87356637D02*
X55405237Y-87356637D01*
X55405237Y-87356637D02*
X55329046Y-87318542D01*
X55329046Y-87318542D02*
X55290951Y-87280446D01*
X46669694Y-77449322D02*
X47469694Y-77182655D01*
X47469694Y-77182655D02*
X46669694Y-76915989D01*
X46669694Y-76763608D02*
X46669694Y-76306465D01*
X47469694Y-76535037D02*
X46669694Y-76535037D01*
X46669694Y-75658846D02*
X46669694Y-76039798D01*
X46669694Y-76039798D02*
X47050646Y-76077894D01*
X47050646Y-76077894D02*
X47012551Y-76039798D01*
X47012551Y-76039798D02*
X46974456Y-75963608D01*
X46974456Y-75963608D02*
X46974456Y-75773132D01*
X46974456Y-75773132D02*
X47012551Y-75696941D01*
X47012551Y-75696941D02*
X47050646Y-75658846D01*
X47050646Y-75658846D02*
X47126837Y-75620751D01*
X47126837Y-75620751D02*
X47317313Y-75620751D01*
X47317313Y-75620751D02*
X47393503Y-75658846D01*
X47393503Y-75658846D02*
X47431599Y-75696941D01*
X47431599Y-75696941D02*
X47469694Y-75773132D01*
X47469694Y-75773132D02*
X47469694Y-75963608D01*
X47469694Y-75963608D02*
X47431599Y-76039798D01*
X47431599Y-76039798D02*
X47393503Y-76077894D01*
X66769694Y-76611227D02*
X66388741Y-76877894D01*
X66769694Y-77068370D02*
X65969694Y-77068370D01*
X65969694Y-77068370D02*
X65969694Y-76763608D01*
X65969694Y-76763608D02*
X66007789Y-76687418D01*
X66007789Y-76687418D02*
X66045884Y-76649323D01*
X66045884Y-76649323D02*
X66122075Y-76611227D01*
X66122075Y-76611227D02*
X66236360Y-76611227D01*
X66236360Y-76611227D02*
X66312551Y-76649323D01*
X66312551Y-76649323D02*
X66350646Y-76687418D01*
X66350646Y-76687418D02*
X66388741Y-76763608D01*
X66388741Y-76763608D02*
X66388741Y-77068370D01*
X66769694Y-75849323D02*
X66769694Y-76306466D01*
X66769694Y-76077894D02*
X65969694Y-76077894D01*
X65969694Y-76077894D02*
X66083979Y-76154085D01*
X66083979Y-76154085D02*
X66160170Y-76230275D01*
X66160170Y-76230275D02*
X66198265Y-76306466D01*
X65969694Y-75582656D02*
X65969694Y-75087418D01*
X65969694Y-75087418D02*
X66274456Y-75354084D01*
X66274456Y-75354084D02*
X66274456Y-75239799D01*
X66274456Y-75239799D02*
X66312551Y-75163608D01*
X66312551Y-75163608D02*
X66350646Y-75125513D01*
X66350646Y-75125513D02*
X66426837Y-75087418D01*
X66426837Y-75087418D02*
X66617313Y-75087418D01*
X66617313Y-75087418D02*
X66693503Y-75125513D01*
X66693503Y-75125513D02*
X66731599Y-75163608D01*
X66731599Y-75163608D02*
X66769694Y-75239799D01*
X66769694Y-75239799D02*
X66769694Y-75468370D01*
X66769694Y-75468370D02*
X66731599Y-75544561D01*
X66731599Y-75544561D02*
X66693503Y-75582656D01*
X63869694Y-73630274D02*
X63488741Y-73896941D01*
X63869694Y-74087417D02*
X63069694Y-74087417D01*
X63069694Y-74087417D02*
X63069694Y-73782655D01*
X63069694Y-73782655D02*
X63107789Y-73706465D01*
X63107789Y-73706465D02*
X63145884Y-73668370D01*
X63145884Y-73668370D02*
X63222075Y-73630274D01*
X63222075Y-73630274D02*
X63336360Y-73630274D01*
X63336360Y-73630274D02*
X63412551Y-73668370D01*
X63412551Y-73668370D02*
X63450646Y-73706465D01*
X63450646Y-73706465D02*
X63488741Y-73782655D01*
X63488741Y-73782655D02*
X63488741Y-74087417D01*
X63869694Y-72868370D02*
X63869694Y-73325513D01*
X63869694Y-73096941D02*
X63069694Y-73096941D01*
X63069694Y-73096941D02*
X63183979Y-73173132D01*
X63183979Y-73173132D02*
X63260170Y-73249322D01*
X63260170Y-73249322D02*
X63298265Y-73325513D01*
X58969694Y-75011227D02*
X58588741Y-75277894D01*
X58969694Y-75468370D02*
X58169694Y-75468370D01*
X58169694Y-75468370D02*
X58169694Y-75163608D01*
X58169694Y-75163608D02*
X58207789Y-75087418D01*
X58207789Y-75087418D02*
X58245884Y-75049323D01*
X58245884Y-75049323D02*
X58322075Y-75011227D01*
X58322075Y-75011227D02*
X58436360Y-75011227D01*
X58436360Y-75011227D02*
X58512551Y-75049323D01*
X58512551Y-75049323D02*
X58550646Y-75087418D01*
X58550646Y-75087418D02*
X58588741Y-75163608D01*
X58588741Y-75163608D02*
X58588741Y-75468370D01*
X58245884Y-74706466D02*
X58207789Y-74668370D01*
X58207789Y-74668370D02*
X58169694Y-74592180D01*
X58169694Y-74592180D02*
X58169694Y-74401704D01*
X58169694Y-74401704D02*
X58207789Y-74325513D01*
X58207789Y-74325513D02*
X58245884Y-74287418D01*
X58245884Y-74287418D02*
X58322075Y-74249323D01*
X58322075Y-74249323D02*
X58398265Y-74249323D01*
X58398265Y-74249323D02*
X58512551Y-74287418D01*
X58512551Y-74287418D02*
X58969694Y-74744561D01*
X58969694Y-74744561D02*
X58969694Y-74249323D01*
X58969694Y-73868370D02*
X58969694Y-73715989D01*
X58969694Y-73715989D02*
X58931599Y-73639799D01*
X58931599Y-73639799D02*
X58893503Y-73601703D01*
X58893503Y-73601703D02*
X58779218Y-73525513D01*
X58779218Y-73525513D02*
X58626837Y-73487418D01*
X58626837Y-73487418D02*
X58322075Y-73487418D01*
X58322075Y-73487418D02*
X58245884Y-73525513D01*
X58245884Y-73525513D02*
X58207789Y-73563608D01*
X58207789Y-73563608D02*
X58169694Y-73639799D01*
X58169694Y-73639799D02*
X58169694Y-73792180D01*
X58169694Y-73792180D02*
X58207789Y-73868370D01*
X58207789Y-73868370D02*
X58245884Y-73906465D01*
X58245884Y-73906465D02*
X58322075Y-73944561D01*
X58322075Y-73944561D02*
X58512551Y-73944561D01*
X58512551Y-73944561D02*
X58588741Y-73906465D01*
X58588741Y-73906465D02*
X58626837Y-73868370D01*
X58626837Y-73868370D02*
X58664932Y-73792180D01*
X58664932Y-73792180D02*
X58664932Y-73639799D01*
X58664932Y-73639799D02*
X58626837Y-73563608D01*
X58626837Y-73563608D02*
X58588741Y-73525513D01*
X58588741Y-73525513D02*
X58512551Y-73487418D01*
X57069694Y-65130275D02*
X57069694Y-65511227D01*
X57069694Y-65511227D02*
X56269694Y-65511227D01*
X57069694Y-64444561D02*
X57069694Y-64901704D01*
X57069694Y-64673132D02*
X56269694Y-64673132D01*
X56269694Y-64673132D02*
X56383979Y-64749323D01*
X56383979Y-64749323D02*
X56460170Y-64825513D01*
X56460170Y-64825513D02*
X56498265Y-64901704D01*
X79895712Y-48556636D02*
X79629045Y-48175683D01*
X79438569Y-48556636D02*
X79438569Y-47756636D01*
X79438569Y-47756636D02*
X79743331Y-47756636D01*
X79743331Y-47756636D02*
X79819521Y-47794731D01*
X79819521Y-47794731D02*
X79857616Y-47832826D01*
X79857616Y-47832826D02*
X79895712Y-47909017D01*
X79895712Y-47909017D02*
X79895712Y-48023302D01*
X79895712Y-48023302D02*
X79857616Y-48099493D01*
X79857616Y-48099493D02*
X79819521Y-48137588D01*
X79819521Y-48137588D02*
X79743331Y-48175683D01*
X79743331Y-48175683D02*
X79438569Y-48175683D01*
X80657616Y-48556636D02*
X80200473Y-48556636D01*
X80429045Y-48556636D02*
X80429045Y-47756636D01*
X80429045Y-47756636D02*
X80352854Y-47870921D01*
X80352854Y-47870921D02*
X80276664Y-47947112D01*
X80276664Y-47947112D02*
X80200473Y-47985207D01*
X81152855Y-47756636D02*
X81229045Y-47756636D01*
X81229045Y-47756636D02*
X81305236Y-47794731D01*
X81305236Y-47794731D02*
X81343331Y-47832826D01*
X81343331Y-47832826D02*
X81381426Y-47909017D01*
X81381426Y-47909017D02*
X81419521Y-48061398D01*
X81419521Y-48061398D02*
X81419521Y-48251874D01*
X81419521Y-48251874D02*
X81381426Y-48404255D01*
X81381426Y-48404255D02*
X81343331Y-48480445D01*
X81343331Y-48480445D02*
X81305236Y-48518541D01*
X81305236Y-48518541D02*
X81229045Y-48556636D01*
X81229045Y-48556636D02*
X81152855Y-48556636D01*
X81152855Y-48556636D02*
X81076664Y-48518541D01*
X81076664Y-48518541D02*
X81038569Y-48480445D01*
X81038569Y-48480445D02*
X81000474Y-48404255D01*
X81000474Y-48404255D02*
X80962378Y-48251874D01*
X80962378Y-48251874D02*
X80962378Y-48061398D01*
X80962378Y-48061398D02*
X81000474Y-47909017D01*
X81000474Y-47909017D02*
X81038569Y-47832826D01*
X81038569Y-47832826D02*
X81076664Y-47794731D01*
X81076664Y-47794731D02*
X81152855Y-47756636D01*
X51376665Y-65180445D02*
X51338569Y-65218541D01*
X51338569Y-65218541D02*
X51224284Y-65256636D01*
X51224284Y-65256636D02*
X51148093Y-65256636D01*
X51148093Y-65256636D02*
X51033807Y-65218541D01*
X51033807Y-65218541D02*
X50957617Y-65142350D01*
X50957617Y-65142350D02*
X50919522Y-65066160D01*
X50919522Y-65066160D02*
X50881426Y-64913779D01*
X50881426Y-64913779D02*
X50881426Y-64799493D01*
X50881426Y-64799493D02*
X50919522Y-64647112D01*
X50919522Y-64647112D02*
X50957617Y-64570921D01*
X50957617Y-64570921D02*
X51033807Y-64494731D01*
X51033807Y-64494731D02*
X51148093Y-64456636D01*
X51148093Y-64456636D02*
X51224284Y-64456636D01*
X51224284Y-64456636D02*
X51338569Y-64494731D01*
X51338569Y-64494731D02*
X51376665Y-64532826D01*
X51757617Y-65256636D02*
X51909998Y-65256636D01*
X51909998Y-65256636D02*
X51986188Y-65218541D01*
X51986188Y-65218541D02*
X52024284Y-65180445D01*
X52024284Y-65180445D02*
X52100474Y-65066160D01*
X52100474Y-65066160D02*
X52138569Y-64913779D01*
X52138569Y-64913779D02*
X52138569Y-64609017D01*
X52138569Y-64609017D02*
X52100474Y-64532826D01*
X52100474Y-64532826D02*
X52062379Y-64494731D01*
X52062379Y-64494731D02*
X51986188Y-64456636D01*
X51986188Y-64456636D02*
X51833807Y-64456636D01*
X51833807Y-64456636D02*
X51757617Y-64494731D01*
X51757617Y-64494731D02*
X51719522Y-64532826D01*
X51719522Y-64532826D02*
X51681426Y-64609017D01*
X51681426Y-64609017D02*
X51681426Y-64799493D01*
X51681426Y-64799493D02*
X51719522Y-64875683D01*
X51719522Y-64875683D02*
X51757617Y-64913779D01*
X51757617Y-64913779D02*
X51833807Y-64951874D01*
X51833807Y-64951874D02*
X51986188Y-64951874D01*
X51986188Y-64951874D02*
X52062379Y-64913779D01*
X52062379Y-64913779D02*
X52100474Y-64875683D01*
X52100474Y-64875683D02*
X52138569Y-64799493D01*
X67662380Y-77256637D02*
X67929047Y-78056637D01*
X67929047Y-78056637D02*
X68195713Y-77256637D01*
X68462380Y-78056637D02*
X68462380Y-77256637D01*
X68462380Y-77256637D02*
X68652856Y-77256637D01*
X68652856Y-77256637D02*
X68767142Y-77294732D01*
X68767142Y-77294732D02*
X68843332Y-77370922D01*
X68843332Y-77370922D02*
X68881427Y-77447113D01*
X68881427Y-77447113D02*
X68919523Y-77599494D01*
X68919523Y-77599494D02*
X68919523Y-77713780D01*
X68919523Y-77713780D02*
X68881427Y-77866161D01*
X68881427Y-77866161D02*
X68843332Y-77942351D01*
X68843332Y-77942351D02*
X68767142Y-78018542D01*
X68767142Y-78018542D02*
X68652856Y-78056637D01*
X68652856Y-78056637D02*
X68462380Y-78056637D01*
X69643332Y-77256637D02*
X69262380Y-77256637D01*
X69262380Y-77256637D02*
X69224284Y-77637589D01*
X69224284Y-77637589D02*
X69262380Y-77599494D01*
X69262380Y-77599494D02*
X69338570Y-77561399D01*
X69338570Y-77561399D02*
X69529046Y-77561399D01*
X69529046Y-77561399D02*
X69605237Y-77599494D01*
X69605237Y-77599494D02*
X69643332Y-77637589D01*
X69643332Y-77637589D02*
X69681427Y-77713780D01*
X69681427Y-77713780D02*
X69681427Y-77904256D01*
X69681427Y-77904256D02*
X69643332Y-77980446D01*
X69643332Y-77980446D02*
X69605237Y-78018542D01*
X69605237Y-78018542D02*
X69529046Y-78056637D01*
X69529046Y-78056637D02*
X69338570Y-78056637D01*
X69338570Y-78056637D02*
X69262380Y-78018542D01*
X69262380Y-78018542D02*
X69224284Y-77980446D01*
X85737693Y-91099948D02*
X86537693Y-90566614D01*
X85737693Y-90566614D02*
X86537693Y-91099948D01*
X86499598Y-90299948D02*
X86537693Y-90185662D01*
X86537693Y-90185662D02*
X86537693Y-89995186D01*
X86537693Y-89995186D02*
X86499598Y-89918995D01*
X86499598Y-89918995D02*
X86461502Y-89880900D01*
X86461502Y-89880900D02*
X86385312Y-89842805D01*
X86385312Y-89842805D02*
X86309121Y-89842805D01*
X86309121Y-89842805D02*
X86232931Y-89880900D01*
X86232931Y-89880900D02*
X86194836Y-89918995D01*
X86194836Y-89918995D02*
X86156740Y-89995186D01*
X86156740Y-89995186D02*
X86118645Y-90147567D01*
X86118645Y-90147567D02*
X86080550Y-90223757D01*
X86080550Y-90223757D02*
X86042455Y-90261852D01*
X86042455Y-90261852D02*
X85966264Y-90299948D01*
X85966264Y-90299948D02*
X85890074Y-90299948D01*
X85890074Y-90299948D02*
X85813883Y-90261852D01*
X85813883Y-90261852D02*
X85775788Y-90223757D01*
X85775788Y-90223757D02*
X85737693Y-90147567D01*
X85737693Y-90147567D02*
X85737693Y-89957090D01*
X85737693Y-89957090D02*
X85775788Y-89842805D01*
X85737693Y-89157090D02*
X85737693Y-89309471D01*
X85737693Y-89309471D02*
X85775788Y-89385662D01*
X85775788Y-89385662D02*
X85813883Y-89423757D01*
X85813883Y-89423757D02*
X85928169Y-89499947D01*
X85928169Y-89499947D02*
X86080550Y-89538043D01*
X86080550Y-89538043D02*
X86385312Y-89538043D01*
X86385312Y-89538043D02*
X86461502Y-89499947D01*
X86461502Y-89499947D02*
X86499598Y-89461852D01*
X86499598Y-89461852D02*
X86537693Y-89385662D01*
X86537693Y-89385662D02*
X86537693Y-89233281D01*
X86537693Y-89233281D02*
X86499598Y-89157090D01*
X86499598Y-89157090D02*
X86461502Y-89118995D01*
X86461502Y-89118995D02*
X86385312Y-89080900D01*
X86385312Y-89080900D02*
X86194836Y-89080900D01*
X86194836Y-89080900D02*
X86118645Y-89118995D01*
X86118645Y-89118995D02*
X86080550Y-89157090D01*
X86080550Y-89157090D02*
X86042455Y-89233281D01*
X86042455Y-89233281D02*
X86042455Y-89385662D01*
X86042455Y-89385662D02*
X86080550Y-89461852D01*
X86080550Y-89461852D02*
X86118645Y-89499947D01*
X86118645Y-89499947D02*
X86194836Y-89538043D01*
X79561303Y-78511227D02*
X79599399Y-78549323D01*
X79599399Y-78549323D02*
X79637494Y-78663608D01*
X79637494Y-78663608D02*
X79637494Y-78739799D01*
X79637494Y-78739799D02*
X79599399Y-78854085D01*
X79599399Y-78854085D02*
X79523208Y-78930275D01*
X79523208Y-78930275D02*
X79447018Y-78968370D01*
X79447018Y-78968370D02*
X79294637Y-79006466D01*
X79294637Y-79006466D02*
X79180351Y-79006466D01*
X79180351Y-79006466D02*
X79027970Y-78968370D01*
X79027970Y-78968370D02*
X78951779Y-78930275D01*
X78951779Y-78930275D02*
X78875589Y-78854085D01*
X78875589Y-78854085D02*
X78837494Y-78739799D01*
X78837494Y-78739799D02*
X78837494Y-78663608D01*
X78837494Y-78663608D02*
X78875589Y-78549323D01*
X78875589Y-78549323D02*
X78913684Y-78511227D01*
X79637494Y-77749323D02*
X79637494Y-78206466D01*
X79637494Y-77977894D02*
X78837494Y-77977894D01*
X78837494Y-77977894D02*
X78951779Y-78054085D01*
X78951779Y-78054085D02*
X79027970Y-78130275D01*
X79027970Y-78130275D02*
X79066065Y-78206466D01*
X79637494Y-76987418D02*
X79637494Y-77444561D01*
X79637494Y-77215989D02*
X78837494Y-77215989D01*
X78837494Y-77215989D02*
X78951779Y-77292180D01*
X78951779Y-77292180D02*
X79027970Y-77368370D01*
X79027970Y-77368370D02*
X79066065Y-77444561D01*
X76869693Y-33530273D02*
X76488740Y-33796940D01*
X76869693Y-33987416D02*
X76069693Y-33987416D01*
X76069693Y-33987416D02*
X76069693Y-33682654D01*
X76069693Y-33682654D02*
X76107788Y-33606464D01*
X76107788Y-33606464D02*
X76145883Y-33568369D01*
X76145883Y-33568369D02*
X76222074Y-33530273D01*
X76222074Y-33530273D02*
X76336359Y-33530273D01*
X76336359Y-33530273D02*
X76412550Y-33568369D01*
X76412550Y-33568369D02*
X76450645Y-33606464D01*
X76450645Y-33606464D02*
X76488740Y-33682654D01*
X76488740Y-33682654D02*
X76488740Y-33987416D01*
X76069693Y-32844559D02*
X76069693Y-32996940D01*
X76069693Y-32996940D02*
X76107788Y-33073131D01*
X76107788Y-33073131D02*
X76145883Y-33111226D01*
X76145883Y-33111226D02*
X76260169Y-33187416D01*
X76260169Y-33187416D02*
X76412550Y-33225512D01*
X76412550Y-33225512D02*
X76717312Y-33225512D01*
X76717312Y-33225512D02*
X76793502Y-33187416D01*
X76793502Y-33187416D02*
X76831598Y-33149321D01*
X76831598Y-33149321D02*
X76869693Y-33073131D01*
X76869693Y-33073131D02*
X76869693Y-32920750D01*
X76869693Y-32920750D02*
X76831598Y-32844559D01*
X76831598Y-32844559D02*
X76793502Y-32806464D01*
X76793502Y-32806464D02*
X76717312Y-32768369D01*
X76717312Y-32768369D02*
X76526836Y-32768369D01*
X76526836Y-32768369D02*
X76450645Y-32806464D01*
X76450645Y-32806464D02*
X76412550Y-32844559D01*
X76412550Y-32844559D02*
X76374455Y-32920750D01*
X76374455Y-32920750D02*
X76374455Y-33073131D01*
X76374455Y-33073131D02*
X76412550Y-33149321D01*
X76412550Y-33149321D02*
X76450645Y-33187416D01*
X76450645Y-33187416D02*
X76526836Y-33225512D01*
X52957618Y-74556637D02*
X53224285Y-75356637D01*
X53224285Y-75356637D02*
X53490951Y-74556637D01*
X53643332Y-74556637D02*
X54100475Y-74556637D01*
X53871903Y-75356637D02*
X53871903Y-74556637D01*
X54481427Y-74899494D02*
X54405237Y-74861399D01*
X54405237Y-74861399D02*
X54367142Y-74823303D01*
X54367142Y-74823303D02*
X54329046Y-74747113D01*
X54329046Y-74747113D02*
X54329046Y-74709018D01*
X54329046Y-74709018D02*
X54367142Y-74632827D01*
X54367142Y-74632827D02*
X54405237Y-74594732D01*
X54405237Y-74594732D02*
X54481427Y-74556637D01*
X54481427Y-74556637D02*
X54633808Y-74556637D01*
X54633808Y-74556637D02*
X54709999Y-74594732D01*
X54709999Y-74594732D02*
X54748094Y-74632827D01*
X54748094Y-74632827D02*
X54786189Y-74709018D01*
X54786189Y-74709018D02*
X54786189Y-74747113D01*
X54786189Y-74747113D02*
X54748094Y-74823303D01*
X54748094Y-74823303D02*
X54709999Y-74861399D01*
X54709999Y-74861399D02*
X54633808Y-74899494D01*
X54633808Y-74899494D02*
X54481427Y-74899494D01*
X54481427Y-74899494D02*
X54405237Y-74937589D01*
X54405237Y-74937589D02*
X54367142Y-74975684D01*
X54367142Y-74975684D02*
X54329046Y-75051875D01*
X54329046Y-75051875D02*
X54329046Y-75204256D01*
X54329046Y-75204256D02*
X54367142Y-75280446D01*
X54367142Y-75280446D02*
X54405237Y-75318542D01*
X54405237Y-75318542D02*
X54481427Y-75356637D01*
X54481427Y-75356637D02*
X54633808Y-75356637D01*
X54633808Y-75356637D02*
X54709999Y-75318542D01*
X54709999Y-75318542D02*
X54748094Y-75280446D01*
X54748094Y-75280446D02*
X54786189Y-75204256D01*
X54786189Y-75204256D02*
X54786189Y-75051875D01*
X54786189Y-75051875D02*
X54748094Y-74975684D01*
X54748094Y-74975684D02*
X54709999Y-74937589D01*
X54709999Y-74937589D02*
X54633808Y-74899494D01*
X76893502Y-50930273D02*
X76931598Y-50968369D01*
X76931598Y-50968369D02*
X76969693Y-51082654D01*
X76969693Y-51082654D02*
X76969693Y-51158845D01*
X76969693Y-51158845D02*
X76931598Y-51273131D01*
X76931598Y-51273131D02*
X76855407Y-51349321D01*
X76855407Y-51349321D02*
X76779217Y-51387416D01*
X76779217Y-51387416D02*
X76626836Y-51425512D01*
X76626836Y-51425512D02*
X76512550Y-51425512D01*
X76512550Y-51425512D02*
X76360169Y-51387416D01*
X76360169Y-51387416D02*
X76283978Y-51349321D01*
X76283978Y-51349321D02*
X76207788Y-51273131D01*
X76207788Y-51273131D02*
X76169693Y-51158845D01*
X76169693Y-51158845D02*
X76169693Y-51082654D01*
X76169693Y-51082654D02*
X76207788Y-50968369D01*
X76207788Y-50968369D02*
X76245883Y-50930273D01*
X76169693Y-50663607D02*
X76169693Y-50130273D01*
X76169693Y-50130273D02*
X76969693Y-50473131D01*
X67469694Y-69711227D02*
X67088741Y-69977894D01*
X67469694Y-70168370D02*
X66669694Y-70168370D01*
X66669694Y-70168370D02*
X66669694Y-69863608D01*
X66669694Y-69863608D02*
X66707789Y-69787418D01*
X66707789Y-69787418D02*
X66745884Y-69749323D01*
X66745884Y-69749323D02*
X66822075Y-69711227D01*
X66822075Y-69711227D02*
X66936360Y-69711227D01*
X66936360Y-69711227D02*
X67012551Y-69749323D01*
X67012551Y-69749323D02*
X67050646Y-69787418D01*
X67050646Y-69787418D02*
X67088741Y-69863608D01*
X67088741Y-69863608D02*
X67088741Y-70168370D01*
X66669694Y-69444561D02*
X66669694Y-68949323D01*
X66669694Y-68949323D02*
X66974456Y-69215989D01*
X66974456Y-69215989D02*
X66974456Y-69101704D01*
X66974456Y-69101704D02*
X67012551Y-69025513D01*
X67012551Y-69025513D02*
X67050646Y-68987418D01*
X67050646Y-68987418D02*
X67126837Y-68949323D01*
X67126837Y-68949323D02*
X67317313Y-68949323D01*
X67317313Y-68949323D02*
X67393503Y-68987418D01*
X67393503Y-68987418D02*
X67431599Y-69025513D01*
X67431599Y-69025513D02*
X67469694Y-69101704D01*
X67469694Y-69101704D02*
X67469694Y-69330275D01*
X67469694Y-69330275D02*
X67431599Y-69406466D01*
X67431599Y-69406466D02*
X67393503Y-69444561D01*
X66745884Y-68644561D02*
X66707789Y-68606465D01*
X66707789Y-68606465D02*
X66669694Y-68530275D01*
X66669694Y-68530275D02*
X66669694Y-68339799D01*
X66669694Y-68339799D02*
X66707789Y-68263608D01*
X66707789Y-68263608D02*
X66745884Y-68225513D01*
X66745884Y-68225513D02*
X66822075Y-68187418D01*
X66822075Y-68187418D02*
X66898265Y-68187418D01*
X66898265Y-68187418D02*
X67012551Y-68225513D01*
X67012551Y-68225513D02*
X67469694Y-68682656D01*
X67469694Y-68682656D02*
X67469694Y-68187418D01*
X55269694Y-85011227D02*
X54888741Y-85277894D01*
X55269694Y-85468370D02*
X54469694Y-85468370D01*
X54469694Y-85468370D02*
X54469694Y-85163608D01*
X54469694Y-85163608D02*
X54507789Y-85087418D01*
X54507789Y-85087418D02*
X54545884Y-85049323D01*
X54545884Y-85049323D02*
X54622075Y-85011227D01*
X54622075Y-85011227D02*
X54736360Y-85011227D01*
X54736360Y-85011227D02*
X54812551Y-85049323D01*
X54812551Y-85049323D02*
X54850646Y-85087418D01*
X54850646Y-85087418D02*
X54888741Y-85163608D01*
X54888741Y-85163608D02*
X54888741Y-85468370D01*
X54545884Y-84706466D02*
X54507789Y-84668370D01*
X54507789Y-84668370D02*
X54469694Y-84592180D01*
X54469694Y-84592180D02*
X54469694Y-84401704D01*
X54469694Y-84401704D02*
X54507789Y-84325513D01*
X54507789Y-84325513D02*
X54545884Y-84287418D01*
X54545884Y-84287418D02*
X54622075Y-84249323D01*
X54622075Y-84249323D02*
X54698265Y-84249323D01*
X54698265Y-84249323D02*
X54812551Y-84287418D01*
X54812551Y-84287418D02*
X55269694Y-84744561D01*
X55269694Y-84744561D02*
X55269694Y-84249323D01*
X54812551Y-83792180D02*
X54774456Y-83868370D01*
X54774456Y-83868370D02*
X54736360Y-83906465D01*
X54736360Y-83906465D02*
X54660170Y-83944561D01*
X54660170Y-83944561D02*
X54622075Y-83944561D01*
X54622075Y-83944561D02*
X54545884Y-83906465D01*
X54545884Y-83906465D02*
X54507789Y-83868370D01*
X54507789Y-83868370D02*
X54469694Y-83792180D01*
X54469694Y-83792180D02*
X54469694Y-83639799D01*
X54469694Y-83639799D02*
X54507789Y-83563608D01*
X54507789Y-83563608D02*
X54545884Y-83525513D01*
X54545884Y-83525513D02*
X54622075Y-83487418D01*
X54622075Y-83487418D02*
X54660170Y-83487418D01*
X54660170Y-83487418D02*
X54736360Y-83525513D01*
X54736360Y-83525513D02*
X54774456Y-83563608D01*
X54774456Y-83563608D02*
X54812551Y-83639799D01*
X54812551Y-83639799D02*
X54812551Y-83792180D01*
X54812551Y-83792180D02*
X54850646Y-83868370D01*
X54850646Y-83868370D02*
X54888741Y-83906465D01*
X54888741Y-83906465D02*
X54964932Y-83944561D01*
X54964932Y-83944561D02*
X55117313Y-83944561D01*
X55117313Y-83944561D02*
X55193503Y-83906465D01*
X55193503Y-83906465D02*
X55231599Y-83868370D01*
X55231599Y-83868370D02*
X55269694Y-83792180D01*
X55269694Y-83792180D02*
X55269694Y-83639799D01*
X55269694Y-83639799D02*
X55231599Y-83563608D01*
X55231599Y-83563608D02*
X55193503Y-83525513D01*
X55193503Y-83525513D02*
X55117313Y-83487418D01*
X55117313Y-83487418D02*
X54964932Y-83487418D01*
X54964932Y-83487418D02*
X54888741Y-83525513D01*
X54888741Y-83525513D02*
X54850646Y-83563608D01*
X54850646Y-83563608D02*
X54812551Y-83639799D01*
X62957618Y-81256637D02*
X63224285Y-82056637D01*
X63224285Y-82056637D02*
X63490951Y-81256637D01*
X63643332Y-81256637D02*
X64100475Y-81256637D01*
X63871903Y-82056637D02*
X63871903Y-81256637D01*
X64329046Y-81332827D02*
X64367142Y-81294732D01*
X64367142Y-81294732D02*
X64443332Y-81256637D01*
X64443332Y-81256637D02*
X64633808Y-81256637D01*
X64633808Y-81256637D02*
X64709999Y-81294732D01*
X64709999Y-81294732D02*
X64748094Y-81332827D01*
X64748094Y-81332827D02*
X64786189Y-81409018D01*
X64786189Y-81409018D02*
X64786189Y-81485208D01*
X64786189Y-81485208D02*
X64748094Y-81599494D01*
X64748094Y-81599494D02*
X64290951Y-82056637D01*
X64290951Y-82056637D02*
X64786189Y-82056637D01*
X70395713Y-72480446D02*
X70357617Y-72518542D01*
X70357617Y-72518542D02*
X70243332Y-72556637D01*
X70243332Y-72556637D02*
X70167141Y-72556637D01*
X70167141Y-72556637D02*
X70052855Y-72518542D01*
X70052855Y-72518542D02*
X69976665Y-72442351D01*
X69976665Y-72442351D02*
X69938570Y-72366161D01*
X69938570Y-72366161D02*
X69900474Y-72213780D01*
X69900474Y-72213780D02*
X69900474Y-72099494D01*
X69900474Y-72099494D02*
X69938570Y-71947113D01*
X69938570Y-71947113D02*
X69976665Y-71870922D01*
X69976665Y-71870922D02*
X70052855Y-71794732D01*
X70052855Y-71794732D02*
X70167141Y-71756637D01*
X70167141Y-71756637D02*
X70243332Y-71756637D01*
X70243332Y-71756637D02*
X70357617Y-71794732D01*
X70357617Y-71794732D02*
X70395713Y-71832827D01*
X71157617Y-72556637D02*
X70700474Y-72556637D01*
X70929046Y-72556637D02*
X70929046Y-71756637D01*
X70929046Y-71756637D02*
X70852855Y-71870922D01*
X70852855Y-71870922D02*
X70776665Y-71947113D01*
X70776665Y-71947113D02*
X70700474Y-71985208D01*
X71652856Y-71756637D02*
X71729046Y-71756637D01*
X71729046Y-71756637D02*
X71805237Y-71794732D01*
X71805237Y-71794732D02*
X71843332Y-71832827D01*
X71843332Y-71832827D02*
X71881427Y-71909018D01*
X71881427Y-71909018D02*
X71919522Y-72061399D01*
X71919522Y-72061399D02*
X71919522Y-72251875D01*
X71919522Y-72251875D02*
X71881427Y-72404256D01*
X71881427Y-72404256D02*
X71843332Y-72480446D01*
X71843332Y-72480446D02*
X71805237Y-72518542D01*
X71805237Y-72518542D02*
X71729046Y-72556637D01*
X71729046Y-72556637D02*
X71652856Y-72556637D01*
X71652856Y-72556637D02*
X71576665Y-72518542D01*
X71576665Y-72518542D02*
X71538570Y-72480446D01*
X71538570Y-72480446D02*
X71500475Y-72404256D01*
X71500475Y-72404256D02*
X71462379Y-72251875D01*
X71462379Y-72251875D02*
X71462379Y-72061399D01*
X71462379Y-72061399D02*
X71500475Y-71909018D01*
X71500475Y-71909018D02*
X71538570Y-71832827D01*
X71538570Y-71832827D02*
X71576665Y-71794732D01*
X71576665Y-71794732D02*
X71652856Y-71756637D01*
X68576666Y-70680446D02*
X68538570Y-70718542D01*
X68538570Y-70718542D02*
X68424285Y-70756637D01*
X68424285Y-70756637D02*
X68348094Y-70756637D01*
X68348094Y-70756637D02*
X68233808Y-70718542D01*
X68233808Y-70718542D02*
X68157618Y-70642351D01*
X68157618Y-70642351D02*
X68119523Y-70566161D01*
X68119523Y-70566161D02*
X68081427Y-70413780D01*
X68081427Y-70413780D02*
X68081427Y-70299494D01*
X68081427Y-70299494D02*
X68119523Y-70147113D01*
X68119523Y-70147113D02*
X68157618Y-70070922D01*
X68157618Y-70070922D02*
X68233808Y-69994732D01*
X68233808Y-69994732D02*
X68348094Y-69956637D01*
X68348094Y-69956637D02*
X68424285Y-69956637D01*
X68424285Y-69956637D02*
X68538570Y-69994732D01*
X68538570Y-69994732D02*
X68576666Y-70032827D01*
X68881427Y-70032827D02*
X68919523Y-69994732D01*
X68919523Y-69994732D02*
X68995713Y-69956637D01*
X68995713Y-69956637D02*
X69186189Y-69956637D01*
X69186189Y-69956637D02*
X69262380Y-69994732D01*
X69262380Y-69994732D02*
X69300475Y-70032827D01*
X69300475Y-70032827D02*
X69338570Y-70109018D01*
X69338570Y-70109018D02*
X69338570Y-70185208D01*
X69338570Y-70185208D02*
X69300475Y-70299494D01*
X69300475Y-70299494D02*
X68843332Y-70756637D01*
X68843332Y-70756637D02*
X69338570Y-70756637D01*
X52095713Y-79656637D02*
X51829046Y-79275684D01*
X51638570Y-79656637D02*
X51638570Y-78856637D01*
X51638570Y-78856637D02*
X51943332Y-78856637D01*
X51943332Y-78856637D02*
X52019522Y-78894732D01*
X52019522Y-78894732D02*
X52057617Y-78932827D01*
X52057617Y-78932827D02*
X52095713Y-79009018D01*
X52095713Y-79009018D02*
X52095713Y-79123303D01*
X52095713Y-79123303D02*
X52057617Y-79199494D01*
X52057617Y-79199494D02*
X52019522Y-79237589D01*
X52019522Y-79237589D02*
X51943332Y-79275684D01*
X51943332Y-79275684D02*
X51638570Y-79275684D01*
X52400474Y-78932827D02*
X52438570Y-78894732D01*
X52438570Y-78894732D02*
X52514760Y-78856637D01*
X52514760Y-78856637D02*
X52705236Y-78856637D01*
X52705236Y-78856637D02*
X52781427Y-78894732D01*
X52781427Y-78894732D02*
X52819522Y-78932827D01*
X52819522Y-78932827D02*
X52857617Y-79009018D01*
X52857617Y-79009018D02*
X52857617Y-79085208D01*
X52857617Y-79085208D02*
X52819522Y-79199494D01*
X52819522Y-79199494D02*
X52362379Y-79656637D01*
X52362379Y-79656637D02*
X52857617Y-79656637D01*
X53543332Y-78856637D02*
X53390951Y-78856637D01*
X53390951Y-78856637D02*
X53314760Y-78894732D01*
X53314760Y-78894732D02*
X53276665Y-78932827D01*
X53276665Y-78932827D02*
X53200475Y-79047113D01*
X53200475Y-79047113D02*
X53162379Y-79199494D01*
X53162379Y-79199494D02*
X53162379Y-79504256D01*
X53162379Y-79504256D02*
X53200475Y-79580446D01*
X53200475Y-79580446D02*
X53238570Y-79618542D01*
X53238570Y-79618542D02*
X53314760Y-79656637D01*
X53314760Y-79656637D02*
X53467141Y-79656637D01*
X53467141Y-79656637D02*
X53543332Y-79618542D01*
X53543332Y-79618542D02*
X53581427Y-79580446D01*
X53581427Y-79580446D02*
X53619522Y-79504256D01*
X53619522Y-79504256D02*
X53619522Y-79313780D01*
X53619522Y-79313780D02*
X53581427Y-79237589D01*
X53581427Y-79237589D02*
X53543332Y-79199494D01*
X53543332Y-79199494D02*
X53467141Y-79161399D01*
X53467141Y-79161399D02*
X53314760Y-79161399D01*
X53314760Y-79161399D02*
X53238570Y-79199494D01*
X53238570Y-79199494D02*
X53200475Y-79237589D01*
X53200475Y-79237589D02*
X53162379Y-79313780D01*
X85993503Y-82011227D02*
X86031599Y-82049323D01*
X86031599Y-82049323D02*
X86069694Y-82163608D01*
X86069694Y-82163608D02*
X86069694Y-82239799D01*
X86069694Y-82239799D02*
X86031599Y-82354085D01*
X86031599Y-82354085D02*
X85955408Y-82430275D01*
X85955408Y-82430275D02*
X85879218Y-82468370D01*
X85879218Y-82468370D02*
X85726837Y-82506466D01*
X85726837Y-82506466D02*
X85612551Y-82506466D01*
X85612551Y-82506466D02*
X85460170Y-82468370D01*
X85460170Y-82468370D02*
X85383979Y-82430275D01*
X85383979Y-82430275D02*
X85307789Y-82354085D01*
X85307789Y-82354085D02*
X85269694Y-82239799D01*
X85269694Y-82239799D02*
X85269694Y-82163608D01*
X85269694Y-82163608D02*
X85307789Y-82049323D01*
X85307789Y-82049323D02*
X85345884Y-82011227D01*
X86069694Y-81249323D02*
X86069694Y-81706466D01*
X86069694Y-81477894D02*
X85269694Y-81477894D01*
X85269694Y-81477894D02*
X85383979Y-81554085D01*
X85383979Y-81554085D02*
X85460170Y-81630275D01*
X85460170Y-81630275D02*
X85498265Y-81706466D01*
X85269694Y-80525513D02*
X85269694Y-80906465D01*
X85269694Y-80906465D02*
X85650646Y-80944561D01*
X85650646Y-80944561D02*
X85612551Y-80906465D01*
X85612551Y-80906465D02*
X85574456Y-80830275D01*
X85574456Y-80830275D02*
X85574456Y-80639799D01*
X85574456Y-80639799D02*
X85612551Y-80563608D01*
X85612551Y-80563608D02*
X85650646Y-80525513D01*
X85650646Y-80525513D02*
X85726837Y-80487418D01*
X85726837Y-80487418D02*
X85917313Y-80487418D01*
X85917313Y-80487418D02*
X85993503Y-80525513D01*
X85993503Y-80525513D02*
X86031599Y-80563608D01*
X86031599Y-80563608D02*
X86069694Y-80639799D01*
X86069694Y-80639799D02*
X86069694Y-80830275D01*
X86069694Y-80830275D02*
X86031599Y-80906465D01*
X86031599Y-80906465D02*
X85993503Y-80944561D01*
X61876665Y-56356636D02*
X61609998Y-55975683D01*
X61419522Y-56356636D02*
X61419522Y-55556636D01*
X61419522Y-55556636D02*
X61724284Y-55556636D01*
X61724284Y-55556636D02*
X61800474Y-55594731D01*
X61800474Y-55594731D02*
X61838569Y-55632826D01*
X61838569Y-55632826D02*
X61876665Y-55709017D01*
X61876665Y-55709017D02*
X61876665Y-55823302D01*
X61876665Y-55823302D02*
X61838569Y-55899493D01*
X61838569Y-55899493D02*
X61800474Y-55937588D01*
X61800474Y-55937588D02*
X61724284Y-55975683D01*
X61724284Y-55975683D02*
X61419522Y-55975683D01*
X62181426Y-55632826D02*
X62219522Y-55594731D01*
X62219522Y-55594731D02*
X62295712Y-55556636D01*
X62295712Y-55556636D02*
X62486188Y-55556636D01*
X62486188Y-55556636D02*
X62562379Y-55594731D01*
X62562379Y-55594731D02*
X62600474Y-55632826D01*
X62600474Y-55632826D02*
X62638569Y-55709017D01*
X62638569Y-55709017D02*
X62638569Y-55785207D01*
X62638569Y-55785207D02*
X62600474Y-55899493D01*
X62600474Y-55899493D02*
X62143331Y-56356636D01*
X62143331Y-56356636D02*
X62638569Y-56356636D01*
D12*
X55809999Y-41596942D02*
G75*
G02*
X55609999Y-41596942I-100000J0D01*
G01*
X55609999Y-41596942D02*
G75*
G02*
X55809999Y-41596942I100000J0D01*
G01*
D13*
X79187498Y-52196941D02*
X79187498Y-51996941D01*
X80232498Y-52196941D02*
X80232498Y-51996941D01*
X74409998Y-34974441D02*
X74609998Y-34974441D01*
X74409998Y-36019441D02*
X74609998Y-36019441D01*
X82309998Y-51974441D02*
X82509998Y-51974441D01*
X82309998Y-53019441D02*
X82509998Y-53019441D01*
D10*
X48139730Y-81688388D02*
X48139730Y-82338388D01*
X48824730Y-82363388D02*
X48174730Y-82363388D01*
X50585838Y-82351000D02*
X51235838Y-82351000D01*
X51260838Y-81666000D02*
X51260838Y-82316000D01*
D12*
X56508899Y-87768342D02*
G75*
G02*
X56308899Y-87768342I-100000J0D01*
G01*
X56308899Y-87768342D02*
G75*
G02*
X56508899Y-87768342I100000J0D01*
G01*
D13*
X57609998Y-58974441D02*
X57809998Y-58974441D01*
X57609998Y-60019441D02*
X57809998Y-60019441D01*
X62387498Y-38096941D02*
X62387498Y-37896941D01*
X63432498Y-38096941D02*
X63432498Y-37896941D01*
X54799998Y-60896941D02*
X54799998Y-60696941D01*
X55819998Y-60896941D02*
X55819998Y-60696941D01*
X57609998Y-55574441D02*
X57809998Y-55574441D01*
X57609998Y-56619441D02*
X57809998Y-56619441D01*
X80193178Y-76838167D02*
X80193178Y-77038167D01*
X81213178Y-76838167D02*
X81213178Y-77038167D01*
X52687498Y-57593342D02*
X52687498Y-57793342D01*
X53732498Y-57593342D02*
X53732498Y-57793342D01*
X84909998Y-54586941D02*
X85109998Y-54586941D01*
X84909998Y-55606941D02*
X85109998Y-55606941D01*
D12*
X81208899Y-83468342D02*
G75*
G02*
X81008899Y-83468342I-100000J0D01*
G01*
X81008899Y-83468342D02*
G75*
G02*
X81208899Y-83468342I100000J0D01*
G01*
D13*
X72470348Y-79283342D02*
X74820348Y-79283342D01*
X72470348Y-85038905D02*
X72470348Y-79283342D01*
X73534785Y-86103342D02*
X72470348Y-85038905D01*
X73534785Y-86103342D02*
X74820348Y-86103342D01*
X73639098Y-86737092D02*
X74426598Y-86737092D01*
X74032848Y-87130842D02*
X74032848Y-86343342D01*
X78225911Y-86103342D02*
X76940348Y-86103342D01*
X78225911Y-86103342D02*
X79290348Y-85038905D01*
X79290348Y-79283342D02*
X76940348Y-79283342D01*
X79290348Y-85038905D02*
X79290348Y-79283342D01*
X53357229Y-69695348D02*
X54857229Y-69695348D01*
X54107229Y-67475348D02*
X54857229Y-67475348D01*
D12*
X52850320Y-67380842D02*
G75*
G02*
X52567478Y-67380842I-141421J0D01*
G01*
X52567478Y-67380842D02*
G75*
G02*
X52850320Y-67380842I141421J0D01*
G01*
D10*
X60338853Y-70409173D02*
X60338853Y-69759173D01*
X60351241Y-72170281D02*
X60351241Y-72820281D01*
X61013853Y-69724173D02*
X60363853Y-69724173D01*
X61036241Y-72845281D02*
X60386241Y-72845281D01*
D12*
X51233899Y-58293342D02*
G75*
G02*
X51033899Y-58293342I-100000J0D01*
G01*
X51033899Y-58293342D02*
G75*
G02*
X51233899Y-58293342I100000J0D01*
G01*
D13*
X54799998Y-53596941D02*
X54799998Y-53396941D01*
X55819998Y-53596941D02*
X55819998Y-53396941D01*
X52687498Y-49796941D02*
X52687498Y-49996941D01*
X53732498Y-49796941D02*
X53732498Y-49996941D01*
X54108899Y-70158342D02*
X53908899Y-70158342D01*
X54108899Y-71203342D02*
X53908899Y-71203342D01*
X54799998Y-57593342D02*
X54799998Y-57793342D01*
X55819998Y-57593342D02*
X55819998Y-57793342D01*
X61386399Y-75693342D02*
X61386399Y-75893342D01*
X62431399Y-75693342D02*
X62431399Y-75893342D01*
X64187498Y-38096941D02*
X64187498Y-37896941D01*
X65232498Y-38096941D02*
X65232498Y-37896941D01*
D10*
X82758059Y-49624283D02*
X82758059Y-48974283D01*
X83433059Y-48939283D02*
X82783059Y-48939283D01*
X85194167Y-48926895D02*
X85844167Y-48926895D01*
X85879167Y-49601895D02*
X85879167Y-48951895D01*
X49008899Y-72193342D02*
X49008899Y-74193342D01*
D13*
X49298899Y-72193342D02*
X49298899Y-74193342D01*
X49298899Y-72193342D02*
X53158899Y-72193342D01*
X49298899Y-74193342D02*
X53158899Y-74193342D01*
D10*
X64009999Y-88996942D02*
X64009999Y-94496942D01*
X64009999Y-94496942D02*
X75209999Y-94496942D01*
X75209999Y-88996942D02*
X75209999Y-94496942D01*
D12*
X67251420Y-86696942D02*
G75*
G02*
X66968578Y-86696942I-141421J0D01*
G01*
X66968578Y-86696942D02*
G75*
G02*
X67251420Y-86696942I141421J0D01*
G01*
D13*
X52687498Y-53593342D02*
X52687498Y-53393342D01*
X53732498Y-53593342D02*
X53732498Y-53393342D01*
X72087499Y-76496942D02*
X72087499Y-76296942D01*
X73132499Y-76496942D02*
X73132499Y-76296942D01*
X60586399Y-79393342D02*
X60586399Y-79593342D01*
X61631399Y-79393342D02*
X61631399Y-79593342D01*
X52687498Y-60896941D02*
X52687498Y-60696941D01*
X53732498Y-60896941D02*
X53732498Y-60696941D01*
X54799998Y-49796941D02*
X54799998Y-49996941D01*
X55819998Y-49796941D02*
X55819998Y-49996941D01*
X75014182Y-73380481D02*
X75214182Y-73380481D01*
X75014182Y-74425481D02*
X75214182Y-74425481D01*
X63448899Y-71393342D02*
X63448899Y-71193342D01*
X64493899Y-71393342D02*
X64493899Y-71193342D01*
X60586399Y-86193342D02*
X60586399Y-85993342D01*
X61631399Y-86193342D02*
X61631399Y-85993342D01*
X56108899Y-72670842D02*
X56308899Y-72670842D01*
X56108899Y-73715842D02*
X56308899Y-73715842D01*
X77918899Y-75193342D02*
X74058899Y-75193342D01*
X77918899Y-77193342D02*
X74058899Y-77193342D01*
X77918899Y-77193342D02*
X77918899Y-75193342D01*
D10*
X78208899Y-77193342D02*
X78208899Y-75193342D01*
D12*
X51233899Y-49193342D02*
G75*
G02*
X51033899Y-49193342I-100000J0D01*
G01*
X51033899Y-49193342D02*
G75*
G02*
X51233899Y-49193342I100000J0D01*
G01*
D13*
X66309999Y-72920842D02*
X66509999Y-72920842D01*
X66309999Y-73965842D02*
X66509999Y-73965842D01*
X64109998Y-57874441D02*
X64309998Y-57874441D01*
X64109998Y-58919441D02*
X64309998Y-58919441D01*
X68799998Y-58596941D02*
X68799998Y-58396941D01*
X69819998Y-58596941D02*
X69819998Y-58396941D01*
X52186399Y-81893342D02*
X52186399Y-81693342D01*
X53231399Y-81893342D02*
X53231399Y-81693342D01*
D10*
X81956510Y-79424468D02*
X81956510Y-77924468D01*
X84434534Y-79431228D02*
X84434534Y-77931228D01*
D12*
X82008899Y-80193342D02*
G75*
G02*
X81808899Y-80193342I-100000J0D01*
G01*
X81808899Y-80193342D02*
G75*
G02*
X82008899Y-80193342I100000J0D01*
G01*
D13*
X50797799Y-67077242D02*
X50797799Y-66877242D01*
X51817799Y-67077242D02*
X51817799Y-66877242D01*
D10*
X56239730Y-81488388D02*
X56239730Y-82138388D01*
X56924730Y-82163388D02*
X56274730Y-82163388D01*
X58685838Y-82151000D02*
X59335838Y-82151000D01*
X59360838Y-81466000D02*
X59360838Y-82116000D01*
X82009998Y-55496941D02*
X82009998Y-54296941D01*
X57337753Y-85180573D02*
X57337753Y-84530573D01*
X57350141Y-86941681D02*
X57350141Y-87591681D01*
X58012753Y-84495573D02*
X57362753Y-84495573D01*
X58035141Y-87616681D02*
X57385141Y-87616681D01*
X48139730Y-76788388D02*
X48139730Y-77438388D01*
X48824730Y-77463388D02*
X48174730Y-77463388D01*
X50585838Y-77451000D02*
X51235838Y-77451000D01*
X51260838Y-76766000D02*
X51260838Y-77416000D01*
D13*
X64586399Y-75893342D02*
X64586399Y-75693342D01*
X65631399Y-75893342D02*
X65631399Y-75693342D01*
X62961399Y-75693342D02*
X62961399Y-75893342D01*
X64006399Y-75693342D02*
X64006399Y-75893342D01*
X58186399Y-77193342D02*
X58186399Y-77393342D01*
X59231399Y-77193342D02*
X59231399Y-77393342D01*
X56148899Y-67842964D02*
X56148899Y-67043720D01*
X57268899Y-67842964D02*
X57268899Y-67043720D01*
X80534998Y-49174441D02*
X80334998Y-49174441D01*
X80534998Y-50219441D02*
X80334998Y-50219441D01*
X54158899Y-65120842D02*
X53958899Y-65120842D01*
X54158899Y-66140842D02*
X53958899Y-66140842D01*
X71418899Y-74693342D02*
X67558899Y-74693342D01*
X71418899Y-76693342D02*
X67558899Y-76693342D01*
X71418899Y-76693342D02*
X71418899Y-74693342D01*
D10*
X71708899Y-76693342D02*
X71708899Y-74693342D01*
D13*
X80197799Y-80289742D02*
X80197799Y-80089742D01*
X81217799Y-80289742D02*
X81217799Y-80089742D01*
X74587498Y-33296941D02*
X74587498Y-33096941D01*
X75632498Y-33296941D02*
X75632498Y-33096941D01*
D10*
X54056960Y-76920684D02*
X54056960Y-76270684D01*
X54731960Y-76235684D02*
X54081960Y-76235684D01*
X56493068Y-76223296D02*
X57143068Y-76223296D01*
X57178068Y-76898296D02*
X57178068Y-76248296D01*
D13*
X77499998Y-50421941D02*
X77499998Y-50621941D01*
X78519998Y-50421941D02*
X78519998Y-50621941D01*
X65323899Y-70793342D02*
X65323899Y-70593342D01*
X66368899Y-70793342D02*
X66368899Y-70593342D01*
X54286399Y-81893342D02*
X54286399Y-81693342D01*
X55331399Y-81893342D02*
X55331399Y-81693342D01*
D10*
X64081557Y-77841403D02*
X64731557Y-77841403D01*
X64103945Y-80962511D02*
X64753945Y-80962511D01*
X64766557Y-78516403D02*
X64766557Y-77866403D01*
X64778945Y-80277511D02*
X64778945Y-80927511D01*
D13*
X71496399Y-72870842D02*
X71296399Y-72870842D01*
X71496399Y-73890842D02*
X71296399Y-73890842D01*
X68108899Y-71183342D02*
X68308899Y-71183342D01*
X68108899Y-72203342D02*
X68308899Y-72203342D01*
X52086399Y-76993342D02*
X52086399Y-77193342D01*
X53131399Y-76993342D02*
X53131399Y-77193342D01*
X83180531Y-80522293D02*
X83380531Y-80522293D01*
X83180531Y-81542293D02*
X83380531Y-81542293D01*
X61109998Y-56874441D02*
X61309998Y-56874441D01*
X61109998Y-57919441D02*
X61309998Y-57919441D01*
%LPC*%
D14*
X85909999Y-57546942D03*
X84809999Y-57546942D03*
X83709999Y-57546942D03*
X82609999Y-57546942D03*
X81509999Y-57546942D03*
X80409999Y-57546942D03*
X79309999Y-57546942D03*
X78209999Y-57546942D03*
X77109999Y-57546942D03*
X76009999Y-57546942D03*
X74909999Y-57546942D03*
X73809999Y-57546942D03*
X72709999Y-57546942D03*
D15*
X71209999Y-58796942D03*
X71209999Y-59896942D03*
X71209999Y-60996942D03*
X71209999Y-62096942D03*
X71209999Y-63196942D03*
X71209999Y-64296942D03*
X71209999Y-65396942D03*
X71209999Y-66496942D03*
X71209999Y-67596942D03*
X71209999Y-68696942D03*
X71209999Y-69796942D03*
D14*
X72709999Y-71046942D03*
X73809999Y-71046942D03*
X74909999Y-71046942D03*
X76009999Y-71046942D03*
X77109999Y-71046942D03*
X78209999Y-71046942D03*
X79309999Y-71046942D03*
X80409999Y-71046942D03*
X81509999Y-71046942D03*
X82609999Y-71046942D03*
X83709999Y-71046942D03*
X84809999Y-71046942D03*
X85909999Y-71046942D03*
D16*
X83709999Y-60046942D03*
X82609999Y-60046942D03*
X81509999Y-60046942D03*
X80409999Y-60046942D03*
X79309999Y-60046942D03*
X78209999Y-60046942D03*
X77109999Y-60046942D03*
X76009999Y-60046942D03*
X74909999Y-60046942D03*
X83709999Y-68546942D03*
X82609999Y-68546942D03*
X81509999Y-68546942D03*
X80409999Y-68546942D03*
X79309999Y-68546942D03*
X78209999Y-68546942D03*
X77109999Y-68546942D03*
X76009999Y-68546942D03*
X74909999Y-68546942D03*
D17*
X54609999Y-42396942D03*
X54609999Y-43396942D03*
D18*
X52084999Y-41096942D03*
X52084999Y-44696942D03*
D19*
X79709998Y-52921941D03*
X79709998Y-51271941D03*
D20*
X73684998Y-35496941D03*
X75334998Y-35496941D03*
X81584998Y-52496941D03*
X83234998Y-52496941D03*
D21*
X50658899Y-80655842D03*
X48758899Y-80655842D03*
X49708899Y-82530842D03*
D22*
X57208899Y-88868342D03*
X58208899Y-88868342D03*
D23*
X55908899Y-91393342D03*
X59508899Y-91393342D03*
D20*
X56884998Y-59496941D03*
X58534998Y-59496941D03*
D19*
X62909998Y-38821941D03*
X62909998Y-37171941D03*
D24*
X55309998Y-61571941D03*
X55309998Y-60021941D03*
D20*
X56884998Y-56096941D03*
X58534998Y-56096941D03*
D25*
X80703178Y-76163167D03*
X80703178Y-77713167D03*
D26*
X53209998Y-56868342D03*
X53209998Y-58518342D03*
D27*
X84234998Y-55096941D03*
X85784998Y-55096941D03*
D28*
X82309999Y-38143342D03*
X82309999Y-46843342D03*
D22*
X82208899Y-84368342D03*
X83208899Y-84368342D03*
D23*
X80908899Y-86893342D03*
X84508899Y-86893342D03*
D29*
X75880348Y-85393342D03*
X75880348Y-79993342D03*
D30*
X53458899Y-67830842D03*
X53458899Y-68330842D03*
X53458899Y-68830842D03*
X53458899Y-69330842D03*
X54758899Y-69330842D03*
X54758899Y-68830842D03*
X54758899Y-68330842D03*
X54758899Y-67830842D03*
D31*
X62046399Y-72243342D03*
X62046399Y-70343342D03*
X60171399Y-71293342D03*
D17*
X50233899Y-59093342D03*
X50233899Y-60093342D03*
X50233899Y-61093342D03*
D18*
X47708899Y-57793342D03*
X47708899Y-62393342D03*
D24*
X55309998Y-54271941D03*
X55309998Y-52721941D03*
D26*
X53209998Y-49071941D03*
X53209998Y-50721941D03*
D32*
X54833899Y-70680842D03*
X53183899Y-70680842D03*
D33*
X57009999Y-40296942D03*
D25*
X55309998Y-56918342D03*
X55309998Y-58468342D03*
D26*
X61908899Y-74968342D03*
X61908899Y-76618342D03*
D19*
X64709998Y-38821941D03*
X64709998Y-37171941D03*
D34*
X83359998Y-50634441D03*
X85259998Y-50634441D03*
X84309998Y-48759441D03*
D35*
X52908899Y-73193342D03*
X50108899Y-73193342D03*
D36*
X68109999Y-87896942D03*
X69109999Y-87896942D03*
X70109999Y-87896942D03*
X71109999Y-87896942D03*
D37*
X65459999Y-90496942D03*
X73759999Y-90496942D03*
D19*
X53209998Y-54318342D03*
X53209998Y-52668342D03*
X72609999Y-77221942D03*
X72609999Y-75571942D03*
D26*
X61108899Y-78668342D03*
X61108899Y-80318342D03*
D33*
X53208899Y-47893342D03*
D19*
X53209998Y-61621941D03*
X53209998Y-59971941D03*
D25*
X55309998Y-49121941D03*
X55309998Y-50671941D03*
D20*
X74289182Y-73902981D03*
X75939182Y-73902981D03*
D19*
X63971399Y-72118342D03*
X63971399Y-70468342D03*
X61108899Y-86918342D03*
X61108899Y-85268342D03*
D20*
X55383899Y-73193342D03*
X57033899Y-73193342D03*
D38*
X74308899Y-76193342D03*
X77108899Y-76193342D03*
D17*
X50233899Y-49993342D03*
X50233899Y-50993342D03*
X50233899Y-51993342D03*
D18*
X47708899Y-48693342D03*
X47708899Y-53293342D03*
D20*
X65584999Y-73443342D03*
X67234999Y-73443342D03*
X63384998Y-58396941D03*
X65034998Y-58396941D03*
D24*
X69309998Y-59271941D03*
X69309998Y-57721941D03*
D19*
X52708899Y-82618342D03*
X52708899Y-80968342D03*
D33*
X56209999Y-69796942D03*
D39*
X82458899Y-79643342D03*
X82958899Y-79643342D03*
X83458899Y-79643342D03*
X83958899Y-79643342D03*
X83958899Y-77743342D03*
X83458899Y-77743342D03*
X82958899Y-77743342D03*
X82458899Y-77743342D03*
D40*
X83208899Y-78693342D03*
D33*
X84308899Y-82693342D03*
D24*
X51307799Y-67752242D03*
X51307799Y-66202242D03*
D21*
X58758899Y-80455842D03*
X56858899Y-80455842D03*
X57808899Y-82330842D03*
D41*
X81309998Y-54896941D03*
X79709998Y-54896941D03*
D31*
X59045299Y-87014742D03*
X59045299Y-85114742D03*
X57170299Y-86064742D03*
D21*
X50658899Y-75755842D03*
X48758899Y-75755842D03*
X49708899Y-77630842D03*
D42*
X69409999Y-28426942D03*
X67389999Y-28426942D03*
D43*
X66159999Y-28426942D03*
D42*
X68409999Y-28426942D03*
X70429999Y-28426942D03*
D43*
X71659999Y-28426942D03*
D44*
X64589999Y-27896942D03*
X73229999Y-27896942D03*
X64589999Y-24146942D03*
X73229999Y-24146942D03*
D19*
X65108899Y-76618342D03*
X65108899Y-74968342D03*
D33*
X51809998Y-62096941D03*
D26*
X63483899Y-74968342D03*
X63483899Y-76618342D03*
X58708899Y-76468342D03*
X58708899Y-78118342D03*
D45*
X56708899Y-68505842D03*
X56708899Y-66380842D03*
D32*
X81259998Y-49696941D03*
X79609998Y-49696941D03*
D46*
X54833899Y-65630842D03*
X53283899Y-65630842D03*
D33*
X50509998Y-53896941D03*
D38*
X67808899Y-75693342D03*
X70608899Y-75693342D03*
D47*
X85018899Y-92693342D03*
D48*
X82478899Y-92693342D03*
X79938899Y-92693342D03*
X77398899Y-92693342D03*
D24*
X80707799Y-80964742D03*
X80707799Y-79414742D03*
D33*
X51608899Y-57193342D03*
X81808899Y-82593342D03*
D19*
X75109998Y-34021941D03*
X75109998Y-32371941D03*
D34*
X54658899Y-77930842D03*
X56558899Y-77930842D03*
X55608899Y-76055842D03*
D25*
X78009998Y-49746941D03*
X78009998Y-51296941D03*
D19*
X65846399Y-71518342D03*
X65846399Y-69868342D03*
X54808899Y-82618342D03*
X54808899Y-80968342D03*
D49*
X63071399Y-78443342D03*
X63071399Y-80343342D03*
X64946399Y-79393342D03*
D46*
X72171399Y-73380842D03*
X70621399Y-73380842D03*
D27*
X67433899Y-71693342D03*
X68983899Y-71693342D03*
D26*
X52608899Y-76268342D03*
X52608899Y-77918342D03*
D27*
X82505531Y-81032293D03*
X84055531Y-81032293D03*
D20*
X60384998Y-57396941D03*
X62034998Y-57396941D03*
%LPD*%
M02*
